<svg width="40" height="42" viewBox="0 0 40 42" fill="none" xmlns="http://www.w3.org/2000/svg">
<mask id="mask0_100_104" style="mask-type:luminance" maskUnits="userSpaceOnUse" x="0" y="0" width="40" height="41">
<path d="M39.9495 0.5H0V40.625H39.9495V0.5Z" fill="white"/>
</mask>
<g mask="url(#mask0_100_104)">
<path d="M14.127 22.8373C12.288 22.9702 10.6471 23.3082 9.21365 23.7429L6.88634 17.1572L2.51959 27.2181H2.51843L2.20843 27.9336H0L6.93879 11.4933H9.72409L14.127 22.8373Z" fill="#C084FC"/>
<path d="M14.3508 23.413C14.3205 23.4119 14.2891 23.4119 14.2588 23.4107C14.2879 23.4084 14.3182 23.4072 14.3473 23.4049L14.3508 23.413Z" fill="#C084FC"/>
<path d="M17.3955 23.4014C18.5155 23.469 19.6552 23.6123 20.7985 23.8279C19.7694 23.6601 18.5749 23.497 17.3955 23.4014Z" fill="#C084FC"/>
<path d="M28.4892 11.4933L23.8777 23.955C22.654 23.6729 21.7578 23.4387 21.5469 23.3839L21.534 23.3804C19.8652 23.0285 18.2057 22.828 16.5928 22.7826L12.1689 11.4933H17.5694L21.6296 22.8875L26.3215 11.4933H28.4892Z" fill="#C084FC"/>
<path d="M37.9695 25.3698C36.0932 26.2648 32.9757 27.3871 28.7686 27.6574V25.4979C29.1695 25.5574 29.5658 25.6098 29.948 25.6518C30.3373 25.6949 30.7766 25.717 31.2544 25.717C32.5014 25.717 33.9139 25.5679 35.2389 25.3698H37.9695Z" fill="#C084FC"/>
<path d="M38.9663 25.5213V27.7355H32.6289C35.54 27.1423 37.6797 26.2065 38.9663 25.5213Z" fill="#C084FC"/>
<path d="M33.8673 13.5957V18.3261H38.9659V20.3236H33.8673V24.9654C32.9722 25.0679 32.0761 25.1343 31.2544 25.1343C30.7976 25.1343 30.3804 25.1134 30.0121 25.0726C29.6089 25.0283 29.1929 24.9724 28.7686 24.9083V11.4933H38.9659V13.5957H33.8673Z" fill="#C084FC"/>
<path d="M39.4848 24.5551C39.1387 24.7672 38.6317 25.0539 37.9698 25.3698C36.0935 26.2648 32.976 27.3871 28.7689 27.6574C28.1559 27.6982 27.5196 27.7192 26.8612 27.7192C26.6724 27.7192 26.4836 27.718 26.2936 27.7145C26.2762 27.7087 26.2575 27.7017 26.24 27.6947C25.8729 27.556 25.5023 27.4104 25.1434 27.2694C24.436 26.992 23.7065 26.7053 22.9688 26.4606C18.9936 25.1367 13.0442 23.8571 7.28129 25.2719C6.8804 25.3709 6.49698 25.4781 6.12988 25.5958C8.08192 24.6192 10.8113 23.652 14.2446 23.4107H14.2586C14.2877 23.4084 14.318 23.4072 14.3471 23.4049C14.8448 23.3723 15.3575 23.3548 15.8843 23.3548C16.3831 23.3548 16.8877 23.3699 17.3958 23.4014C18.5158 23.469 19.6555 23.6123 20.7988 23.8279C21.0004 23.8664 21.2032 23.906 21.4048 23.9491C21.8546 24.068 25.5082 25.019 28.7689 25.4979C29.1698 25.5574 29.5661 25.6098 29.9483 25.6518C30.3376 25.6949 30.7769 25.717 31.2547 25.717C32.5017 25.717 33.9142 25.5679 35.2392 25.3698C37.0095 25.1064 38.6247 24.7556 39.4848 24.5551Z" fill="#C084FC"/>
<path d="M40.0005 28.7995C38.9983 29.3473 37.559 30.0348 35.7713 30.6257C32.4161 31.7352 27.1193 32.7129 20.9485 31.0755C20.9229 31.0686 18.3555 30.3355 14.1997 28.6166C12.3397 27.8462 9.86556 27.2659 7.49864 27.0934C7.02082 27.0584 6.54651 27.0398 6.08384 27.0398C5.96497 27.0398 5.84727 27.0409 5.73073 27.0433C5.09675 27.0573 4.48608 27.1062 3.91504 27.1959C3.93951 27.182 3.96398 27.168 3.98846 27.154C4.95923 26.5969 6.08384 26.1657 7.42056 25.8371C13.0495 24.4561 18.8823 25.7135 22.7852 27.013C23.3469 27.1994 23.9098 27.4139 24.4611 27.6283C24.6196 27.6901 24.7757 27.7518 24.9307 27.8124C25.0659 27.8649 25.2034 27.9196 25.3421 27.9733C25.5717 28.063 25.8036 28.1527 26.0355 28.2401C26.0845 28.2588 26.1334 28.2774 26.1835 28.2949C27.4468 28.7564 28.7626 29.0478 30.0958 29.162C32.3695 29.3566 36.3831 29.5279 40.0005 28.7995Z" fill="#C084FC"/>
<path d="M36.6456 10.8139C36.6094 10.8139 36.5733 10.7999 36.5442 10.7731C36.4859 10.7172 36.4836 10.6251 36.5395 10.5669L38.7142 8.2955C38.7701 8.23723 38.8622 8.2349 38.9204 8.29084C38.9787 8.34678 38.981 8.43884 38.9251 8.49711L36.7505 10.7696C36.7213 10.7999 36.6829 10.8151 36.6444 10.8151L36.6456 10.8139Z" fill="#C084FC"/>
</g>
</svg>
