<svg width="40" height="41" viewBox="0 0 40 41" fill="none" xmlns="http://www.w3.org/2000/svg">
<path d="M16.7073 26.8262H21.0235C22.2285 26.8262 23.2053 27.8031 23.2053 29.0081C23.2053 29.1801 23.0657 29.3198 22.8936 29.3198H14.7898C13.929 29.3198 13.2314 28.6222 13.2314 27.7613V27.6566C13.2314 27.29 13.3604 26.9353 13.5961 26.6548L19.7294 19.3458H15.4132C14.2082 19.3458 13.2314 18.369 13.2314 17.164C13.2314 16.992 13.371 16.8523 13.5431 16.8523H21.6469C22.5078 16.8523 23.2053 17.5499 23.2053 18.4108V18.5149C23.2053 18.8814 23.0763 19.2361 22.8407 19.5166L16.7073 26.8262Z" fill="#C084FC"/>
<path d="M8.65767 16.8523H1.17724C1.09122 16.8523 1.01329 16.8872 0.956566 16.944C0.900464 17.0001 0.865556 17.078 0.865556 17.164C0.865556 18.369 1.84238 19.3458 3.04736 19.3458H8.65767C8.82974 19.3458 8.96938 19.4854 8.96938 19.6575V21.8393H3.04736C1.49828 21.8393 0.242188 23.0954 0.242188 24.6445V26.5146C0.242188 28.0637 1.49828 29.3198 3.04736 29.3198H8.03433C8.64524 29.3198 9.19695 29.0686 9.59273 28.6646C9.98858 29.0686 10.5403 29.3198 11.1505 29.3198C11.3226 29.3198 11.4628 29.1801 11.4628 29.0081V19.6575C11.4628 18.1078 10.2068 16.8523 8.65767 16.8523ZM8.65767 26.8262H3.04736C2.87531 26.8262 2.73567 26.6866 2.73567 26.5146V24.6445C2.73567 24.4724 2.87531 24.3328 3.04736 24.3328H8.96938V26.5146C8.96938 26.6866 8.82974 26.8262 8.65767 26.8262Z" fill="#C084FC"/>
<path d="M27.469 12.177V27.1379C27.469 28.3429 26.4922 29.3197 25.2873 29.3197C25.1152 29.3197 24.9756 29.1801 24.9756 29.008V14.0471C24.9756 12.8421 25.9524 11.8653 27.1574 11.8653C27.3295 11.8653 27.469 12.0049 27.469 12.177Z" fill="#C084FC"/>
<path d="M34.8585 28.24C34.919 28.3004 34.9495 28.3802 34.9495 28.46C34.9495 28.5398 34.919 28.6196 34.8585 28.6807C34.0063 29.5329 32.6249 29.5329 31.7728 28.6807L26.1787 23.0859L31.7728 17.4912C32.6249 16.639 34.0063 16.639 34.8585 17.4912C34.919 17.5523 34.9495 17.6321 34.9495 17.7118C34.9495 17.7916 34.919 17.8714 34.8585 17.9319L29.7045 23.0859L34.8585 28.24Z" fill="#C084FC"/>
<path d="M39.2122 17.164V27.138C39.2122 28.343 38.2353 29.3198 37.0303 29.3198C36.8583 29.3198 36.7188 29.1801 36.7188 29.0081V19.0342C36.7188 17.8292 37.6956 16.8523 38.9006 16.8523C39.0726 16.8523 39.2122 16.992 39.2122 17.164Z" fill="#C084FC"/>
<path d="M37.9656 14.9822C38.8263 14.9822 39.524 14.2844 39.524 13.4237C39.524 12.563 38.8263 11.8653 37.9656 11.8653C37.1049 11.8653 36.4072 12.563 36.4072 13.4237C36.4072 14.2844 37.1049 14.9822 37.9656 14.9822Z" fill="#C084FC"/>
</svg>
