<svg width="40" height="41" viewBox="0 0 40 41" fill="none" xmlns="http://www.w3.org/2000/svg">
<g clip-path="url(#clip0_100_126)">
<mask id="mask0_100_126" style="mask-type:luminance" maskUnits="userSpaceOnUse" x="0" y="0" width="40" height="41">
<path d="M40 0.5H0V40.5H40V0.5Z" fill="white"/>
</mask>
<g mask="url(#mask0_100_126)">
<path d="M21.3203 33.3928C21.3203 33.3928 21.3203 33.3836 21.3203 33.379C21.474 33.379 21.6265 33.379 21.7801 33.379C21.7801 33.3836 21.779 33.3882 21.7801 33.3928H21.3203Z" fill="#C084FC"/>
<path d="M21.7801 33.379C21.6265 33.379 21.474 33.379 21.3203 33.379C20.5843 33.3457 19.8826 33.1852 19.2485 32.7988C18.4998 32.3414 17.9965 31.6981 17.8073 30.8302C17.6835 30.2649 17.7293 29.702 17.8554 29.1425C17.9724 28.6242 18.1788 28.1381 18.3794 27.6496C18.4883 27.3848 18.5915 27.1176 18.6248 26.8298C18.6294 26.7943 18.6317 26.7588 18.6317 26.7244C18.6305 26.5409 18.5709 26.4515 18.3943 26.3987C18.0744 26.3024 17.7523 26.3219 17.4335 26.4114C17.0368 26.5226 16.7032 26.7484 16.3867 27.0018C15.959 27.3424 15.5738 27.7299 15.1484 28.0739C14.4857 28.6093 13.8058 29.1207 13.0468 29.5162C12.4758 29.8132 11.8658 29.9737 11.2272 30.0402C10.8305 30.0815 10.4315 30.1044 10.0336 30.0884C8.80561 30.0414 7.92735 29.4474 7.39878 28.3479C7.11558 27.7586 7.04794 27.1348 7.24171 26.4996C7.45611 25.7979 7.93767 25.3439 8.60726 25.0756C9.0418 24.9025 9.49699 24.8004 9.95102 24.6973C10.209 24.6388 10.4636 24.57 10.7032 24.453C10.8362 24.3877 10.9612 24.3097 11.0632 24.2019C11.2421 24.0139 11.2203 23.7525 11.0116 23.5977C10.8351 23.467 10.6275 23.4188 10.4166 23.389C9.89026 23.3145 9.37316 23.3787 8.85721 23.4911C8.14175 23.647 7.41598 23.7318 6.68562 23.7834C6.10776 23.8236 5.52875 23.8385 4.95088 23.8133C4.1116 23.7766 3.2792 23.686 2.48578 23.389C1.54445 23.0359 0.806071 22.4305 0.334835 21.5362C-0.0882447 20.7325 -0.0916844 19.8932 0.2133 19.0482C0.490768 18.28 0.971176 17.6528 1.57885 17.1185C2.46399 16.3411 3.48902 15.8493 4.6459 15.6326C5.22262 15.5248 5.80621 15.5041 6.39096 15.5374C7.41713 15.5959 8.41234 15.8286 9.40526 16.0763C10.013 16.2276 10.6252 16.3446 11.2558 16.332C11.4783 16.3274 11.6973 16.3044 11.9037 16.2139C12.0596 16.1462 12.1639 16.0373 12.1628 15.8493C12.0011 15.7839 11.8326 15.7598 11.6617 15.7415C11.1687 15.691 10.6745 15.6991 10.1804 15.7036C9.78477 15.7071 9.38806 15.7289 8.99365 15.6899C8.20825 15.6131 7.51115 15.3482 7.02615 14.6832C6.5618 14.0469 6.46549 13.3371 6.66613 12.5896C6.93443 11.5875 7.5444 10.8365 8.4261 10.3022C9.14614 9.86536 9.92809 9.60624 10.7628 9.51681C12.5732 9.3219 14.2186 9.76332 15.6988 10.8204C15.9671 11.0119 16.2296 11.2126 16.5266 11.3605C16.9072 11.5497 17.3143 11.6127 17.7339 11.5944C17.8795 11.5886 18.0148 11.5302 18.1432 11.4625C18.4643 11.294 18.736 11.067 18.963 10.7849C19.276 10.3974 19.5329 9.97199 19.7862 9.54547C20.207 8.83919 20.8182 8.35535 21.5577 8.02514C22.4956 7.60664 23.4805 7.44383 24.502 7.52294C25.034 7.56422 25.5477 7.67888 26.0155 7.95061C26.3274 8.13177 26.5796 8.37254 26.716 8.71422C26.888 9.14189 26.8169 9.54777 26.5888 9.9353C26.3641 10.316 26.0614 10.629 25.7415 10.9282C25.5179 11.1369 25.2748 11.3226 25.0444 11.5233C24.8632 11.6815 24.6947 11.8524 24.5731 12.0633C24.5364 12.1264 24.5009 12.1917 24.5043 12.2743C24.6087 12.3362 24.7256 12.3442 24.8426 12.3477C25.5064 12.3672 26.1118 12.1849 26.6725 11.8317C27.0875 11.5692 27.4831 11.2768 27.8878 11.0005C29.0894 10.183 30.408 9.65784 31.8366 9.40445C32.4626 9.29323 33.0921 9.24049 33.7273 9.30584C34.6881 9.40445 35.5744 9.7186 36.3861 10.2403C37.0936 10.6955 37.6886 11.2653 38.1174 11.9957C38.3754 12.4359 38.5474 12.906 38.5852 13.4197C38.6322 14.0549 38.4522 14.6179 38.0647 15.1223C37.4261 15.9513 36.5822 16.4569 35.5824 16.7229C34.9919 16.88 34.3888 16.9488 33.78 16.9843C33.1035 17.0233 32.4259 17.0165 31.7494 17.0486C31.3092 17.0692 30.9159 17.2033 30.5822 17.4969C30.4332 17.6287 30.3105 17.7812 30.2337 17.9658C30.0915 18.304 30.1431 18.6113 30.3954 18.8796C30.6166 19.1147 30.8976 19.25 31.1945 19.3589C31.6153 19.5125 32.0544 19.5802 32.4947 19.6375C33.0645 19.712 33.6401 19.759 34.1962 19.915C34.5425 20.0124 34.8692 20.1511 35.1639 20.3598C35.7154 20.7508 36.0066 21.2977 36.1064 21.9535C36.182 22.4488 36.1327 22.9327 35.9493 23.4005C35.7269 23.968 35.313 24.3647 34.8016 24.6686C34.0827 25.0951 33.2973 25.2648 32.4672 25.2465C31.8274 25.2327 31.2014 25.149 30.596 24.9311C30.0663 24.7397 29.5996 24.4416 29.1594 24.0987C28.9874 23.9646 28.8165 23.8282 28.6319 23.7101C28.4462 23.5908 28.2501 23.4991 28.0266 23.4819C27.6987 23.4567 27.4109 23.5725 27.1426 23.7433C27.068 23.7903 27.0749 23.882 27.0669 23.9589C27.0394 24.218 27.0635 24.4771 27.0898 24.7351C27.1689 25.4918 27.287 26.244 27.3375 27.0041C27.3925 27.8377 27.3845 28.6678 27.193 29.4864C26.9568 30.4988 26.4088 31.3106 25.6039 31.9561C24.7073 32.6739 23.6834 33.1061 22.5552 33.2999C22.2961 33.3446 22.0358 33.3698 21.7744 33.3824L21.7801 33.379ZM10.0485 15.3562C10.7651 15.3562 11.2868 15.3402 11.8062 15.409C11.9851 15.4331 12.1616 15.4652 12.3267 15.5408C12.4471 15.597 12.5079 15.6899 12.509 15.8252C12.5125 16.1519 12.3371 16.403 12.0057 16.5372C11.7615 16.6358 11.5047 16.6645 11.2444 16.669C10.6562 16.6794 10.0806 16.5853 9.51189 16.4466C8.66459 16.2414 7.81842 16.027 6.95048 15.9238C6.29465 15.8458 5.63767 15.8286 4.98298 15.9192C3.87426 16.0728 2.88134 16.5005 2.00766 17.1988C1.3805 17.7009 0.872572 18.3017 0.574466 19.0562C0.198395 20.009 0.267188 20.9228 0.878304 21.7632C1.30368 22.3468 1.85746 22.7779 2.53623 23.0382C3.30213 23.3317 4.10587 23.4246 4.91763 23.4647C5.51269 23.4945 6.10776 23.4773 6.70168 23.4349C7.39076 23.3856 8.0764 23.3065 8.75172 23.1597C9.30437 23.0393 9.8593 22.9659 10.4246 23.0405C10.7032 23.0772 10.9726 23.1425 11.2043 23.3099C11.5918 23.5897 11.6365 24.0987 11.3051 24.4427C11.2157 24.5356 11.1125 24.6113 11.0013 24.6778C10.7066 24.8532 10.3833 24.9472 10.0531 25.0229C9.61164 25.1238 9.17022 25.2201 8.74714 25.3863C8.12112 25.6328 7.68886 26.0605 7.53293 26.729C7.40681 27.269 7.49509 27.7895 7.74275 28.278C8.16354 29.1058 8.83084 29.616 9.7607 29.7226C10.4166 29.7983 11.0747 29.7398 11.7236 29.616C12.3657 29.4945 12.9436 29.2193 13.4871 28.8661C14.2621 28.3617 14.9856 27.7918 15.6655 27.1658C16.0118 26.8482 16.3706 26.5455 16.7834 26.315C17.2845 26.0353 17.8153 25.9241 18.384 26.041C18.6706 26.0995 18.8908 26.244 18.955 26.5524C18.9894 26.7186 18.9699 26.8837 18.9344 27.0477C18.861 27.3905 18.7257 27.7127 18.5904 28.0326C18.3347 28.638 18.1249 29.2548 18.0836 29.9175C18.0343 30.6926 18.2338 31.3863 18.7647 31.9687C19.26 32.5122 19.8894 32.8092 20.5992 32.9513C21.247 33.0809 21.8959 33.0671 22.5437 32.9536C23.5825 32.7702 24.5273 32.3712 25.3574 31.7165C26.0304 31.1845 26.5315 30.5275 26.7825 29.6974C26.9821 29.0404 27.0359 28.3651 27.0268 27.6829C27.0153 26.8402 26.8984 26.0078 26.7975 25.1742C26.7493 24.7787 26.7034 24.3831 26.7218 23.9829C26.7355 23.6871 26.8502 23.4693 27.1345 23.3466C27.4372 23.2159 27.7411 23.1012 28.0805 23.1402C28.3465 23.1712 28.5849 23.2709 28.8085 23.4131C29.0206 23.5484 29.2167 23.7055 29.415 23.8591C29.8095 24.1641 30.2257 24.4301 30.698 24.6009C31.402 24.8566 32.1301 24.9312 32.8731 24.8945C33.5014 24.8635 34.0919 24.695 34.6342 24.3716C35.1341 24.0735 35.5262 23.6803 35.6959 23.1047C35.8404 22.6151 35.8381 22.1267 35.689 21.6382C35.5491 21.1808 35.2763 20.8265 34.8715 20.5708C34.6342 20.4206 34.3774 20.3174 34.1091 20.2429C33.5782 20.0961 33.0313 20.0502 32.4878 19.9803C32.0338 19.9218 31.5809 19.853 31.1452 19.7028C30.815 19.5893 30.5031 19.4414 30.2417 19.2052C29.9482 18.9392 29.7854 18.6159 29.8221 18.2123C29.853 17.8787 30.009 17.6001 30.2371 17.3604C30.6602 16.9178 31.1888 16.7275 31.7919 16.7034C32.466 16.6771 33.1402 16.6805 33.8133 16.6392C34.4003 16.6037 34.9816 16.5349 35.5491 16.3778C36.448 16.129 37.2071 15.6704 37.7861 14.9263C38.169 14.4344 38.3192 13.8863 38.2275 13.2695C38.1484 12.7421 37.9271 12.2754 37.6175 11.8489C36.9835 10.9764 36.1385 10.3779 35.1398 9.98919C34.1366 9.59822 33.1035 9.53974 32.0487 9.71402C30.6166 9.95021 29.2924 10.4593 28.0896 11.2779C27.6723 11.5611 27.2675 11.8627 26.8399 12.131C26.2368 12.5082 25.5832 12.702 24.8701 12.6905C24.7107 12.6882 24.5536 12.6721 24.4057 12.6068C24.2051 12.5185 24.1248 12.3523 24.1764 12.1401C24.2028 12.0301 24.2521 11.9303 24.3129 11.8363C24.4871 11.5634 24.7187 11.3444 24.9675 11.1426C25.2473 10.9145 25.5225 10.6829 25.7736 10.4237C26.0063 10.1841 26.223 9.93301 26.3675 9.62688C26.5555 9.22673 26.4844 8.81397 26.1749 8.49752C26.0499 8.36911 25.9031 8.26935 25.7449 8.1891C25.3551 7.99074 24.9343 7.90246 24.5032 7.86462C23.7946 7.8027 23.0975 7.87952 22.4142 8.07444C21.3307 8.38401 20.457 8.96532 19.917 9.9869C19.7312 10.34 19.4939 10.6611 19.2497 10.9764C19.0146 11.2802 18.728 11.5256 18.3955 11.7159C18.2223 11.8157 18.04 11.9017 17.8405 11.9234C17.3613 11.975 16.9004 11.8982 16.4601 11.7033C16.1161 11.5508 15.818 11.3226 15.5153 11.1048C14.136 10.1142 12.6019 9.68994 10.9107 9.84358C10.0818 9.91925 9.30437 10.1669 8.59235 10.6015C7.81384 11.0761 7.26693 11.7388 7.01469 12.6217C6.8106 13.336 6.90347 14.0067 7.39305 14.5915C7.80581 15.0856 8.36992 15.2783 8.98448 15.3448C9.40297 15.3895 9.8249 15.3574 10.0497 15.3597L10.0485 15.3562Z" fill="#C084FC"/>
<path d="M4.05968 24.4977C4.66163 24.531 5.26357 24.562 5.85176 24.711C6.0031 24.75 6.14986 24.8004 6.27828 24.8922C6.38491 24.969 6.45485 25.0699 6.47319 25.2017C6.49612 25.3634 6.37917 25.5147 6.21522 25.5147C5.32778 25.5147 4.58022 25.8679 3.91063 26.4182C3.66642 26.6189 3.43137 26.8321 3.18371 27.0294C2.85809 27.2885 2.49807 27.4857 2.08646 27.5694C1.68975 27.6496 1.31253 27.6095 0.984615 27.3504C0.568414 27.0213 0.456051 26.4469 0.702561 25.9344C0.841295 25.6455 1.05685 25.4265 1.3217 25.2522C1.78147 24.9518 2.2871 24.7638 2.81681 24.6319C3.22384 24.531 3.6366 24.4771 4.05739 24.4977H4.05968ZM6.20031 25.2442C6.18999 25.1582 6.13496 25.1215 6.07878 25.0894C5.96412 25.0229 5.838 24.9873 5.71073 24.9575C5.27389 24.8555 4.82788 24.8245 4.38187 24.7878C3.83496 24.742 3.29722 24.7798 2.76866 24.9266C2.28367 25.0607 1.81587 25.2373 1.40081 25.5319C1.18297 25.6867 1.01213 25.8816 0.914675 26.135C0.726639 26.6246 0.946778 27.1234 1.41801 27.2804C1.60834 27.3435 1.8044 27.3481 2.00047 27.3091C2.40176 27.2311 2.74458 27.0351 3.05759 26.7817C3.32933 26.5616 3.58386 26.3219 3.86018 26.1087C4.3383 25.7406 4.85769 25.4563 5.45275 25.3244C5.69582 25.2705 5.94233 25.2465 6.19916 25.2442H6.20031Z" fill="#C084FC"/>
<path d="M1.46522 30.6181C1.47554 30.1491 1.65096 29.7387 1.91582 29.3615C2.25291 28.8822 2.71726 28.5566 3.23322 28.2997C3.9888 27.9237 4.79024 27.7127 5.62838 27.6347C5.8359 27.6152 5.98381 27.8193 5.90584 28.012C5.86342 28.1163 5.78546 28.1931 5.70176 28.2642C5.54239 28.4006 5.38301 28.5382 5.21562 28.6643C4.60909 29.1207 4.16995 29.7008 3.90281 30.4117C3.85924 30.5287 3.80306 30.641 3.75146 30.7557C3.54164 31.2177 3.17703 31.4734 2.68172 31.5594C2.50515 31.5904 2.32973 31.6053 2.15316 31.5663C1.74957 31.478 1.48815 31.1604 1.46293 30.7316C1.46064 30.6938 1.46293 30.6548 1.46293 30.6169L1.46522 30.6181ZM5.65475 27.9076C5.47588 27.9225 5.31078 27.9432 5.14682 27.9718C4.40844 28.1014 3.7033 28.3261 3.05435 28.7091C2.56477 28.998 2.16233 29.3718 1.91811 29.8957C1.79199 30.1663 1.71402 30.4472 1.74269 30.7499C1.77135 31.0538 1.95366 31.259 2.25061 31.3072C2.36642 31.3267 2.48451 31.3163 2.60146 31.298C3.01881 31.2338 3.33526 31.0331 3.50839 30.6364C3.5703 30.4943 3.6368 30.3532 3.69413 30.2099C3.96587 29.5277 4.39353 28.9636 4.97369 28.5119C5.15714 28.3697 5.33371 28.2195 5.51143 28.0716C5.56302 28.028 5.61462 27.9833 5.65475 27.9076Z" fill="#C084FC"/>
<path d="M36.5933 19.1078C37.2846 19.1227 37.9668 19.2006 38.6123 19.4598C39.1707 19.6845 39.611 20.0594 39.877 20.6121C40.0123 20.8918 40.0398 21.1888 39.9423 21.4869C39.7979 21.9283 39.3427 22.215 38.8646 22.1657C38.297 22.1072 37.8625 21.8377 37.5827 21.3344C37.5392 21.2553 37.4933 21.1773 37.4578 21.0959C37.2445 20.6098 36.8627 20.322 36.3708 20.1615C36.0532 20.0571 35.7276 19.9952 35.3917 19.9929C35.2609 19.9929 35.1543 19.9505 35.1004 19.8244C35.0477 19.6983 35.089 19.5916 35.1795 19.4965C35.355 19.3119 35.582 19.2305 35.8216 19.1777C36.0762 19.1215 36.3341 19.1055 36.5944 19.1078H36.5933ZM35.3515 19.7155C35.676 19.7223 35.9787 19.767 36.2768 19.8473C36.9315 20.0239 37.4451 20.3724 37.7226 21.0157C37.7742 21.1349 37.8384 21.2507 37.9175 21.3562C38.1835 21.7139 38.5424 21.8939 38.985 21.8939C39.3542 21.8939 39.6546 21.6405 39.7107 21.2862C39.7543 21.0134 39.6786 20.7611 39.5239 20.5341C39.2624 20.1523 38.9196 19.8657 38.4862 19.7028C37.8556 19.4667 37.1975 19.383 36.5279 19.3818C36.2516 19.3818 35.9775 19.4024 35.7115 19.4884C35.5785 19.532 35.4524 19.5893 35.3504 19.7143L35.3515 19.7155Z" fill="#C084FC"/>
<path d="M13.4385 30.9139C13.4362 30.6708 13.4993 30.4415 13.6128 30.2305C14.1196 29.2881 14.8522 28.6231 15.9185 28.3743C16.0274 28.349 16.1375 28.3307 16.2487 28.3192C16.4838 28.2929 16.6259 28.4717 16.5571 28.6976C16.5227 28.8111 16.4666 28.9143 16.3874 29.0026C16.1455 29.2697 16.04 29.5965 15.9804 29.9416C15.9334 30.2156 15.9346 30.4965 15.8818 30.7694C15.7832 31.2808 15.5413 31.6936 15.054 31.9263C14.5702 32.1579 14.0198 32.0547 13.6999 31.6786C13.513 31.4585 13.4408 31.1982 13.4385 30.9139ZM16.2957 28.5933C16.1937 28.5933 16.0974 28.6139 16.0033 28.6357C15.0047 28.8604 14.3248 29.483 13.8524 30.3624C13.7653 30.5241 13.7183 30.7006 13.7125 30.8864C13.6919 31.5135 14.2021 31.9148 14.7983 31.7325C15.1927 31.6121 15.4278 31.3289 15.555 30.9471C15.6479 30.6697 15.6514 30.3785 15.6846 30.093C15.7396 29.6229 15.8623 29.1791 16.1879 28.8157C16.2418 28.7549 16.2854 28.685 16.2969 28.5933H16.2957Z" fill="#C084FC"/>
<path d="M27.6367 29.0714C27.6367 28.8111 27.7262 28.5818 27.9016 28.3949C28.2972 27.9718 28.7844 27.7746 29.3612 27.8916C29.9505 28.0108 30.2371 28.6254 29.9769 29.17C29.7338 29.6779 29.125 30.0379 28.5632 30.0024C28.4072 29.9921 28.257 29.9531 28.116 29.8843C27.8076 29.7329 27.6356 29.4417 27.6379 29.0725L27.6367 29.0714ZM29.0562 28.13C28.9243 28.1278 28.7672 28.1599 28.617 28.2218C28.3338 28.3364 28.0931 28.505 27.9669 28.7962C27.7904 29.2032 27.9876 29.5954 28.4152 29.7031C29.0126 29.8533 29.6272 29.3798 29.7613 28.9728C29.8014 28.8535 29.8141 28.7343 29.7797 28.6116C29.6937 28.302 29.4494 28.1312 29.055 28.13H29.0562Z" fill="#C084FC"/>
<path d="M5.6553 27.9076C5.61402 27.9833 5.56357 28.028 5.51198 28.0716C5.33426 28.2195 5.15654 28.3697 4.97424 28.5119C4.39523 28.9625 3.96642 29.5266 3.69468 30.2099C3.63735 30.3544 3.572 30.4943 3.50894 30.6364C3.33581 31.0331 3.01821 31.2338 2.60201 31.298C2.48506 31.3163 2.36811 31.3255 2.25116 31.3072C1.95535 31.259 1.7719 31.0538 1.74324 30.7499C1.71457 30.4472 1.79254 30.1663 1.91866 29.8957C2.16288 29.3718 2.56532 28.998 3.0549 28.7091C3.70385 28.3261 4.40899 28.1014 5.14737 27.9718C5.31133 27.9432 5.47529 27.9225 5.6553 27.9076Z" fill="#C084FC"/>
<path d="M16.2958 28.5933C16.2844 28.685 16.2408 28.7549 16.1869 28.8157C15.8613 29.1791 15.7374 29.6229 15.6836 30.093C15.6503 30.3796 15.6469 30.6708 15.554 30.9471C15.4256 31.3289 15.1917 31.611 14.7973 31.7325C14.2011 31.9148 13.692 31.5135 13.7115 30.8864C13.7172 30.7006 13.7654 30.5241 13.8514 30.3624C14.3237 29.483 15.0036 28.8604 16.0023 28.6357C16.0975 28.6139 16.1926 28.5933 16.2947 28.5933H16.2958Z" fill="#C084FC"/>
<path d="M29.056 28.13C29.4504 28.1312 29.6946 28.302 29.7806 28.6116C29.815 28.7343 29.8012 28.8535 29.7623 28.9728C29.627 29.3798 29.0135 29.8533 28.4162 29.7031C27.9885 29.5965 27.7913 29.2032 27.9679 28.7962C28.094 28.505 28.3348 28.3364 28.618 28.2218C28.7682 28.161 28.9253 28.1278 29.0571 28.13H29.056Z" fill="#C084FC"/>
<path fill-rule="evenodd" clip-rule="evenodd" d="M9.82158 15.3599C9.90957 15.3576 9.98677 15.3556 10.0488 15.3562L10.0476 15.3528C10.1661 15.3528 10.2791 15.3524 10.3878 15.3519C10.9365 15.3498 11.3718 15.3481 11.8053 15.4055C11.983 15.4285 12.1608 15.4606 12.3259 15.5374C12.4462 15.5924 12.507 15.6864 12.5082 15.8217C12.5116 16.1485 12.3373 16.3996 12.0048 16.5338C11.7606 16.6324 11.5038 16.661 11.2435 16.6656C10.6553 16.6748 10.0797 16.5808 9.51111 16.4432L9.31609 16.3958C8.53399 16.2057 7.75209 16.0156 6.94969 15.9203C6.29386 15.8424 5.63803 15.8252 4.9822 15.9158C3.87348 16.0694 2.88056 16.4971 2.00688 17.1953C1.37971 17.6975 0.871783 18.2972 0.573678 19.0527C0.197607 20.0055 0.265253 20.9193 0.877516 21.7598C1.30289 22.3445 1.85783 22.7745 2.53544 23.0347C3.30134 23.3283 4.10508 23.4211 4.91685 23.4613C5.51191 23.4911 6.10697 23.4739 6.70089 23.4314C7.38997 23.3821 8.07561 23.303 8.75094 23.1563C9.30473 23.037 9.85851 22.9625 10.4237 23.037C10.7012 23.0737 10.9706 23.1391 11.2034 23.3065C11.5909 23.5862 11.6356 24.0953 11.3043 24.4393C11.2137 24.5321 11.1117 24.609 11.0004 24.6743C10.7058 24.8497 10.3824 24.9438 10.0522 25.0194L9.97147 25.0379C9.55694 25.1323 9.14253 25.2268 8.74635 25.3829C8.12033 25.6294 7.68808 26.0571 7.53215 26.7255C7.40602 27.2655 7.49431 27.7861 7.74197 28.2745C8.16275 29.1023 8.83005 29.6125 9.75991 29.7192C10.4157 29.7937 11.0738 29.7352 11.7228 29.6125C12.3648 29.491 12.9427 29.217 13.4862 28.8627C14.2613 28.3582 14.9836 27.7884 15.6646 27.1624C16.0109 26.8448 16.3698 26.5421 16.7825 26.3116C17.2836 26.0318 17.8156 25.9206 18.3831 26.0376C18.6698 26.0961 18.8899 26.2394 18.9541 26.5489C18.9885 26.7152 18.969 26.8803 18.9335 27.0443C18.8612 27.3871 18.726 27.7081 18.5895 28.0292C18.3338 28.6345 18.124 29.2514 18.0827 29.9141C18.0334 30.6892 18.2329 31.3828 18.7638 31.9653C19.2591 32.5076 19.8874 32.8057 20.5983 32.9479C21.2449 33.0774 21.895 33.0648 22.5428 32.9502C23.5805 32.7679 24.5264 32.3677 25.3565 31.713C26.0295 31.1822 26.5294 30.5252 26.7817 29.694C26.9812 29.0358 27.0351 28.3617 27.0259 27.6795C27.0159 26.9481 26.9263 26.2228 26.8368 25.4984C26.8233 25.3892 26.8098 25.2799 26.7966 25.1708C26.7496 24.7752 26.7026 24.3797 26.7209 23.9795C26.7347 23.6837 26.8505 23.4658 27.1337 23.3432C27.4364 23.2125 27.7402 23.0978 28.0796 23.1368C28.3456 23.1677 28.5841 23.2675 28.8076 23.4097C28.9917 23.5271 29.1637 23.6609 29.3356 23.7946L29.4142 23.8557C29.8086 24.1607 30.2248 24.4267 30.6972 24.5975C31.4012 24.8532 32.1304 24.9277 32.8722 24.891C33.5005 24.8601 34.0911 24.6915 34.6334 24.3682C35.1333 24.0689 35.5253 23.6768 35.695 23.1012C35.8395 22.6128 35.8372 22.1232 35.6881 21.6348C35.5483 21.1773 35.2743 20.823 34.8707 20.5673C34.6346 20.4183 34.3776 20.314 34.1082 20.2394C33.6794 20.1209 33.2402 20.0682 32.8008 20.0154C32.6962 20.0029 32.5914 19.9903 32.4869 19.9769C32.0329 19.9184 31.58 19.8496 31.1443 19.6994C30.8141 19.5859 30.5023 19.4391 30.2408 19.2018C29.9473 18.9369 29.7834 18.6125 29.8212 18.2089C29.8533 17.8741 30.0081 17.5955 30.2363 17.357C30.6593 16.9144 31.1867 16.7229 31.791 16.7C32.0603 16.6895 32.3301 16.6837 32.5998 16.6779C33.0042 16.6692 33.4088 16.6606 33.8125 16.6358C34.3984 16.6003 34.9797 16.5315 35.5484 16.3744C36.4473 16.1256 37.2063 15.667 37.7853 14.9228C38.1682 14.431 38.3196 13.8818 38.2267 13.2661C38.1476 12.7386 37.9262 12.272 37.6166 11.8455C36.9826 10.9718 36.1377 10.3744 35.139 9.98575C34.1358 9.59478 33.1026 9.5363 32.0478 9.71058C30.6158 9.94792 29.2915 10.457 28.0888 11.2745C27.9451 11.3722 27.8026 11.4722 27.6601 11.5722C27.3897 11.7619 27.119 11.9518 26.839 12.1275C26.2359 12.5047 25.5824 12.6997 24.8692 12.687C24.7098 12.6848 24.5528 12.6687 24.4049 12.6033C24.2042 12.5162 24.124 12.35 24.1755 12.1367C24.2019 12.0278 24.2512 11.928 24.312 11.8329C24.4863 11.5611 24.7179 11.3421 24.9667 11.1392C25.2453 10.911 25.5216 10.6794 25.7727 10.4203C26.0055 10.1807 26.2233 9.92957 26.3666 9.62344C26.5547 9.22215 26.4836 8.81053 26.174 8.49408C26.049 8.36567 25.9034 8.26706 25.744 8.18566C25.3542 7.9873 24.9334 7.89902 24.5023 7.86118C23.7937 7.79927 23.0966 7.87494 22.4133 8.071C21.3298 8.38057 20.4561 8.96073 19.9161 9.98346C19.7303 10.3366 19.493 10.6576 19.2488 10.9729C19.0137 11.2768 18.7271 11.521 18.3946 11.7125C18.2215 11.8122 18.0403 11.8982 17.8397 11.92C17.3615 11.9716 16.8995 11.8948 16.4592 11.6999C16.1535 11.5643 15.8841 11.3691 15.6154 11.1744L15.5144 11.1014C14.1351 10.1107 12.601 9.6865 10.9099 9.84014C10.0809 9.91467 9.30473 10.1635 8.59157 10.598C7.81305 11.0727 7.26614 11.7354 7.0139 12.6183C6.80981 13.3326 6.90269 14.0033 7.39227 14.588C7.80503 15.0822 8.36913 15.2748 8.98369 15.3413C9.28653 15.3737 9.59117 15.3658 9.82158 15.3599ZM10.2219 21.7518L10.2231 21.7494C10.222 21.7426 10.2197 21.7345 10.2174 21.7277H10.1463C9.88265 21.7265 9.61894 21.738 9.35523 21.7586C9.24437 21.7669 9.13324 21.7717 9.0221 21.7765C8.90233 21.7817 8.78219 21.7869 8.66271 21.7965C8.266 21.8286 7.86929 21.8503 7.47258 21.8584C7.11829 21.8652 6.76401 21.8652 6.40972 21.8423C6.27674 21.8331 6.1437 21.824 6.01187 21.8068C5.73211 21.7701 5.45234 21.7265 5.17717 21.6635C4.72887 21.5603 4.29661 21.4158 3.89761 21.1819C3.57353 20.9924 3.26771 20.7758 2.96185 20.5591C2.81431 20.4546 2.66676 20.3501 2.51715 20.2486C2.29816 20.1007 2.07802 19.9528 1.82119 19.8748C1.56063 19.7952 1.35915 19.8732 1.24436 20.094C1.238 20.1061 1.2319 20.1187 1.22607 20.1317C1.14237 20.3185 1.12288 20.5135 1.15728 20.7141C1.23639 21.1796 1.50583 21.5305 1.84865 21.8297C1.97401 21.9391 2.11246 22.0326 2.25118 22.1262C2.29136 22.1534 2.33157 22.1805 2.37148 22.2081C2.41958 22.2412 2.46624 22.2766 2.51286 22.3119C2.6163 22.3902 2.71959 22.4685 2.83813 22.5222C3.0491 22.6185 3.26465 22.7011 3.48594 22.7687C3.99043 22.9247 4.50867 22.9992 5.03379 23.0221C5.30782 23.0336 5.58414 23.0324 5.85932 23.013C6.16889 22.9923 6.47617 22.9591 6.7823 22.9132C7.34526 22.8284 7.89675 22.6919 8.43793 22.5176C8.87706 22.3766 9.30473 22.2069 9.72093 22.0097C9.83162 21.957 9.94084 21.8998 10.0498 21.8428C10.1068 21.813 10.1637 21.7831 10.2208 21.754L10.2219 21.7518ZM26.5089 26.6524L26.478 26.6942C26.4637 26.7133 26.4528 26.728 26.4423 26.7427C26.2674 26.9901 26.11 27.249 25.9525 27.508C25.8934 27.6053 25.834 27.7031 25.7738 27.7998C25.4081 28.388 24.9965 28.9361 24.4759 29.3993C24.1308 29.7066 23.7456 29.937 23.3087 30.0861C23.259 30.1031 23.2091 30.1196 23.1591 30.1358C23.1023 30.1541 23.0454 30.1721 22.9885 30.1901C22.9073 30.2157 22.8261 30.2414 22.7452 30.268C22.5965 30.3168 22.4489 30.3687 22.3044 30.43C21.8996 30.602 21.5901 30.8646 21.4616 31.3049C21.3619 31.6488 21.4467 31.9275 21.7322 32.1419C21.9191 32.2817 22.1393 32.3391 22.3663 32.3574C22.4384 32.3631 22.5103 32.3658 22.5819 32.3656C22.856 32.3647 23.1265 32.3205 23.3913 32.2359C23.8591 32.0868 24.281 31.8518 24.6628 31.5456C24.9782 31.2923 25.2705 31.0125 25.4964 30.6743C25.8644 30.1228 26.0938 29.5082 26.268 28.8719C26.3953 28.4052 26.4859 27.9305 26.518 27.4455C26.5351 27.188 26.5363 26.9327 26.5101 26.6524L26.5111 26.651H26.51L26.5101 26.6524L26.509 26.6538C26.509 26.6533 26.509 26.6528 26.5089 26.6524ZM20.7617 16.7524C20.762 16.709 20.7622 16.6649 20.7622 16.6197L20.7611 16.6186L21.6955 16.3239C21.6809 16.7955 21.6666 17.2648 21.6522 17.7342C21.6385 18.1846 21.6247 18.6352 21.6107 19.0883C21.7792 19.0516 21.9157 18.9782 22.0315 18.8659C22.1966 18.7065 22.2895 18.5035 22.3674 18.2926C22.4151 18.1622 22.457 18.0296 22.4989 17.897C22.5587 17.7079 22.6185 17.5185 22.6953 17.3352C22.8765 16.9041 23.1494 16.5544 23.5828 16.3514C23.9416 16.1829 24.312 16.1588 24.6903 16.2746C25.0825 16.395 25.2877 16.6725 25.3324 17.068C25.3978 17.6436 25.196 18.147 24.8772 18.609C24.5906 19.0264 24.2168 19.3394 23.7249 19.493C23.522 19.5561 23.3145 19.5802 23.092 19.5618V18.9782C23.1285 18.9777 23.1652 18.9774 23.2021 18.9771C23.3308 18.9762 23.4622 18.9751 23.5931 18.9645C23.6779 18.9576 23.7616 18.9473 23.843 18.9255C24.1698 18.8406 24.3372 18.6102 24.398 18.2949C24.4679 17.9268 24.4106 17.5725 24.2592 17.2332C24.2122 17.1277 24.1457 17.0337 24.0586 16.9568C23.8843 16.8043 23.6883 16.8112 23.5289 16.9798C23.4108 17.1047 23.3409 17.2584 23.2847 17.4189C23.2196 17.604 23.1824 17.7962 23.1452 17.9883C23.128 18.0769 23.1108 18.1656 23.0909 18.2536C23.0542 18.4187 23.0129 18.5827 22.9568 18.742C22.7859 19.2213 22.4591 19.5389 21.9684 19.6833L21.8193 19.7272C21.72 19.7565 21.6206 19.7858 21.5213 19.8141C21.2186 19.9 20.987 20.0881 20.7898 20.3266C20.7563 20.3675 20.7214 20.4074 20.6865 20.4474C20.6569 20.4814 20.6272 20.5154 20.5983 20.5501C20.2944 20.9159 19.9012 21.0248 19.4448 20.9514C19.435 20.9497 19.4249 20.9488 19.4145 20.9478C19.3837 20.945 19.3504 20.9419 19.3153 20.917V20.2452C19.4483 20.2658 19.5847 20.2864 19.7235 20.2968C19.8244 20.3036 19.9253 20.2991 20.025 20.283C20.2772 20.2429 20.4412 20.0961 20.5352 19.8622C20.6224 19.6455 20.6556 19.4162 20.6808 19.1857C20.7622 18.4611 20.7749 17.7331 20.7622 17.0038C20.7607 16.9212 20.7612 16.8377 20.7617 16.7524ZM12.6939 19.1697C12.7489 19.1445 12.804 19.1238 12.8762 19.1238L12.8796 19.125C12.8854 19.2465 12.8556 19.3531 12.812 19.4563C12.7679 19.5593 12.7128 19.657 12.6576 19.7548C12.6311 19.8019 12.6046 19.8489 12.5792 19.8966C12.3992 20.2337 12.3064 20.5891 12.3454 20.9744C12.382 21.339 12.6182 21.6279 12.9496 21.7059C13.3199 21.7942 13.7361 21.605 13.9093 21.2667C14.048 20.9962 14.1053 20.7015 14.1466 20.4045C14.2346 19.7682 14.2389 19.1274 14.2431 18.4869C14.2437 18.3934 14.2443 18.3 14.2452 18.2066V17.7824C14.4776 17.7018 14.703 17.6238 14.9292 17.5457L15.2461 17.4361C15.237 17.6688 15.237 17.8924 15.2393 18.116C15.2408 18.254 15.2438 18.3919 15.2468 18.5297C15.2546 18.8913 15.2624 19.2526 15.245 19.6146C15.2335 19.8657 15.2095 20.1145 15.1567 20.361C15.0856 20.6912 14.9228 20.9778 14.7141 21.2358C14.4596 21.5511 14.1672 21.8309 13.8428 22.0739C13.4632 22.3571 13.0333 22.4936 12.5563 22.4706C11.9498 22.442 11.4682 22.0487 11.3536 21.4766C11.2894 21.1601 11.3456 20.8574 11.4808 20.5685C11.6964 20.1087 11.9945 19.7086 12.3809 19.3761C12.4761 19.2935 12.5781 19.2213 12.6939 19.1697ZM13.3586 14.5178C13.2253 14.4455 13.0909 14.4193 12.9553 14.3943C12.7311 14.3522 12.5055 14.3247 12.2801 14.2972C12.2231 14.2903 12.1661 14.2834 12.1092 14.2762C11.7136 14.2257 11.3318 14.118 10.9546 13.993C10.6083 13.8783 10.2643 13.7545 9.94565 13.5722C9.75775 13.4648 9.58071 13.3422 9.40332 13.2194C9.3231 13.1638 9.24281 13.1082 9.16141 13.0539C8.91719 12.8911 8.66151 12.7719 8.35538 12.7857C8.01829 12.8017 7.71789 13.0998 7.70528 13.4358C7.69778 13.6367 7.74816 13.8109 7.8391 13.9654C7.90137 14.0719 7.98285 14.1691 8.07791 14.259C8.32212 14.4906 8.61908 14.6408 8.93553 14.752C9.44231 14.9309 9.96973 15.0019 10.5028 15.0295C10.8904 15.0501 11.2768 15.0306 11.6609 14.9802C12.1413 14.9171 12.6136 14.8093 13.0688 14.6396C13.0916 14.6311 13.1146 14.6231 13.1378 14.615C13.211 14.5894 13.2861 14.5632 13.3597 14.5201L13.3623 14.5215L13.3612 14.5192L13.3597 14.5201C13.3588 14.5196 13.358 14.5192 13.3571 14.5187C13.3576 14.5184 13.3581 14.5181 13.3586 14.5178ZM32.6395 15.7587V15.7575C32.6969 15.6933 32.7599 15.6532 32.8264 15.6188C32.9239 15.5684 33.0236 15.5238 33.1233 15.4792C33.2325 15.4304 33.3417 15.3816 33.4478 15.3253C33.9167 15.0753 34.3789 14.8139 34.8008 14.4871C35.2181 14.1638 35.5907 13.7958 35.9003 13.3647C36.1605 13.0024 36.6697 12.8407 37.0721 12.9852C37.3168 13.0728 37.4773 13.2949 37.4883 13.5432C37.4905 13.5907 37.4873 13.6392 37.4781 13.688C37.3634 14.2957 37.0285 14.7531 36.5126 15.0811C35.9542 15.4353 35.3363 15.628 34.6931 15.7552C34.2677 15.8389 33.8376 15.8814 33.4031 15.8665C33.1497 15.8573 32.8963 15.8321 32.6395 15.7598L32.6395 15.7587ZM14.0042 27.533C13.5942 27.6303 13.1876 27.7185 12.7742 27.7826C12.452 27.8331 12.1275 27.8721 11.803 27.8847C11.5118 27.8962 11.2206 27.8973 10.9282 27.8755C10.6484 27.8549 10.3721 27.8136 10.0969 27.7631L10.0084 27.7467C9.85676 27.7182 9.70462 27.6896 9.55009 27.6772C9.26574 27.6542 9.02497 27.7643 8.82776 27.9592C8.64316 28.1404 8.58469 28.3617 8.68214 28.6105C8.72585 28.7204 8.79234 28.8113 8.87265 28.89C8.92746 28.9439 8.98875 28.9922 9.05365 29.037C9.39992 29.2766 9.79548 29.3534 10.2048 29.3775C10.4902 29.3947 10.7746 29.3603 11.0555 29.3041C11.7159 29.1711 12.3156 28.8948 12.8843 28.5405C13.0926 28.4099 13.2866 28.2596 13.4804 28.1095C13.5555 28.0513 13.6305 27.9932 13.7063 27.9363C13.839 27.8368 13.9785 27.7293 14.0054 27.5342L14.0067 27.5338L14.0056 27.5327L14.0054 27.5342C14.0049 27.5343 14.0045 27.5344 14.004 27.5345C14.0041 27.534 14.0041 27.5335 14.0042 27.533ZM29.7584 22.8206C29.6779 22.7407 29.6063 22.6507 29.5563 22.536L29.5552 22.5348C29.6393 22.5314 29.7138 22.5453 29.7859 22.5588C29.8101 22.5633 29.834 22.5678 29.8579 22.5715C29.9388 22.5843 30.0198 22.5974 30.1007 22.6104C30.4108 22.6602 30.7213 22.7102 31.0331 22.7492C31.298 22.7825 31.564 22.8031 31.83 22.8066C32.3173 22.8123 32.7943 22.7424 33.261 22.5979C33.4593 22.5371 33.6622 22.4913 33.8708 22.5016C34.1515 22.5161 34.3853 22.6269 34.5496 22.8434C34.5676 22.8669 34.5848 22.8917 34.6012 22.9178C34.7308 23.1253 34.7067 23.3443 34.5737 23.5427C34.3329 23.9004 33.9844 24.0999 33.5682 24.1882C33.0763 24.2914 32.5936 24.226 32.1166 24.0976C31.5273 23.9394 30.9827 23.6825 30.4656 23.3615C30.4241 23.3358 30.383 23.3094 30.3424 23.2825C30.1658 23.1657 29.9983 23.0374 29.84 22.8964C29.8329 22.8902 29.8259 22.8839 29.8189 22.8777C29.7983 22.8591 29.7781 22.8402 29.7584 22.8206ZM19.9424 18.6056C19.9253 18.8143 19.9126 19.0241 19.9092 19.2373V19.2385L19.9082 19.239L19.907 19.2395C19.5892 19.3927 19.2708 19.5462 18.9392 19.7051C19 18.2708 19.0596 16.8502 19.1192 15.4296C19.0498 15.3757 18.9719 15.377 18.8945 15.3782C18.8351 15.3792 18.7761 15.3801 18.7214 15.3562C18.8498 15.0535 19.7751 14.58 20.0823 14.6626C20.1362 14.8483 20.1465 15.0421 20.1534 15.2347C20.1706 15.7254 20.1374 16.2162 20.0995 16.7057C20.0641 17.1611 20.0256 17.6171 19.9872 18.0728C19.9722 18.2505 19.9572 18.4281 19.9424 18.6056ZM26.7438 16.1806C26.714 16.7172 26.6808 17.2538 26.6097 17.7927V17.7938L25.6626 18.2524C25.7303 16.8227 25.7979 15.4067 25.8656 13.9941C25.8043 13.9271 25.7218 13.9116 25.6387 13.896C25.5555 13.8803 25.4718 13.8646 25.4081 13.7969C25.6798 13.7029 25.9069 13.5455 26.1336 13.3884C26.1863 13.352 26.2389 13.3155 26.2921 13.2798C26.3712 13.2271 26.4515 13.1743 26.5432 13.1445C26.6659 13.1055 26.7438 13.1376 26.7954 13.2557C26.8619 13.4089 26.8664 13.5731 26.8709 13.7364L26.8711 13.7453C26.8785 14.0056 26.8598 14.264 26.841 14.5229C26.8337 14.6232 26.8264 14.7236 26.8207 14.8242C26.7956 15.2533 26.7716 15.6834 26.7476 16.1125L26.7438 16.1806ZM15.7946 19.5051C15.8696 18.3704 15.9442 17.2437 15.9261 16.1198L15.9249 16.121C15.8585 16.0921 15.7932 16.0888 15.7295 16.0855C15.6516 16.0814 15.5761 16.0775 15.5041 16.027L15.5507 15.9892C15.9446 15.6695 16.3289 15.3575 16.8639 15.3322C16.9281 15.495 16.9362 15.6509 16.9419 15.8057C16.9614 16.2999 16.9385 16.7929 16.9029 17.2859C16.8639 17.8248 16.8238 18.3625 16.7814 18.9014C16.7756 18.9768 16.7697 19.0521 16.7637 19.1275C16.7423 19.3974 16.7208 19.668 16.7092 19.9413C16.3858 20.0938 16.0648 20.2463 15.7369 20.4022C15.755 20.1026 15.7748 19.8036 15.7946 19.5051ZM18.2127 17.1308C18.2968 17.1055 18.3815 17.08 18.4657 17.0497L18.4668 17.0486C18.4622 17.1437 18.4588 17.2251 18.4554 17.3065C18.4388 17.6801 18.4391 18.0543 18.4393 18.4283C18.4395 18.5971 18.4396 18.7659 18.4382 18.9346C18.4336 19.3405 18.4175 19.7476 18.3189 20.1443C18.1446 20.8471 17.6918 21.292 17.021 21.5305C16.7802 21.6164 16.5337 21.6875 16.2792 21.7219C16.2093 21.7311 16.1393 21.7334 16.0763 21.7311V20.9973C16.1125 20.9912 16.148 20.9853 16.183 20.9796C16.292 20.9616 16.3958 20.9445 16.4982 20.9228C17.0118 20.8161 17.279 20.5375 17.3742 20.017C17.4228 19.7519 17.4332 19.4839 17.4437 19.2159C17.4463 19.1489 17.4489 19.0819 17.4521 19.0149C17.4629 18.7836 17.4691 18.5519 17.4754 18.3203C17.4792 18.1812 17.4829 18.0416 17.4877 17.9027C17.4911 17.7858 17.5026 17.6688 17.5358 17.5553C17.5645 17.4613 17.6161 17.3811 17.7021 17.3306C17.8615 17.2365 18.0356 17.1841 18.2127 17.1308ZM27.3183 19.266C27.1555 19.2591 26.9926 19.2488 26.8207 19.2156H26.8195C26.8247 19.1098 26.8297 19.0054 26.8346 18.9015C26.8406 18.7768 26.8465 18.6527 26.8528 18.5276C26.9479 18.5265 27.0305 18.5528 27.113 18.5792C27.1416 18.5884 27.17 18.5985 27.1984 18.6086C27.283 18.6387 27.368 18.6689 27.4581 18.6767C27.7631 18.703 27.8365 18.6492 27.9374 18.4187C28.0452 18.1722 28.0876 17.9073 28.1163 17.6413C28.161 17.2286 28.1828 16.8147 28.1518 16.3996C28.1415 16.2632 28.1243 16.1279 28.0761 15.9995C28.0039 15.8091 27.8915 15.7507 27.6978 15.808C27.6144 15.8334 27.5323 15.8636 27.4501 15.8938L27.3744 15.9215C27.2953 15.9502 27.2151 15.9502 27.1337 15.9261C27.1073 15.871 27.1199 15.8194 27.1474 15.7701C27.1772 15.7174 27.2185 15.6727 27.269 15.6394C27.5602 15.4422 27.8663 15.2794 28.2183 15.2221C28.3628 15.1992 28.5072 15.2118 28.6471 15.2553C28.7996 15.3035 28.8982 15.4136 28.9727 15.5489C29.0736 15.73 29.1252 15.9284 29.147 16.1325C29.2261 16.8617 29.1482 17.5783 28.8971 18.2662C28.638 18.9748 28.1025 19.3004 27.3183 19.266ZM18.4462 23.6413C18.4978 23.9313 18.5047 24.2042 18.4588 24.3842L18.4577 24.3877C18.2868 24.4691 18.1733 24.4278 18.108 24.2593C18.0465 24.1005 18.0317 23.9325 18.017 23.7652L18.0116 23.7055C18.0047 23.6271 17.9981 23.5487 17.9916 23.4701C17.9692 23.2 17.9465 22.927 17.9039 22.6438C17.8837 22.7537 17.8777 22.855 17.8719 22.9532C17.8698 22.9891 17.8677 23.0246 17.8649 23.06C17.8593 23.1298 17.8542 23.1997 17.8491 23.2695C17.8237 23.6186 17.7982 23.9677 17.717 24.3097C17.6918 24.4129 17.6619 24.5149 17.5989 24.6032C17.5324 24.6973 17.4716 24.7053 17.3799 24.6342C17.2813 24.5585 17.2228 24.4542 17.1747 24.343C17.0785 24.1204 17.0288 23.8863 16.9791 23.6519C16.9684 23.6014 16.9577 23.5507 16.9465 23.5002C16.9155 23.3592 16.8823 23.2182 16.8479 23.0783C16.8399 23.0428 16.825 23.0095 16.8066 22.9763C16.8018 23.1471 16.8169 23.3155 16.832 23.4842C16.8351 23.5182 16.8381 23.5522 16.841 23.5862L16.8465 23.6508C16.8713 23.9388 16.8961 24.227 16.8811 24.5172C16.8754 24.6342 16.8582 24.75 16.8066 24.8543C16.6759 24.8956 16.5807 24.8543 16.5211 24.7305C16.4569 24.5998 16.4466 24.4565 16.442 24.3154C16.4374 24.1767 16.4374 24.0368 16.4454 23.8981C16.4572 23.7096 16.4486 23.521 16.44 23.3329C16.4369 23.2649 16.4338 23.1966 16.4317 23.1288C16.4304 23.0871 16.4289 23.0455 16.4274 23.0039C16.4169 22.7096 16.4064 22.4158 16.4707 22.1255C16.481 22.0774 16.4959 22.0304 16.5211 21.9891C16.716 21.934 16.8651 21.9925 16.966 22.1668C17.0595 22.3292 17.0959 22.5091 17.1322 22.6883L17.1448 22.7504C17.1538 22.7935 17.1625 22.8367 17.1711 22.8799C17.2152 23.1008 17.2594 23.3221 17.3524 23.5301C17.3672 23.5631 17.3812 23.5944 17.4143 23.6206C17.4295 23.4558 17.4395 23.2903 17.4496 23.125C17.48 22.6277 17.5102 22.1318 17.678 21.6612C17.9004 21.6279 18.038 21.7013 18.1263 21.8836C18.1951 22.0258 18.2249 22.1794 18.2375 22.3342C18.264 22.6744 18.3273 23.0085 18.3906 23.3428C18.4095 23.4422 18.4283 23.5417 18.4462 23.6413ZM26.1729 20.7996C26.1797 20.8183 26.1869 20.8382 26.2141 20.8551V20.8528C26.2508 20.6717 26.2394 20.4974 26.2279 20.3243C26.2212 20.2247 26.2116 20.1254 26.202 20.0261C26.1838 19.8373 26.1656 19.6487 26.1671 19.4586L26.1672 19.4425C26.1681 19.3037 26.1681 19.3 26.2875 19.1972C26.4698 19.2098 26.5478 19.2775 26.5615 19.4563C26.5834 19.7341 26.6168 20.0105 26.6502 20.2869C26.692 20.6334 26.7339 20.9798 26.753 21.3287C26.7633 21.5178 26.7691 21.7059 26.7289 21.8916C26.7071 21.9879 26.6544 22.0556 26.5569 22.0785C26.4618 22.1003 26.4033 22.0407 26.3517 21.9742C26.2588 21.8538 26.2027 21.7151 26.1534 21.5729C26.0688 21.3284 25.9626 21.0932 25.8565 20.8579C25.7913 20.7136 25.7262 20.5693 25.6661 20.4229C25.6648 20.4189 25.6619 20.4158 25.6583 20.4116C25.6555 20.4085 25.6523 20.4048 25.6489 20.3999C25.5858 20.5914 25.6019 20.7818 25.6225 20.9721C25.6359 21.0964 25.6563 21.2197 25.6767 21.3429C25.6999 21.4834 25.7232 21.6238 25.736 21.7655C25.7475 21.8905 25.7498 22.0154 25.7131 22.1381C25.6833 22.2379 25.6236 22.3113 25.5239 22.3502C25.4731 22.305 25.4542 22.2448 25.4355 22.1851L25.4333 22.1783C25.3416 21.8824 25.3061 21.5763 25.2739 21.2702C25.2246 20.8001 25.1937 20.3289 25.204 19.8565C25.2063 19.7739 25.2132 19.6925 25.2212 19.6111C25.2304 19.5194 25.2808 19.4529 25.3657 19.4196C25.446 19.388 25.504 19.4389 25.5595 19.4876L25.5617 19.4896C25.6133 19.5354 25.6512 19.5905 25.6787 19.6547C25.8404 20.033 26.0043 20.4103 26.1683 20.7875L26.1699 20.7916L26.1729 20.7996ZM19.7865 23.8236C19.5882 24.1091 19.3485 24.2214 18.9954 24.1802C18.7955 23.6315 18.7533 23.0588 18.7108 22.4824C18.6999 22.335 18.689 22.1871 18.6755 22.0395C18.6336 21.997 18.5786 21.9968 18.5231 21.9965C18.4708 21.9963 18.4179 21.996 18.3751 21.9604C18.3086 21.7517 18.3946 21.519 18.5872 21.3894C18.7156 21.3034 18.8601 21.2679 19.0092 21.2461C19.4563 21.183 19.767 21.3482 19.9585 21.7563C20.111 22.082 20.1511 22.4294 20.1351 22.7848C20.1167 23.1632 20.0044 23.5106 19.7865 23.8236ZM13.1069 23.6177L13.1055 23.6115H13.1067C13.048 23.5792 12.9925 23.5922 12.9388 23.6049C12.92 23.6093 12.9015 23.6137 12.8831 23.616C12.7421 23.483 12.7317 23.2583 12.8613 23.1196C13.0092 22.9625 13.2053 22.904 13.4071 22.8628C13.4818 22.8466 13.5593 22.8438 13.6363 22.841L13.6673 22.8398C13.931 22.8307 14.1294 22.9465 14.2762 23.1586C14.4332 23.3856 14.5043 23.6447 14.549 23.913C14.6453 24.4989 14.5238 25.0286 14.1489 25.4953C14.0629 25.6019 13.9677 25.7005 13.845 25.7658C13.6318 25.8794 13.422 25.7991 13.3497 25.5686C13.2706 25.3152 13.2408 25.0515 13.2144 24.789C13.186 24.5122 13.1625 24.2349 13.1389 23.9574C13.1302 23.8544 13.1214 23.7512 13.1124 23.6481C13.1115 23.637 13.1091 23.6267 13.1069 23.6177ZM23.5954 22.7217C23.6974 22.8375 23.7055 22.9499 23.6229 23.0944V23.0955C23.4899 23.1161 23.3787 23.0703 23.2755 22.9992C23.1813 22.9339 23.0973 22.8574 23.013 22.7806C22.9803 22.7509 22.9477 22.7211 22.9143 22.6919C22.8031 22.5956 22.6919 22.4993 22.5795 22.4041C22.5532 22.3823 22.5222 22.364 22.4786 22.3583C22.4863 22.422 22.4943 22.4852 22.5023 22.5482C22.5157 22.6539 22.5291 22.759 22.5406 22.8639C22.5589 23.0382 22.5188 23.1723 22.4133 23.295C22.3227 23.2881 22.2631 23.2354 22.2207 23.1574C22.1622 23.0496 22.1438 22.9304 22.1404 22.81C22.1327 22.4727 22.0912 22.1387 22.0495 21.8035C22.0225 21.5873 21.9956 21.3706 21.9776 21.1521L21.8864 21.1289C21.8273 21.1138 21.7689 21.0989 21.7104 21.0844C21.6348 20.8093 21.7471 20.5559 21.9994 20.4366C22.2149 20.3346 22.4408 20.275 22.6804 20.3117C23.0336 20.3656 23.2847 20.6637 23.303 21.0397C23.3202 21.4066 23.1849 21.7093 22.9132 21.9535C22.8937 21.9719 22.8742 21.9903 22.8513 22.0097C22.9132 22.1519 23.0152 22.2562 23.131 22.348C23.1896 22.3946 23.2499 22.4391 23.3102 22.4836C23.3597 22.5202 23.4092 22.5567 23.4578 22.5945C23.5071 22.6334 23.5541 22.6747 23.5954 22.7217ZM15.9146 24.639C15.8788 24.5335 15.8426 24.427 15.7713 24.3292L15.7736 24.3326C15.6763 24.3762 15.5811 24.4193 15.4863 24.4624C15.4113 24.4964 15.3364 24.5303 15.2611 24.5643C15.2347 24.7202 15.2278 24.875 15.2255 25.0298C15.2244 25.0997 15.2209 25.1708 15.2175 25.2419C15.214 25.3187 15.1728 25.3611 15.0982 25.3737L15.0761 25.377L15.075 25.3772C15.0216 25.3853 14.9668 25.3935 14.9068 25.4035C14.8987 25.3485 14.8919 25.3003 14.8861 25.2522C14.8838 25.2258 14.8838 25.1983 14.8838 25.1708C14.8838 25.1417 14.8841 25.1126 14.8844 25.0835C14.8862 24.8795 14.8881 24.6752 14.7978 24.4806C14.7543 24.3877 14.7703 24.2982 14.8277 24.2031C14.9254 24.0397 14.9446 23.8495 14.9634 23.6625L14.9652 23.6447C14.9742 23.5557 14.9803 23.4664 14.9863 23.3772C15.0004 23.1697 15.0145 22.9624 15.065 22.7596C15.1097 22.5819 15.1774 22.4167 15.3493 22.3204C15.4651 22.3617 15.5431 22.4431 15.6073 22.5406C15.6944 22.6713 15.7541 22.8157 15.7931 22.9659C15.9146 23.4326 16.0797 23.8843 16.2551 24.3338C16.309 24.4702 16.3503 24.6124 16.3675 24.7592C16.3755 24.8303 16.3732 24.9013 16.34 24.9667C16.2803 25.0848 16.1473 25.0974 16.0671 24.9931C16.0177 24.9295 15.9912 24.8549 15.9646 24.7803L15.9596 24.7663L15.9478 24.7339C15.9361 24.7026 15.9254 24.6708 15.9146 24.639ZM23.9267 20.0548C23.9611 19.939 24.0093 19.8313 24.1056 19.7464V19.7453C24.2306 19.759 24.3212 19.829 24.3968 19.923C24.4725 20.017 24.5333 20.1225 24.5654 20.2383C24.6667 20.5984 24.7869 20.9525 24.9071 21.3064C24.9829 21.5293 25.0586 21.7523 25.1295 21.9765C25.1708 22.1083 25.1971 22.2471 25.1731 22.3881C25.1673 22.4202 25.1604 22.4523 25.1409 22.4787C25.0011 22.5119 24.8944 22.4638 24.8211 22.3308C24.7522 22.2074 24.724 22.0714 24.696 21.9358C24.6904 21.9088 24.6848 21.8818 24.6789 21.8549C24.6759 21.8401 24.6726 21.825 24.6691 21.8084C24.6657 21.793 24.6621 21.7763 24.6582 21.7575C24.5181 21.7991 24.3801 21.8397 24.2393 21.881L24.0552 21.9352V22.27C24.0547 22.3073 24.0535 22.3447 24.0524 22.382C24.0509 22.4318 24.0494 22.4816 24.0494 22.5314C24.0483 22.6873 23.9806 22.7917 23.8109 22.8238C23.7929 22.8111 23.7706 22.7949 23.7457 22.7769L23.7249 22.7619C23.7215 22.7433 23.7176 22.7246 23.7137 22.7059C23.6985 22.6323 23.683 22.5577 23.6894 22.481C23.7038 22.3033 23.6707 22.1312 23.6375 21.9587C23.6285 21.9121 23.6195 21.8651 23.6114 21.8182C23.5965 21.7288 23.6126 21.6474 23.6562 21.5671C23.7638 21.373 23.7832 21.1586 23.8026 20.944C23.8053 20.914 23.808 20.8839 23.8109 20.854C23.8158 20.8049 23.8201 20.7557 23.8244 20.7065C23.8437 20.487 23.863 20.2675 23.9267 20.0548ZM21.4971 23.0528C21.4628 22.9374 21.4282 22.8212 21.355 22.7126C21.1807 22.8031 21.0042 22.8662 20.8173 22.9178L20.8162 22.9623C20.8098 23.2317 20.8034 23.5003 20.7599 23.772L20.6784 23.7804C20.6318 23.7852 20.5865 23.7898 20.5421 23.7949C20.4527 23.6975 20.4229 23.5828 20.4297 23.459C20.4401 23.2778 20.424 23.1001 20.3816 22.9235C20.3586 22.8284 20.3609 22.732 20.3965 22.6415C20.5136 22.3454 20.5473 22.0355 20.5812 21.7248C20.5875 21.6673 20.5938 21.6097 20.6006 21.5522L20.6008 21.5505C20.634 21.2702 20.6673 20.9887 20.7645 20.7221C21.0248 20.6854 21.1624 20.7749 21.2381 21.0214C21.433 21.6566 21.6428 22.286 21.8744 22.9086C21.9168 23.0233 21.9581 23.1391 21.9581 23.2641C21.9581 23.381 21.918 23.4269 21.7987 23.4544C21.7036 23.4773 21.6428 23.4475 21.5946 23.3512C21.5607 23.2841 21.5412 23.212 21.5217 23.14C21.5149 23.1148 21.5081 23.0895 21.5006 23.0646L21.4971 23.0528ZM25.29 9.25425C25.4689 9.11666 25.6936 9.03526 25.8874 9.04443C25.9057 9.21183 25.8736 9.36776 25.814 9.51796C25.6833 9.84817 25.4471 10.0993 25.1868 10.332C25.0608 10.4446 24.9242 10.5435 24.7876 10.6424C24.6905 10.7127 24.5934 10.783 24.5 10.8583C24.2501 11.0601 24.038 11.2951 23.8534 11.5565C23.7967 11.6367 23.7405 11.7169 23.6844 11.7971C23.6282 11.8774 23.5719 11.9578 23.5151 12.0381C23.5095 12.0459 23.5025 12.0528 23.4931 12.0621C23.4873 12.0679 23.4806 12.0745 23.4727 12.0828C23.4621 11.9834 23.4783 11.8945 23.4939 11.8087C23.4969 11.7926 23.4998 11.7766 23.5025 11.7606C23.5805 11.31 23.7295 10.8869 23.9864 10.5051L23.9948 10.4928C24.015 10.4633 24.0357 10.433 24.0609 10.4088C24.1527 10.3199 24.2385 10.2248 24.3244 10.1297C24.4864 9.95036 24.6486 9.77084 24.8509 9.63147C24.939 9.57062 25.0169 9.49786 25.095 9.425C25.1581 9.36608 25.2213 9.30705 25.29 9.25425ZM13.2983 18.0787C13.2389 18.0927 13.1791 18.1069 13.1193 18.1217L13.1204 18.1206C13.1055 17.8511 13.1032 17.5989 13.195 17.3558C13.2385 17.24 13.313 17.1598 13.4323 17.1151C13.7098 17.0119 13.9884 16.9098 14.283 16.8158L14.2512 17.2142C14.2371 17.392 14.223 17.569 14.2085 17.748C13.9328 17.9288 13.6195 18.0029 13.2983 18.0787Z" fill="#C084FC"/>
<path fill-rule="evenodd" clip-rule="evenodd" d="M5.4539 25.3244C5.69582 25.2717 5.94232 25.2476 6.20029 25.2442H6.20145C6.19113 25.1593 6.1361 25.1226 6.07992 25.0894C5.96526 25.0229 5.83914 24.9873 5.71187 24.9575C5.30207 24.8629 4.8842 24.8288 4.46583 24.7946L4.38301 24.7878C3.8361 24.742 3.29837 24.7798 2.7698 24.9266C2.28366 25.0619 1.81587 25.2373 1.40196 25.5319C1.18411 25.6867 1.01327 25.8828 0.915813 26.135C0.727777 26.6246 0.94677 27.1234 1.41916 27.2804C1.61063 27.3435 1.80555 27.3469 2.00161 27.3091C2.40176 27.23 2.74572 27.0351 3.05874 26.7817C3.17222 26.6894 3.28288 26.5936 3.39359 26.4978C3.54686 26.3652 3.70023 26.2325 3.86133 26.1087C4.33944 25.7406 4.85883 25.4563 5.4539 25.3244ZM1.52349 26.6624H1.24257L1.24144 26.6636C1.22878 26.5125 1.23851 26.381 1.27275 26.2652C1.33427 26.0551 1.47671 25.8968 1.71266 25.7681C2.03026 25.595 2.36391 25.4666 2.72163 25.4058C2.88788 25.3772 3.05414 25.3668 3.22497 25.4494C3.22458 25.4498 3.22418 25.4501 3.22378 25.4505C3.2238 25.4505 3.22376 25.4505 3.22378 25.4505C3.15681 25.514 3.08381 25.5598 3.00933 25.6005C2.9869 25.6128 2.96434 25.6246 2.94179 25.6363C2.85501 25.6809 2.76954 25.7273 2.68604 25.7763C2.46796 25.9048 2.26263 26.0518 2.083 26.2348C2.00733 26.3127 1.94083 26.3987 1.87433 26.4847C1.84416 26.5238 1.81112 26.5566 1.775 26.5829C1.70408 26.635 1.62115 26.6624 1.52349 26.6624Z" fill="#C084FC"/>
<path fill-rule="evenodd" clip-rule="evenodd" d="M35.3516 19.7155C35.4537 19.5905 35.5798 19.5331 35.7128 19.4896C35.9777 19.4036 36.2528 19.3829 36.5292 19.3829C37.1988 19.3829 37.858 19.4678 38.4875 19.704C38.9209 19.8656 39.2637 20.1534 39.5251 20.5352C39.6799 20.7611 39.7556 21.0134 39.712 21.2874C39.6558 21.6417 39.3554 21.8951 38.9862 21.8951C38.5437 21.8951 38.1848 21.715 37.9188 21.3573C37.8408 21.2518 37.7755 21.1372 37.7239 21.0168C37.4464 20.3724 36.9328 20.0239 36.2781 19.8484C35.98 19.7682 35.6761 19.7223 35.3528 19.7166L35.3516 19.7155ZM39.3176 21.355C39.3302 21.245 39.3359 21.1337 39.3164 21.0237C39.2671 20.7508 39.1009 20.549 38.8945 20.3816C38.5712 20.119 38.1974 19.9597 37.7881 19.8863C37.7779 19.8844 37.7676 19.8822 37.7571 19.88C37.7243 19.873 37.6897 19.8657 37.6522 19.8661C37.6281 19.8663 37.6027 19.8696 37.5759 19.8783C37.6041 19.9057 37.6316 19.9326 37.6587 19.9592L37.6598 19.9603C37.7534 20.052 37.8417 20.1386 37.9348 20.2211C38.257 20.5077 38.5219 20.8425 38.7581 21.2014C38.8509 21.3418 38.958 21.4087 39.0936 21.4072C39.161 21.4066 39.2355 21.389 39.3187 21.355H39.3176Z" fill="#C084FC"/>
<path d="M19.2321 23.655C19.1805 23.0072 19.2 22.356 18.9844 21.7368C19.2229 21.6669 19.4832 21.7804 19.6139 22.0143C19.7171 22.1989 19.7446 22.4007 19.732 22.6071C19.709 22.9797 19.5944 23.3156 19.3261 23.5874C19.302 23.6126 19.2791 23.6413 19.2332 23.655H19.2321Z" fill="#C084FC"/>
<path d="M13.4171 23.3478C13.6648 23.2721 13.8906 23.3581 14.0282 23.5862C14.1211 23.7387 14.1589 23.9084 14.1693 24.085C14.1876 24.4083 14.1245 24.7145 13.9457 24.9896C13.8769 25.0951 13.7909 25.1834 13.6694 25.2465C13.6189 24.6044 13.6579 23.96 13.416 23.3478H13.4171Z" fill="#C084FC"/>
<path d="M22.2627 20.7657H22.7259C22.852 20.9686 22.9185 21.1899 22.8555 21.4341C22.805 21.6302 22.6331 21.7472 22.4209 21.7391C22.4141 21.4112 22.4014 21.0821 22.2627 20.7657Z" fill="#C084FC"/>
<path d="M15.2393 23.8706C15.2817 23.5851 15.323 23.3168 15.3666 23.0221C15.4606 23.2858 15.5466 23.5266 15.636 23.7743C15.5053 23.8064 15.3792 23.8362 15.2393 23.8706Z" fill="#C084FC"/>
<path d="M24.4502 21.1716C24.3195 21.2037 24.1934 21.2335 24.0547 21.2679C24.096 20.9893 24.1361 20.721 24.1774 20.4515C24.1831 20.4515 24.1877 20.4492 24.1923 20.4481C24.2771 20.6866 24.3631 20.9251 24.4502 21.1716Z" fill="#C084FC"/>
<path d="M20.9308 21.2495C21.0248 21.5133 21.1108 21.7552 21.1991 22.004C21.0684 22.0361 20.9457 22.0659 20.8047 22.1003C20.8471 21.8171 20.8872 21.5454 20.9308 21.2495Z" fill="#C084FC"/>
</g>
</g>
<defs>
<clipPath id="clip0_100_126">
<rect width="40" height="40" fill="white" transform="translate(0 0.5)"/>
</clipPath>
</defs>
</svg>
