<svg width="40" height="41" viewBox="0 0 40 41" fill="none" xmlns="http://www.w3.org/2000/svg">
<g clip-path="url(#clip0_100_150)">
<mask id="mask0_100_150" style="mask-type:luminance" maskUnits="userSpaceOnUse" x="0" y="0" width="40" height="41">
<path d="M40 0.5H0V40.5H40V0.5Z" fill="white"/>
</mask>
<g mask="url(#mask0_100_150)">
<path d="M36.7188 15.0839C34.9727 15.0839 33.5585 16.4981 33.5585 18.2442V19.8485L32.5022 19.9263V18.2649C32.5022 17.8604 32.1754 17.5336 31.7709 17.5336H30.7405V18.5727C30.7405 20.6628 29.1361 22.5974 27.065 22.874L26.4184 22.9587L25.0059 24.7671H26.453C28.4135 24.7671 30.2443 23.7885 31.3352 22.16L31.598 21.7675H39.172C39.6301 21.7675 40.0018 21.3958 40.0018 20.9377V15.9137C40.0018 15.4556 39.6301 15.0839 39.172 15.0839H36.7188ZM38.1969 19.9263H35.2856V18.3306C35.2856 17.5768 35.8976 16.9666 36.6496 16.9666H38.1969V19.9281V19.9263Z" fill="#C084FC"/>
<path d="M28.773 14.9957H23.9893C23.6954 14.9957 23.417 15.1305 23.2355 15.3622L21.0762 18.1059V14.9957H20.1323C19.7657 14.9957 19.4355 15.2066 19.2696 15.5316C16.5034 20.9723 7.88348 21.5099 4.31862 15.2775C4.22008 15.1012 4.03337 14.994 3.83109 14.994H2.73674V18.6643C2.73674 19.3506 2.18006 19.9073 1.49371 19.9073C1.44012 19.9073 1.38825 19.9315 1.3554 19.9747L0 21.7243H1.60954C3.28478 21.7243 4.64019 20.362 4.63154 18.6868C8.90003 22.651 14.6726 22.8221 19.2385 18.6868V21.631H20.1513C20.504 21.631 20.8376 21.4684 21.0572 21.1918L23.0523 18.6695V20.8201C23.0523 21.2679 23.4136 21.6292 23.8613 21.6292H26.5722C28.237 21.6292 29.589 20.279 29.589 18.6124V15.8117C29.589 15.3622 29.2225 14.9957 28.773 14.9957ZM27.7426 18.5121C27.7426 19.2469 27.1461 19.8433 26.4114 19.8433H24.8814V16.8991H27.7426V18.5121Z" fill="#C084FC"/>
<path d="M36.6251 13.8166C37.2648 13.8166 37.7834 13.298 37.7834 12.6583C37.7834 12.0186 37.2648 11.5 36.6251 11.5C35.9854 11.5 35.4668 12.0186 35.4668 12.6583C35.4668 13.298 35.9854 13.8166 36.6251 13.8166Z" fill="#C084FC"/>
<path d="M15.1534 13.9982C15.7931 13.9982 16.3117 13.4796 16.3117 12.8398C16.3117 12.2001 15.7931 11.6815 15.1534 11.6815C14.5137 11.6815 13.9951 12.2001 13.9951 12.8398C13.9951 13.4796 14.5137 13.9982 15.1534 13.9982Z" fill="#C084FC"/>
<path d="M0 30.3477V27.8772C5.64118 23.1938 12.6602 22.8169 20.6786 25.5675C28.6191 28.0242 35.18 27.4104 40 22.9207V25.6004C34.5646 29.3416 28.0555 29.9518 20.5022 27.5142C12.3957 24.6616 5.42508 25.1993 0 30.3477Z" fill="#C084FC"/>
</g>
</g>
<defs>
<clipPath id="clip0_100_150">
<rect width="40" height="40" fill="white" transform="translate(0 0.5)"/>
</clipPath>
</defs>
</svg>
