<svg width="40" height="42" viewBox="0 0 40 42" fill="none" xmlns="http://www.w3.org/2000/svg">
<mask id="mask0_100_160" style="mask-type:luminance" maskUnits="userSpaceOnUse" x="0" y="0" width="40" height="42">
<path d="M39.9495 0.999878H0V41.1249H39.9495V0.999878Z" fill="white"/>
</mask>
<g mask="url(#mask0_100_160)">
<path fill-rule="evenodd" clip-rule="evenodd" d="M16.1131 26.5241L17.939 21.2511C18.0952 20.7998 17.946 20.4041 17.3281 20.4041H13.2214C13.756 18.9461 13.6658 17.8422 13.0062 16.9709L15.7035 16.7036C16.0089 16.6724 16.2033 16.832 16.2172 16.9744L16.2589 17.3875C16.2867 17.6548 16.547 17.7277 16.6303 17.5367L17.8106 14.8256C18.0328 14.3153 17.7238 13.8328 17.033 13.93L9.13906 15.0026L8.37188 17.4256L10.538 19.7237C10.8123 20.0153 10.7012 20.4041 10.2256 20.4041H3.93546C3.42517 20.4041 3.14745 20.1542 3.14745 19.7237C3.14745 19.4113 3.58832 18.7934 3.991 18.1199C4.39368 17.443 4.83802 16.832 4.59155 16.6515C4.15763 16.3356 2.24142 18.4948 1.41523 19.7063C0.686243 20.7755 -0.0253906 22.1884 -0.0253906 23.1014C-0.0253906 23.695 0.339105 24.5073 1.0681 24.8787C1.89429 25.3022 3.18564 25.4688 4.93522 25.4688C6.3689 25.4515 7.83035 25.3751 8.86482 25.1738C9.45496 25.0592 9.87846 24.8752 10.3714 24.5559L11.0622 24.1081C11.3504 23.9067 11.5482 23.9866 11.5482 24.1879V24.719C11.5482 25.0696 11.8641 25.2918 12.3397 25.2918H15.3077C15.5993 25.2918 15.7625 25.4688 15.7833 25.691L15.8666 26.5241H16.1061H16.1131ZM31.6302 14.7909L39.0207 13.7599C39.8018 13.6523 40.1246 14.1348 39.9094 14.6381L38.7916 17.2556C38.6319 17.6305 38.4098 17.5853 38.323 17.2035C38.2605 16.9258 38.0939 16.78 37.8891 16.7626C37.3996 16.7175 35.3897 17.0542 34.4871 17.2104C36.1707 18.4948 36.3374 20.7686 34.6572 22.9104C32.6855 25.4202 30.1236 25.5487 27.9644 24.5836C26.3363 25.5938 24.5937 25.7292 22.7747 25.264C21.3306 28.1453 18.7409 30.5023 16.6269 30.5023C15.2487 30.5023 13.7352 29.4193 12.6 28.1175C12.0273 27.4579 11.5482 26.7428 11.2323 26.0798C11.1108 25.8264 11.0726 25.698 11.0969 25.6459C11.1317 25.5591 11.333 25.691 11.5933 25.8195C13.0513 26.538 14.5093 27.2774 16.0471 27.2774C17.0608 27.2774 18.0432 26.8643 19.0881 25.7604L20.6085 24.1567L19.824 21.7614L22.9725 18.9635C23.285 20.4596 25.1179 20.3486 25.2393 18.9635L25.6073 14.7805L28.8496 13.8293L28.6135 19.7168H32.3696C32.8278 19.7168 33.0083 19.571 33.0152 19.3731C33.0291 19.0364 32.5293 18.7135 32.2481 18.5191L30.7797 17.509L31.6302 14.7839V14.7909ZM32.2099 12.9302L31.8419 14.1035L38.5035 13.1732L38.8715 11.9999L32.2099 12.9302ZM4.52559 20.1021C4.43881 19.9146 5.34137 19.571 5.34137 19.1926C5.34137 18.9288 4.68528 18.9114 4.68528 18.4983C4.68528 18.054 5.37608 17.7068 5.79612 17.502C6.28558 17.259 7.4242 17.0056 7.4242 17.2451C7.4242 17.4291 6.99375 17.6443 6.99375 17.9116C6.99375 18.1546 7.4242 18.1546 7.4242 18.5469C7.4242 18.7864 7.17773 18.9808 6.87572 19.1475C6.36543 19.4286 5.81695 19.6925 5.2893 19.932C4.91439 20.1021 4.57766 20.2166 4.52906 20.1056L4.52559 20.1021ZM18.9353 16.2245L19.9385 17.6652L18.3174 19.144L17.3142 17.7034L18.9353 16.2245ZM9.73961 13.0968L16.3457 12.1977L15.9534 13.4405L9.34734 14.3396L9.73961 13.1003V13.0968Z" fill="#C084FC"/>
</g>
</svg>
