<svg width="40" height="42" viewBox="0 0 40 42" fill="none" xmlns="http://www.w3.org/2000/svg">
<g clip-path="url(#clip0_100_166)">
<path d="M34.213 22.4537C36.1275 22.4134 38.0429 22.4427 40.0004 22.4427C39.9843 22.3172 39.9521 22.1395 39.8851 21.9344C39.8851 21.9344 39.8333 21.7741 39.7609 21.6193C39.66 21.4031 38.6746 19.4183 36.8324 19.5273C35.838 19.5868 34.8392 19.5841 33.8422 19.5795C33.0551 19.5758 32.6852 19.1609 32.7505 18.4209C32.7853 18.0243 33.0971 17.6817 33.4938 17.6222C33.8895 17.5636 34.1585 17.7678 34.3148 18.114C34.4997 18.5235 34.2808 18.7753 33.9458 18.9649C33.9137 18.9823 33.9012 19.0355 33.8663 19.095C33.9235 19.127 33.9708 19.1783 34.0191 19.1774C34.8812 19.1673 35.7442 19.1582 36.6064 19.1261C36.7118 19.1225 36.8646 19.0116 36.9083 18.9109C37.2576 18.1021 37.3738 17.265 37.0263 16.4287C36.1141 14.2323 33.199 14.0601 31.7266 15.0356C30.5447 15.8187 30.1552 17.0223 30.1373 18.376C30.1212 19.5374 30.4321 20.6237 31.2138 21.4938C32.0197 22.3905 33.0917 22.4766 34.213 22.4537Z" fill="#C084FC"/>
<path d="M23.7701 17.5132C23.8228 17.5673 23.8559 17.6424 23.8559 17.7257V22.2028C23.8559 22.3429 23.9667 22.4565 24.1042 22.4565H26.2216C26.3583 22.4565 26.47 22.3429 26.47 22.2028V17.7257C26.47 17.559 26.6004 17.4253 26.763 17.4253C26.8434 17.4253 26.9167 17.4583 26.9703 17.5132C27.023 17.5673 27.056 17.6424 27.056 17.7257V22.2028C27.056 22.3429 27.1668 22.4565 27.3044 22.4565H29.4217C29.5209 22.4565 29.6058 22.3969 29.6451 22.3108C29.6603 22.2779 29.6683 22.2412 29.6683 22.2028V18.1013C29.7219 17.2 29.495 16.4242 28.9974 15.7318C28.8491 15.5248 28.405 14.9688 27.6144 14.7132C27.2276 14.5878 26.88 14.5749 26.6308 14.5914C26.0983 14.6262 25.6954 14.8158 25.4685 14.9459C25.4417 14.9615 25.4166 14.9807 25.3916 14.999C25.3568 15.0247 25.2942 15.0613 25.2103 15.0567C25.1334 15.0531 25.0763 15.0182 25.0414 14.988C24.9923 14.9459 24.9414 14.9056 24.8851 14.8735C24.6501 14.738 24.1909 14.5282 23.5932 14.5676C23.0331 14.6052 22.6257 14.8433 22.4184 14.9908C22.3773 15.021 22.3398 15.0549 22.3041 15.0915C22.2656 15.1291 22.196 15.1813 22.0968 15.184C22.0253 15.1859 21.9672 15.162 21.9261 15.1355C21.8172 15.064 21.7108 14.9899 21.5992 14.9248C21.3606 14.7874 21.123 14.65 20.8844 14.5127C20.7647 14.443 20.6164 14.5337 20.6182 14.6748L20.6575 17.6433C20.6557 17.6543 20.6548 17.6671 20.6548 17.679V22.2028C20.6548 22.3429 20.7656 22.4565 20.9032 22.4565H23.0206C23.117 22.4565 23.2019 22.3997 23.2421 22.3163C23.2591 22.2815 23.2689 22.2431 23.2689 22.2028V17.7257C23.2689 17.559 23.4002 17.4253 23.562 17.4253C23.6424 17.4253 23.7165 17.4583 23.7701 17.5132Z" fill="#C084FC"/>
<path d="M15.4972 32.3778C15.4409 32.31 15.3516 32.2733 15.2828 32.2156C14.3215 31.4096 13.6952 30.4094 13.6157 29.1106C13.5746 28.4347 13.5138 28.3687 12.8465 28.3752C11.2884 28.3898 9.73028 28.4109 8.1722 28.3944C7.36904 28.3862 6.74992 27.7129 6.78208 26.9674C6.81245 26.2594 7.43515 25.7052 8.21777 25.697C8.91729 25.6897 9.61682 25.6878 10.3164 25.6888C10.5388 25.6888 10.6845 25.6448 10.6782 25.3599C10.6505 24.1701 10.6344 22.9804 10.6219 21.7906C10.6183 21.4187 10.4843 21.2355 10.0904 21.2401C9.28716 21.2502 8.48221 21.1971 7.67994 21.2209C5.96105 21.2712 4.63346 22.0599 3.85174 23.6307C2.74482 25.8545 2.83952 28.1233 3.95538 30.3059C4.8443 32.0453 6.29964 32.9191 8.25261 32.8714C9.32379 32.8449 10.3959 32.8669 11.4671 32.8669C11.4671 32.8696 11.4671 32.8714 11.4671 32.8742C12.7616 32.8742 14.057 32.8778 15.3516 32.8678H15.3551C15.5597 32.865 15.6794 32.626 15.5588 32.4565C15.5392 32.4291 15.5195 32.4025 15.4981 32.3768L15.4972 32.3778Z" fill="#C084FC"/>
<path d="M22.6586 26.6083C21.9252 24.7884 19.8954 23.7168 17.8039 24.0291C15.348 24.3955 13.689 27.0168 14.3501 29.4679C15.1184 32.3173 17.6074 33.1581 20.3403 32.7963C19.1833 31.8447 19.0654 30.4983 18.9448 29.0868C18.7527 29.161 18.6473 29.216 18.5347 29.2416C18.1541 29.3296 17.7941 29.3231 17.5163 28.9788C17.1491 28.5226 17.208 27.887 17.6574 27.5124C18.0487 27.1863 18.7357 27.2715 19.0672 27.6873C19.3897 28.0921 19.4317 28.5712 19.4254 29.0667C19.4129 29.9945 19.5568 30.9022 19.9847 31.7201C20.5038 32.7121 21.4177 32.9026 22.4308 32.8678C22.7846 32.8559 22.8882 32.7542 22.8811 32.3933C22.848 30.7154 22.848 29.0365 22.8186 27.3585C22.8141 27.1066 22.7533 26.8419 22.6586 26.6083Z" fill="#C084FC"/>
<path d="M33.4876 29.9478C32.4477 29.9917 31.4042 29.9899 30.3625 29.9752C29.8721 29.9679 29.5567 29.5832 29.5451 29.0758C29.5317 28.4951 29.8292 28.1003 30.3286 28.0353C30.6797 27.9895 31.0826 28.2799 31.1577 28.6517C31.2005 28.8642 31.1845 29.041 31.0924 29.1683C31.0254 29.2599 30.8512 29.3121 30.6913 29.3726C30.6037 29.4065 30.5269 29.4303 30.518 29.4825C30.509 29.5393 30.585 29.5961 30.6118 29.6162C30.8083 29.7627 31.9349 29.6318 33.3786 29.5942C33.4948 29.5915 33.6609 29.466 33.7137 29.3524C34.1184 28.4814 34.1755 27.5902 33.7503 26.7091C33.2026 25.5751 32.2226 25.0869 31.063 24.9221C29.7488 24.7352 28.2005 25.283 27.4849 26.5552C27.0177 27.3868 26.9212 28.2789 26.9614 29.2013C27.0409 31.0579 28.2032 32.9749 30.4671 32.8714C31.9242 32.8055 33.384 32.8128 34.8429 32.7945C35.5791 32.7853 36.3161 32.7926 37.1032 32.7926C36.9835 32.0553 36.7476 31.4957 36.3474 31.0057C35.5934 30.0833 34.5928 29.9001 33.4867 29.9468L33.4876 29.9478Z" fill="#C084FC"/>
<path d="M27.2039 25.773C27.68 25.1932 28.2777 24.9056 28.6949 24.7581C28.8281 24.6665 28.8915 24.5017 28.854 24.3496C28.8218 24.2187 28.7199 24.1142 28.5886 24.0767C27.6908 23.9045 26.9635 23.9622 26.5008 24.0355C26.0844 24.1014 25.6154 24.1829 25.0919 24.5008C24.8292 24.6601 24.5853 24.8644 24.3504 25.1254C24.3218 25.1566 24.295 25.1886 24.2691 25.2207C23.8054 25.7812 23.5668 26.5021 23.5615 27.2375C23.5534 28.3348 23.5177 29.1088 23.5409 29.9835C23.5552 30.5221 23.5651 31.3143 23.5383 32.2889C23.5338 32.4464 23.5972 32.5985 23.7107 32.7047L23.7134 32.7075C23.8706 32.854 24.0627 32.8778 24.303 32.8769C24.7881 32.8751 25.2723 32.8742 25.7575 32.8723C25.8897 32.8787 26.1389 32.8687 26.3033 32.6955C26.3033 32.6955 26.3953 32.5994 26.4364 32.4437C26.5829 31.8868 26.4132 29.3891 26.3927 28.9668C26.3659 28.4273 26.2908 26.8886 27.2048 25.7739L27.2039 25.773Z" fill="#C084FC"/>
<path d="M0.123289 15.4404C0.184039 15.4477 0.243897 15.4111 0.268912 15.3507C0.452952 14.9193 0.938065 13.9447 2.00299 13.244C2.62212 12.8374 3.21622 12.667 3.61647 12.5891C3.62808 12.5891 3.72725 12.5846 3.79068 12.4975C3.84785 12.4179 3.83267 12.3299 3.82909 12.3162C3.83177 11.3774 3.83445 10.2581 3.83713 9.27532C3.83713 9.05458 3.66292 8.87506 3.44761 8.87506H0.38952C0.174212 8.87598 0 9.05458 0 9.27532V15.2994C0.00178679 15.3726 0.0553905 15.4322 0.123289 15.4404Z" fill="#C084FC"/>
<path d="M13.1925 18.5711C13.8688 19.2178 14.8114 19.5072 15.7494 19.3799C15.7137 19.3726 15.6788 19.3652 15.644 19.357C15.3242 19.2782 14.7327 19.1335 14.4504 18.5839C14.2557 18.2066 14.2503 17.744 14.4361 17.3758C14.697 16.8602 15.2473 16.7145 15.4546 16.6596C15.9165 16.535 16.2113 16.622 16.5517 16.7219C16.8144 16.7997 17.1118 16.8867 17.5478 16.8895H17.5782C18.4555 16.8895 19.0827 16.6614 19.2998 16.2648C19.4097 16.0624 19.4266 15.8059 19.3516 15.5018C19.2748 15.1868 19.105 14.8827 18.8611 14.6207C18.0151 13.713 16.8751 13.213 15.6511 13.213C14.6166 13.213 13.6097 13.5857 12.8155 14.2626C12.4921 14.7453 12.2929 15.2958 12.2393 15.8536C12.2125 16.1302 12.1339 17.5599 13.1925 18.5711Z" fill="#C084FC"/>
<path d="M15.4775 22.3099C16.697 22.3566 17.8521 21.9069 18.7294 21.0414C19.6068 20.1749 20.0901 19.0107 20.0901 17.7633C20.0901 17.1707 19.982 16.6 19.7694 16.0624C19.7068 16.7017 19.4558 17.8219 18.4989 18.6261C18.0674 18.9897 17.5475 19.2434 16.9963 19.3615C16.8024 19.4037 16.5951 19.4504 16.3905 19.5154L16.3798 19.5191C16.0359 19.6281 15.6785 19.684 15.3167 19.684C14.4447 19.684 13.6264 19.3597 13.0108 18.7717C11.8565 17.6707 11.9441 16.1256 11.9727 15.827C12.0013 15.5275 12.0701 15.2261 12.1755 14.9349C11.5206 15.7803 11.1758 16.8473 11.216 17.94C11.3026 20.3004 13.1743 22.2201 15.4775 22.3099Z" fill="#C084FC"/>
<path d="M3.5972 22.4555C3.5972 22.4555 3.60435 22.4546 3.60792 22.4537C3.61418 22.4537 3.62132 22.4546 3.62758 22.4555C3.84289 22.4436 4.0162 22.2605 4.0162 22.037V21.1146C3.99655 20.1144 3.9894 19.1143 3.97958 18.1141C3.97958 18.0655 3.97958 18.0179 3.97868 17.9693C3.97421 17.5379 4.16272 17.199 4.51651 16.9746C5.03021 16.6495 5.56535 16.6678 6.08888 16.9481C6.4918 17.1633 6.68567 17.505 6.74106 17.9245V20.4552C6.74106 20.675 6.92242 20.8554 7.14309 20.8554H10.2271C10.2342 20.8554 10.2414 20.8554 10.2485 20.8554C10.4594 20.8444 10.6291 20.6695 10.6291 20.4561V9.30285C10.6291 9.25523 10.6211 9.19478 10.5916 9.13249C10.4915 8.92091 10.2351 8.88794 10.2092 8.88519H6.98674C6.8715 8.88519 6.76608 8.93191 6.69014 9.00793C6.57221 9.12517 6.56685 9.27355 6.56685 9.30285C6.56685 9.38162 6.56685 9.45948 6.56685 9.53825C6.55881 9.5813 6.55434 9.62618 6.55523 9.67289C6.56059 9.91011 6.56328 10.1473 6.56506 10.3855C6.56417 11.1997 6.56238 12.014 6.56149 12.8283C6.33903 12.8283 6.07548 12.8356 5.81282 12.8264C4.79882 12.7934 3.77767 12.7541 2.83603 13.2258C1.11803 14.0886 0.235356 15.5943 0.0861591 17.4766C0.0155808 18.365 0.0280884 19.2599 0.0522101 20.1566V22.0562C0.0522101 22.276 0.235356 22.4565 0.458705 22.4565H3.57665C3.5838 22.4565 3.59095 22.4565 3.5981 22.4565L3.5972 22.4555Z" fill="#C084FC"/>
</g>
<defs>
<clipPath id="clip0_100_166">
<rect width="40" height="41" fill="white" transform="translate(0 0.5)"/>
</clipPath>
</defs>
</svg>
