<svg width="40" height="41" viewBox="0 0 40 41" fill="none" xmlns="http://www.w3.org/2000/svg">
<path fill-rule="evenodd" clip-rule="evenodd" d="M25.1253 32.7754C25.0999 32.778 25.0275 32.7858 25.0021 32.7924C18.5991 33.6407 11.7047 32.8015 6.3545 29.2881C4.27945 27.9236 1.86913 25.6483 1.31672 22.4137C0.872241 19.8178 2.02279 17.4877 3.55305 15.7883C4.07245 15.2097 4.52454 14.8995 5.02997 14.3965C2.9727 15.7336 0.135687 18.5341 0.00488447 22.1075C-0.123377 25.6065 2.29456 28.3433 4.88012 29.9475C7.44917 31.5465 10.5631 32.7155 14.2738 33.1976C17.2162 33.5808 20.0849 33.6095 23.0921 33.2354C23.5886 33.1729 23.9887 33.0999 24.4573 33.0321L25.2649 32.8771C25.4211 32.8406 25.6002 32.8093 25.7259 32.6972L25.1265 32.778L25.1253 32.7754Z" fill="#C084FC"/>
<path fill-rule="evenodd" clip-rule="evenodd" d="M18.8558 9.92264L18.8418 10.152C21.1683 10.2784 21.2826 10.1312 23.9101 10.4843C29.0278 11.175 35.5375 13.8544 37.8944 18.5133C39.9555 22.5884 38.0113 26.5748 34.7476 29.0131C34.491 29.2047 34.1812 29.3454 33.9907 29.6061C36.1851 28.3915 38.7237 25.9467 39.5618 23.4628C40.8521 19.6288 39.0653 16.6627 37.1376 14.9321C35.1895 13.1819 32.642 11.7719 29.4139 10.8948C26.4321 10.0842 22.268 9.54862 18.8558 9.92394V9.92264Z" fill="#C084FC"/>
<path fill-rule="evenodd" clip-rule="evenodd" d="M16.6728 21.7543L17.9885 21.9263C17.6761 22.7109 17.3408 23.3442 17.4221 24.4193C17.4919 25.3198 18.0316 25.9636 18.8431 26.107C20.5435 26.408 22.0293 25.0801 22.5322 23.5162C22.456 23.4498 21.3398 22.819 21.3004 22.806C21.0883 23.0523 20.8724 23.7286 20.4572 24.1274C19.1504 25.3876 17.657 23.9124 20.3175 21.6084C20.0711 21.1157 19.7841 20.7952 19.6724 20.0497C18.5294 20.1735 17.483 20.4537 16.1344 19.7318C15.8042 19.5571 15.5362 19.3108 15.2213 19.1961C14.9927 19.5193 14.4568 20.0849 14.3222 20.4198C15.0854 21.5836 15.9312 23.279 14.6854 24.534C13.0739 26.1565 7.98909 26.09 8.12243 21.4741C8.17323 19.8321 9.00757 18.1393 9.75047 17.3222C9.65015 17.1788 8.812 16.4399 8.61389 16.3317C7.56113 17.4264 6.67345 19.3147 6.60614 21.4754C6.54519 23.3781 7.25634 25.4306 8.80692 26.4184C11.1639 27.9249 14.914 27.3294 16.2715 24.9706C16.8417 23.9841 16.7096 22.9793 16.6728 21.7556V21.7543Z" fill="#C084FC"/>
<path fill-rule="evenodd" clip-rule="evenodd" d="M26.7563 22.2391C27.5944 23.3572 27.1195 23.614 29.4257 21.2278C29.8384 20.7978 30.7388 19.7748 31.7242 19.763C33.0246 19.7461 32.7072 21.3021 32.1827 22.0866C31.8804 22.5375 30.8747 24.087 30.0517 23.3312C29.959 22.7578 30.4759 22.548 29.959 22.0931C29.4714 21.6631 29.0625 22.0241 28.8453 22.3916C28.2891 23.3234 28.6421 24.5353 29.2974 24.951C30.2702 25.5662 31.1578 24.9967 31.8563 24.4949C35.9404 21.581 33.925 15.6801 29.4206 19.1818C29.0269 19.4881 28.7539 19.6809 28.4377 19.9989C28.2815 20.1566 27.6808 20.8095 27.5411 20.8668C27.1728 20.386 26.8719 19.5376 26.6255 18.9016L26.3385 18.2618C26.3321 18.2513 26.3194 18.2305 26.308 18.2161L25.2159 18.7374C25.1956 18.7492 25.1397 18.7882 25.1232 18.7974L25.0368 18.8717C25.207 19.6679 26.4363 21.2122 24.8743 21.6944C23.4189 22.1414 21.4366 20.9672 21.4531 18.9407C21.4595 18.3191 21.6626 17.5685 22.1452 17.4825C23.7898 17.184 22.4944 20.3508 22.4716 20.4967C22.8056 20.743 23.1332 21.0936 23.6742 21.2187C24.0158 20.055 25.2629 17.9568 23.6526 16.4568C22.483 15.3674 20.5616 15.9095 20.1311 18.2331C19.4695 21.7947 23.0354 24.2134 25.7607 22.8868C26.1213 22.7096 26.4807 22.3277 26.755 22.2391H26.7563Z" fill="#C084FC"/>
<path fill-rule="evenodd" clip-rule="evenodd" d="M25.4402 25.2416C25.138 24.6774 24.7532 24.0583 23.8351 24.1926C23.1899 24.2903 22.6426 24.9263 22.6515 25.6978C22.6705 27.3685 24.8294 27.8181 25.4212 26.1187C25.5825 26.3507 25.9012 27.3424 27.0327 27.156C27.7083 27.044 28.2239 26.3963 28.2163 25.6287C28.1934 24.0153 26.013 23.5058 25.4402 25.2416Z" fill="#C084FC"/>
<path fill-rule="evenodd" clip-rule="evenodd" d="M11.4703 17.691C11.0322 17.8943 10.928 17.8682 10.702 18.3413C10.0962 19.5936 11.1706 20.9972 12.4532 20.4876C14.1981 19.793 13.1212 16.9195 11.4703 17.691Z" fill="#C084FC"/>
<path fill-rule="evenodd" clip-rule="evenodd" d="M28.9736 25.6887C28.9076 26.7351 28.4707 27.3281 27.8269 27.6747C26.7119 28.2677 26.2318 27.8207 25.4166 27.474C24.3917 28.3537 22.3052 28.1791 21.904 25.9245C21.1001 26.4367 20.4994 26.9358 19.246 26.9215C18.0167 26.9045 17.2713 26.2855 16.9348 25.4658C16.7862 25.5609 16.9144 25.4541 16.7976 25.5714L16.4915 25.9636C14.9334 27.9158 11.5401 28.6117 9.19455 27.4962C8.25608 27.0518 7.74303 26.537 7.16775 25.918C5.93593 24.594 5.65909 21.9693 6.00577 20.0693C6.25722 18.6736 6.85662 17.3039 7.65286 16.2614C7.97415 15.8456 8.24211 15.6045 8.5126 15.2579C8.80849 15.37 9.24789 15.8678 9.66696 16.178C9.87015 16.3265 9.98825 16.4477 10.1826 16.6341C10.4251 16.8686 10.5153 16.926 10.7439 17.0954C11.5681 16.7422 12.2627 16.5246 13.1263 17.1293C13.4475 17.3534 13.6571 17.5476 13.8831 17.9725C14.1066 18.3843 14.0736 18.5419 14.132 18.886C14.1422 18.9577 14.1485 19.0124 14.1765 19.0815C14.2527 19.2822 14.1435 19.1153 14.2832 19.273C14.5092 18.8326 14.8775 18.5537 15.0946 18.1275C15.628 18.2422 15.8541 18.8664 16.8535 19.2196C17.5913 19.4802 18.5793 19.5376 19.2993 19.2978C19.3641 14.5034 23.4266 14.1971 24.7918 16.6992C25.0762 17.2205 25.0343 17.2857 25.221 17.8643C25.6566 17.6805 26.3106 17.2544 26.7627 17.154C26.8655 17.5372 27.5411 19.303 27.7481 19.5897C28.2332 19.3434 29.6721 17.5606 31.5452 17.3717C35.0045 17.025 36.0471 21.4324 33.1821 24.3776C32.7377 24.8364 32.1433 25.3264 31.4233 25.6704C30.3426 26.1865 29.9908 26.0171 28.9736 25.69V25.6887ZM12.9904 14.1697C11.3903 13.281 11.5211 12.9148 10.8798 12.2762C7.97542 13.2784 4.96825 15.1276 3.20306 17.6128C2.32554 18.8469 1.65629 20.8186 2.14394 22.7682C2.9351 25.9141 5.80132 28.1217 8.44149 29.537C13.2329 32.1121 19.1978 32.8979 24.6343 32.0665C28.2167 31.5165 31.5706 30.2837 34.0355 28.4957C34.4013 28.2286 34.6756 28.0852 34.9994 27.7933C37.2192 25.7695 38.9425 23.2373 37.6916 19.9272C36.9652 18.0011 35.5747 16.5494 34.0812 15.3283C30.8455 12.6867 25.2769 10.8727 20.9579 10.7606H18.7406C18.6364 12.0468 17.8897 13.5598 17.2738 14.5998C17.0452 14.9868 16.7747 15.3387 16.6071 15.671C15.7017 15.5759 13.7053 14.5646 12.9904 14.1697Z" fill="#C084FC"/>
<path fill-rule="evenodd" clip-rule="evenodd" d="M14.7344 8.79666C15.2488 8.9374 15.8431 9.40395 15.123 9.80533C14.229 9.84834 13.6131 8.79405 12.2581 9.51863C10.6821 10.3579 11.392 12.516 13.6703 13.754C14.3357 14.115 15.617 14.6845 16.4323 14.7223L17.2845 12.9174C17.5359 12.2788 17.7899 11.5477 17.9105 10.8257C18.722 5.88272 14.6329 7.58208 14.7357 8.79666H14.7344Z" fill="#C084FC"/>
<path fill-rule="evenodd" clip-rule="evenodd" d="M13.6058 20.7065C13.2121 20.8212 12.4134 21.8807 10.9733 21.164C10.1605 20.7639 9.73634 19.995 9.73888 18.7713C9.63348 18.8716 9.71983 18.7687 9.61824 18.9055C9.57887 18.9577 9.53442 19.0345 9.50649 19.0893C9.44807 19.2014 9.38965 19.3304 9.33378 19.4711C8.97058 20.339 8.78009 21.3138 8.92867 22.2886C9.11916 23.5553 9.81635 24.3346 10.9834 24.607C12.2876 24.9106 13.6198 24.6044 14.2624 23.8251C15.084 22.8334 14.0274 21.4064 13.6058 20.7078V20.7065Z" fill="#C084FC"/>
<path fill-rule="evenodd" clip-rule="evenodd" d="M30.3359 21.3164C30.3804 21.422 30.609 21.6461 30.9226 22.2248C31.0039 22.3733 30.9506 22.316 31.0598 22.4137C31.1881 22.1752 32.0097 21.1522 31.8891 20.7287C31.6935 20.0549 30.482 21.2252 30.3372 21.3164H30.3359Z" fill="#C084FC"/>
</svg>
