<svg width="40" height="41" viewBox="0 0 40 41" fill="none" xmlns="http://www.w3.org/2000/svg">
<g clip-path="url(#clip0_100_13)">
<mask id="mask0_100_13" style="mask-type:luminance" maskUnits="userSpaceOnUse" x="0" y="0" width="40" height="41">
<path d="M40 0.5H0V40.5H40V0.5Z" fill="white"/>
</mask>
<g mask="url(#mask0_100_13)">
<path d="M39.9074 26.6134C39.8708 26.2476 39.5483 25.7111 39.5476 25.5132C39.5476 25.371 39.8488 24.8389 39.8898 24.542C40.1053 22.9669 39.0535 21.4556 37.4183 21.4468C38.3602 20.2983 39.022 18.998 39.4325 17.5651C40.0951 15.2482 40.1435 13.2986 37.7885 12.0277C40.2512 8.46553 36.6209 4.40499 32.7817 6.73797C32.4988 6.91021 31.7746 7.45992 31.5833 7.70106C31.524 7.77582 31.4455 8.10638 31.373 8.11884C31.145 8.15842 30.9112 7.65195 30.7544 7.49144C28.1062 4.77733 23.6154 6.14721 24.0156 10.1293C24.0662 10.6387 24.377 11.0616 24.3792 11.5564L23.0628 11.9243C23.0694 11.6451 23.0511 11.3629 23.0628 11.0829C23.1449 9.20288 23.2262 6.69399 21.1857 5.78C19.151 4.86894 17.1039 6.29893 16.8364 8.40836C16.7367 8.49705 16.2376 7.90116 16.1188 7.8286C13.854 6.44552 11.9615 8.25664 10.2801 9.58474C9.80448 9.96001 9.20859 10.4159 8.70579 10.8615C8.57312 10.9788 8.00069 11.6135 7.93252 11.6289C7.794 11.6597 7.5338 11.0558 7.41873 10.9055C6.04444 9.11565 3.54289 9.22047 2.23237 11.0536C0.91086 12.9028 -0.0456391 15.6103 0.134667 17.8979C0.348688 20.6222 2.71758 22.7456 5.11726 23.6816C4.9846 23.7263 4.62472 24.1367 4.56902 24.1411C4.50305 24.1463 3.71146 23.5548 3.43075 23.4639C1.85197 22.9523 0.260001 24.051 0.0643034 25.6605C0.213092 27.726 -0.137258 30.0736 0.0643034 32.1054C0.284188 34.324 3.05841 35.2922 4.56828 33.6108C5.40824 34.5292 6.67845 34.7454 7.74855 34.0777C7.94938 33.9524 8.40821 33.4686 8.52694 33.4576C8.70212 33.4423 9.24377 33.8806 9.46292 33.9868C10.0104 34.2536 10.9185 34.4882 11.5254 34.4926C11.9886 34.4962 12.6161 34.269 12.9935 34.2793C13.2735 34.2866 13.7184 34.4911 14.0783 34.4816C14.5914 34.4684 15.0934 34.0858 15.347 34.0638C15.4892 34.0513 15.7611 34.2698 15.9414 34.3203C16.9324 34.5959 19.453 34.5739 20.5341 34.486C21.2803 34.4251 21.764 34.2192 22.3298 33.7545C22.442 33.6621 22.6237 33.3866 22.7205 33.3953C23.8346 34.2698 24.9912 34.4889 26.394 34.4127C26.6308 34.3995 26.9049 34.2661 27.1277 34.2676C27.5565 34.2705 27.9567 34.4764 28.5196 34.4141C28.8524 34.3775 29.3771 34.0528 29.5443 34.0528C29.7011 34.0528 30.1775 34.3548 30.4407 34.3958C31.6302 34.582 32.8176 34.025 33.3087 32.9035C33.3475 32.8134 33.5366 32.2256 33.5366 32.1794V30.4577L34.7775 30.6079C34.8112 31.1159 34.746 31.637 34.7812 32.1427C34.9952 35.1728 39.5058 35.2204 39.9008 32.1713C39.9646 30.3785 40.0848 28.3592 39.9074 26.6134ZM39.3233 32.0335C39.1584 33.5471 37.4418 34.376 36.1775 33.4936C35.0319 32.6924 35.328 31.1533 35.2943 29.9446C34.7761 29.9307 34.4162 30.0729 33.9031 29.908C33.5777 29.8032 33.0485 29.2754 32.9576 29.9124C32.8242 30.8418 33.1562 31.7917 32.7451 32.7064C32.3434 33.5976 31.4631 33.9714 30.514 33.8102C30.1937 33.756 29.751 33.3807 29.5443 33.3807C29.3376 33.3807 28.8714 33.7714 28.5123 33.8212C27.9252 33.9025 27.5719 33.679 27.1277 33.6753C26.8697 33.6739 26.5824 33.8087 26.3207 33.8263C25.4581 33.8842 24.6511 33.8029 23.8661 33.4269C23.5868 33.2927 22.7293 32.5862 22.656 32.5788C22.3738 32.5503 22.2653 32.9578 22.1085 33.13C21.7296 33.5471 21.3294 33.7809 20.7577 33.83C19.7521 33.9165 17.4051 33.948 16.4318 33.8293C16.0411 33.7823 15.6373 33.3858 15.4093 33.3822C15.1499 33.3785 14.7614 33.7684 14.3766 33.8212C13.7485 33.9077 13.3703 33.6387 12.9913 33.6402C12.811 33.6402 12.435 33.8043 12.1843 33.8263C11.4199 33.8945 10.6349 33.8212 9.92541 33.5243C9.60365 33.3888 8.53867 32.584 8.44852 32.584C8.24256 32.5891 7.9164 33.226 7.67452 33.4181C7.12261 33.8571 6.30318 33.9766 5.65305 33.6951C5.33422 33.5566 4.68775 32.8837 4.56462 32.8713C4.32421 32.8478 3.98192 33.3675 3.75031 33.5221C2.47718 34.3724 0.822906 33.5156 0.649197 32.0335C0.78406 30.0927 0.486482 27.9246 0.630141 25.9962C0.634538 25.9317 0.640402 25.8672 0.646265 25.8035C0.788458 24.2489 2.56293 23.3767 3.83387 24.3793C4.04642 24.5472 4.33374 25.0339 4.62545 24.9532C4.76984 24.9137 4.96188 24.5567 5.12313 24.4204C5.52039 24.0847 5.9924 24.0913 6.28558 23.8978C6.46589 23.7798 6.48201 23.5276 6.31344 23.4199C6.15512 23.3188 5.38479 23.1582 5.09821 23.0424C-0.080821 20.9433 -0.243535 15.9687 2.52335 11.711C3.73932 9.84054 6.15292 9.60307 7.2069 11.703C7.41946 12.1266 7.4048 12.842 7.97577 12.4022C8.86337 11.7169 9.74364 10.7333 10.6921 9.9908C12.2774 8.74991 14.551 6.73577 16.3717 8.87305C16.5879 9.12665 16.8188 10.0025 17.2307 9.86839C17.4403 9.80023 17.3267 9.04383 17.3502 8.81221C17.6939 5.42159 21.8329 5.2127 22.3848 8.31747C22.5724 9.37658 22.4918 10.8608 22.4801 11.9639C22.4779 12.175 22.3181 12.4579 22.4947 12.6397C22.5622 12.7086 22.6795 12.7152 22.7718 12.6998C23.1046 12.6433 23.7921 12.3208 24.1783 12.1984C24.3432 12.1464 25.2199 11.9617 25.2499 11.9155C25.406 11.6722 24.7896 10.8498 24.6951 10.4745C23.806 6.93293 28.1033 5.393 30.3864 7.93267C30.7771 8.36658 30.8108 8.84959 31.0563 9.24026C31.4507 9.86693 31.6999 8.72133 31.8501 8.44354C32.3815 7.46065 33.8635 6.68226 34.9615 6.64708C37.4792 6.56646 38.8813 9.44915 37.4183 11.4486C37.2212 11.7191 36.7426 11.9764 36.8444 12.3128C36.8928 12.4726 37.8039 12.7394 38.0729 12.9182C40.4366 14.4904 38.6094 19.0779 37.1625 20.7893C36.9617 21.0268 36.1481 21.6747 36.1694 21.9196C36.2104 22.3872 36.7308 22.0603 36.9478 22.0398C38.6732 21.8734 39.7946 23.3517 39.1393 24.9642C39.0755 25.1218 38.8366 25.3703 38.8373 25.5132C38.8381 25.7404 39.3687 26.3546 39.3225 26.6852C39.1869 28.3864 39.5043 30.3661 39.3233 32.0335Z" fill="#C084FC"/>
<path d="M32.5892 9.47919C32.6772 8.6297 33.9137 7.87403 34.6906 7.76775C37.1093 7.43866 37.7507 10.5632 35.8252 11.3929C34.6562 11.8965 32.4426 10.8828 32.5892 9.47919ZM27.0716 7.76628C28.8585 7.46431 31.2516 9.37877 29.2089 10.9297C28.3117 11.6106 27.0313 11.8562 26.173 10.9744C25.1813 9.95487 25.6717 8.00303 27.0716 7.76628ZM7.39188 31.8166C7.31125 32.6551 6.45883 33.0714 5.78232 32.54L3.5798 29.2124V32.1061C3.5798 32.5004 3.01103 32.7555 2.66508 32.7635C1.93726 32.7811 1.72178 32.2182 1.67267 31.596C1.56419 30.2063 1.55466 27.6989 1.67267 26.3165C1.75622 25.3402 2.49944 24.8711 3.32254 25.4773L5.48401 28.7734V25.8797C5.48401 25.8254 5.68264 25.5491 5.7508 25.4868C6.35182 24.9378 7.1544 25.234 7.35596 25.9852C7.27973 27.8433 7.56778 29.9908 7.39188 31.8166ZM2.00469 18.6645C1.39122 16.742 2.39169 13.2993 3.72639 11.8151C4.96068 10.4438 7.39994 12.0775 5.99487 14.011C5.29857 14.969 4.53557 15.6081 4.10973 16.8131C3.2683 19.1952 5.24726 20.1238 7.33177 19.8893C8.67967 19.7368 11.7353 18.2577 12.1649 16.8857C12.472 15.905 11.4803 15.6191 10.6814 15.7672C10.0723 15.8793 9.49984 16.3726 8.96699 16.6167C6.4537 15.087 8.17686 13.6182 9.65816 12.2534C10.5634 11.4186 12.4463 9.83174 13.4893 9.2725C14.9523 8.48824 16.4497 9.89111 15.8259 11.39C15.447 12.2996 13.6975 12.7723 13.0283 13.462C15.1897 13.5742 16.2129 15.5209 15.3854 17.4684C13.5956 21.6777 3.73519 24.0935 2.00469 18.6645ZM14.9339 31.8884C14.8159 32.5591 14.2083 32.9592 13.5611 32.6712C13.4307 32.6133 13.3581 32.4506 13.21 32.4345C13.0099 32.4132 12.1143 32.7995 11.673 32.8017C7.41313 32.8251 7.16833 26.4257 11.4019 26.1582C11.7163 26.1384 12.0828 26.1604 12.3869 26.2278C12.5848 26.2718 13.0275 26.502 13.1389 26.499C13.2687 26.4954 13.4446 26.2931 13.5992 26.2322C14.3021 25.953 14.868 26.4059 14.9354 27.122C15.0769 28.6312 14.8233 30.3551 14.9339 31.8884ZM30.7143 21.3772C30.3699 21.2687 29.2037 20.6472 29.0315 20.6472C28.8431 20.6472 27.6653 21.1162 27.3267 21.2071C24.6367 21.9305 21.2512 22.1922 19.0692 20.1312C18.7277 19.8087 18.4873 19.429 18.156 19.1036C17.8394 20.5394 17.1892 21.9218 16.3405 23.1121C16.0422 23.5298 15.4067 24.4072 14.92 24.5486C14.1336 24.7766 13.2064 24.3222 13.1001 23.4639C12.9389 22.1666 13.858 21.9679 14.6408 21.2658C15.8912 20.1429 16.7539 18.5758 17.3593 17.0256C17.9918 16.3924 18.3605 17.1063 18.8134 17.4559C20.7631 18.9628 22.7501 19.5045 25.2224 19.2494C26.7007 19.0962 30.4446 18.1397 28.1549 16.1718C25.7523 14.107 21.9204 16.1806 19.5002 17.2499C19.1587 17.2514 18.8164 17.022 18.8127 16.6518C18.809 16.1879 19.0722 15.3685 19.1066 14.8173C19.1894 13.5038 19.0363 12.0101 18.8772 10.7267C18.7753 9.9021 18.3172 8.6385 18.7255 7.91654C19.306 6.89114 20.8466 7.02454 21.2468 8.13716C21.3846 8.52122 21.4286 9.2615 21.4506 9.69101C21.5422 11.4845 21.3062 13.3257 20.939 15.0745C22.1652 14.0521 23.6795 13.3624 25.2465 13.0465C26.5233 12.7892 27.9863 12.6485 29.247 13.0281C31.7339 13.7758 32.9623 16.5588 31.2963 18.7312C31.1996 18.8573 30.6799 19.2868 30.7539 19.3953C33.1756 20.502 34.3014 19.2458 34.6869 16.9216C34.8211 16.1131 34.7199 14.8979 35.1604 14.2441C35.9571 13.0626 37.7617 13.3895 38.1465 14.7491C38.433 15.7613 37.5704 18.0569 37.0382 18.9797C35.6662 21.3574 33.3566 22.2061 30.7143 21.3772ZM37.0309 23.3679C38.7739 22.9684 38.6243 25.662 36.9752 25.1511C36.1822 24.9056 36.2313 23.5511 37.0309 23.3679ZM38.2799 31.9419C38.027 33.097 36.5024 33.012 36.3903 31.8158C36.2467 30.2891 36.4973 28.5359 36.3991 26.985C36.468 26.5467 36.8 26.1919 37.2567 26.1509C37.9434 26.0893 38.2579 26.6779 38.3004 27.2679C38.4096 28.7726 38.2278 30.4232 38.2799 31.9419ZM39.3228 26.6852C39.369 26.3546 38.8384 25.7404 38.8376 25.5132C38.8369 25.3703 39.0758 25.1218 39.1396 24.9642C39.7949 23.3517 38.6735 21.8734 36.9481 22.0398C36.7311 22.0603 36.2107 22.3872 36.1697 21.9196C36.1484 21.6747 36.962 21.0268 37.1628 20.7893C38.6097 19.0779 40.4369 14.4904 38.0732 12.9182C37.8042 12.7394 36.8931 12.4726 36.8447 12.3128C36.7429 11.9764 37.2215 11.7191 37.4186 11.4486C38.8816 9.44914 37.4795 6.56645 34.9618 6.64707C33.8638 6.68225 32.3818 7.46064 31.8504 8.44353C31.7002 8.72132 31.451 9.86692 31.0566 9.24025C30.8111 8.84958 30.7774 8.36657 30.3867 7.93266C28.1036 5.39299 23.8063 6.93292 24.6954 10.4745C24.7899 10.8498 25.4063 11.6722 25.2502 11.9155C25.2202 11.9617 24.3435 12.1464 24.1786 12.1984C23.7924 12.3208 23.1049 12.6433 22.7721 12.6998C22.6798 12.7152 22.5625 12.7086 22.495 12.6397C22.3184 12.4579 22.4782 12.175 22.4804 11.9639C22.4921 10.8608 22.5727 9.37657 22.3851 8.31746C21.8332 5.21269 17.6942 5.42158 17.3505 8.8122C17.327 9.04382 17.4406 9.80022 17.231 9.86838C16.8191 10.0025 16.5882 9.12664 16.372 8.87304C14.5513 6.73576 12.2777 8.7499 10.6924 9.99079C9.74391 10.7333 8.86364 11.7169 7.97604 12.4022C7.40507 12.842 7.41973 12.1266 7.20717 11.703C6.15319 9.60306 3.73959 9.84053 2.52362 11.711C-0.243262 15.9687 -0.0805478 20.9433 5.09848 23.0424C5.38506 23.1582 6.15539 23.3188 6.31371 23.4199C6.48228 23.5276 6.46616 23.7798 6.28585 23.8978C5.99267 24.0913 5.52066 24.0847 5.1234 24.4204C4.96215 24.5567 4.77011 24.9137 4.62572 24.9532C4.33401 25.0339 4.04669 24.5472 3.83414 24.3793C2.5632 23.3767 0.788731 24.2489 0.646538 25.8035C0.640675 25.8672 0.634811 25.9317 0.630414 25.9962C0.474295 27.9217 0.5923 30.0421 0.64947 32.0335C0.823179 33.5156 2.47745 34.3724 3.75058 33.5221C3.98219 33.3675 4.32448 32.8478 4.56489 32.8713C4.68802 32.8837 5.33449 33.5566 5.65332 33.6951C6.30345 33.9766 7.12288 33.8571 7.67479 33.4181C7.91667 33.226 8.24283 32.5891 8.44879 32.584C8.53894 32.584 9.60392 33.3888 9.92568 33.5243C10.6352 33.8212 11.4202 33.8945 12.1846 33.8263C12.4353 33.8043 12.8113 33.6402 12.9916 33.6402C13.3706 33.6387 13.7488 33.9077 14.3769 33.8212C14.7617 33.7684 15.1502 33.3785 15.4096 33.3822C15.6376 33.3858 16.0414 33.7823 16.4321 33.8293C17.4054 33.948 19.7524 33.9165 20.758 33.83C21.3297 33.7809 21.7299 33.5471 22.1088 33.13C22.2656 32.9578 22.3741 32.5503 22.6563 32.5788C22.7296 32.5862 23.5871 33.2927 23.8664 33.4269C24.6514 33.8029 25.4584 33.8842 26.321 33.8263C26.5827 33.8087 26.87 33.6739 27.128 33.6753C27.5722 33.679 27.9255 33.9025 28.5126 33.8212C28.8717 33.7713 29.3357 33.3807 29.5446 33.3807C29.7535 33.3807 30.194 33.756 30.5143 33.8102C31.4634 33.9714 32.3437 33.5976 32.7454 32.7064C33.1565 31.7917 32.8245 30.8418 32.9579 29.9124C33.0488 29.2754 33.578 29.8032 33.9034 29.908C34.4165 30.0729 34.7764 29.9307 35.2946 29.9446C35.3283 31.1533 35.0322 32.6924 36.1778 33.4936C37.4421 34.376 39.1587 33.5471 39.3236 32.0335C39.5046 30.3661 39.1872 28.3864 39.3228 26.6852ZM20.3922 32.8046C19.5611 32.8757 17.4377 32.9131 16.6505 32.8053C16.0685 32.7254 15.7094 31.9712 15.9417 31.431C16.7253 30.3265 17.6708 29.3392 18.4851 28.261C18.5408 28.187 18.6273 28.1694 18.595 28.0404H16.5076C16.4248 28.0404 16.0172 27.6534 15.9674 27.5552C15.6999 27.0326 15.9821 26.3348 16.5574 26.1861C17.113 26.0424 19.9458 26.0644 20.6092 26.1355C21.3795 26.2183 21.7372 26.8904 21.4088 27.5955C20.6436 28.5755 19.7802 29.5019 19.0363 30.4965C18.9498 30.6116 18.8156 30.7479 18.8142 30.8975H20.8291C21.1105 30.8975 21.5004 31.445 21.5276 31.7396C21.5913 32.433 20.9984 32.7526 20.3922 32.8046ZM29.0703 31.9617C28.9685 32.6389 28.3147 32.9482 27.6975 32.6712C27.5678 32.6133 27.4901 32.4476 27.3442 32.433C27.205 32.4191 26.4918 32.7049 26.1781 32.7313C21.5056 33.1249 21.2703 26.4543 25.5383 26.1582C25.8923 26.134 26.173 26.1531 26.5219 26.2293C26.7366 26.2762 27.1991 26.5071 27.3508 26.499C27.4725 26.4924 27.6022 26.3121 27.7496 26.2454C27.8207 26.2132 27.891 26.1897 27.9607 26.1743C27.9702 26.1721 27.979 26.1699 27.9885 26.1685C28.0134 26.1633 28.0391 26.1597 28.064 26.1575C28.0809 26.1553 28.0977 26.1538 28.1146 26.1531C28.6159 26.123 29.0454 26.499 29.0725 27.048C29.096 27.5186 29.1092 28.0067 29.1151 28.5014C29.1297 29.658 29.1041 30.8527 29.0703 31.9617ZM33.855 28.7477C33.7348 28.6444 33.6102 28.3629 33.4812 28.2588C32.9374 27.8205 32.041 28.0991 31.9296 28.8144C31.7955 29.6844 32.1458 31.5828 31.7932 32.2673C31.6672 32.5114 31.4341 32.6976 31.1578 32.7306C30.4556 32.8127 30.0679 32.4938 30.018 31.8158C29.9316 30.6263 29.889 28.2031 30.021 27.0517C30.0767 26.5643 30.4857 26.1406 30.9987 26.1626C31.2699 26.1743 31.547 26.4155 31.6555 26.4133C31.7852 26.4111 32.0307 26.2579 32.2 26.2278C33.2716 26.0387 34.3747 26.3224 35.0732 27.1997C36.0715 28.4545 34.7375 29.5107 33.855 28.7477Z" fill="#C084FC"/>
<path d="M11.3986 28.0595C13.3974 27.7898 13.6085 30.8212 11.6691 30.8997C9.90996 30.9708 9.64024 28.2977 11.3986 28.0595Z" fill="#C084FC"/>
<path d="M24.9304 30.6035C23.3216 29.4081 25.3651 27.0649 26.7716 28.4333C28.0044 29.6331 26.3582 31.6649 24.9304 30.6035Z" fill="#C084FC"/>
</g>
</g>
<defs>
<clipPath id="clip0_100_13">
<rect width="40" height="40" fill="white" transform="translate(0 0.5)"/>
</clipPath>
</defs>
</svg>
