<svg width="40" height="42" viewBox="0 0 40 42" fill="none" xmlns="http://www.w3.org/2000/svg">
<g clip-path="url(#clip0_100_22)">
<mask id="mask0_100_22" style="mask-type:luminance" maskUnits="userSpaceOnUse" x="0" y="0" width="40" height="41">
<path d="M40 0.624878H0V40.6249H40V0.624878Z" fill="white"/>
</mask>
<g mask="url(#mask0_100_22)">
<path d="M3.23145 28.8878C2.66474 28.9156 2.11569 28.8452 1.57401 28.6927C0.620165 28.4243 -0.0540007 27.6014 0.00340639 26.7609C0.0534536 26.0186 0.334602 25.3718 0.798274 24.7924C1.04704 24.4799 1.34879 24.232 1.67116 24.0062C2.02002 23.7627 2.32324 23.9064 2.3939 24.3274C2.53374 25.1429 3.02538 25.7047 3.80552 25.8837C5.14355 26.1917 6.35941 25.8852 7.28381 24.8217C8.14786 23.8272 7.90498 22.1931 6.82897 21.4333C6.03263 20.8715 5.10675 20.5826 4.23093 20.188C3.48169 19.8506 2.74717 19.4942 2.14366 18.9133C1.40915 18.2078 1.07942 17.3247 0.982272 16.3464C0.835074 14.8561 1.20307 13.4816 2.05093 12.2524C2.8193 11.1362 3.83202 10.2913 5.06554 9.70015C6.08562 9.21169 7.1528 8.92566 8.27739 8.84205C8.70721 8.80978 9.13408 8.84499 9.53593 9.00047C10.4677 9.36278 10.8622 10.215 10.559 11.1816C10.4412 11.5586 10.2616 11.9092 10.0202 12.2246C9.6846 12.6646 9.07079 12.7541 8.61447 12.4373C8.50702 12.3624 8.40251 12.2832 8.30094 12.2011C7.0056 11.1655 4.85504 12.1454 4.437 13.1487C4.06312 14.0434 4.41639 15.1348 5.25984 15.6173C6.1548 16.1293 7.10275 16.5268 8.04335 16.9434C9.03693 17.3834 9.92748 17.9525 10.5575 18.8693C11.0565 19.5954 11.2802 20.4109 11.3214 21.269C11.4142 23.1671 10.6664 24.744 9.38285 26.1052C8.2877 27.2655 6.99236 28.1089 5.4615 28.5753C4.73729 28.7968 3.99541 28.9303 3.23587 28.8907L3.23145 28.8878Z" fill="#C084FC"/>
<path d="M24.0262 14.9309C23.9599 16.6148 23.5551 18.2958 22.8074 19.9181C22.2289 21.1737 21.5047 22.3164 20.567 23.3153C19.6515 24.2907 18.624 25.1254 17.314 25.564C15.0883 26.3106 13.1895 25.3293 12.3416 23.2302C11.8102 21.9145 11.7484 20.5474 11.9177 19.148C12.0914 17.712 12.4947 16.3493 13.1306 15.06C14.1904 12.9155 15.602 11.0673 17.7938 9.94953C18.6858 9.49334 19.6411 9.24691 20.6524 9.4596C21.7843 9.69869 22.5954 10.3485 23.1739 11.3621C23.7965 12.4534 23.9923 13.6181 24.0247 14.9309H24.0262ZM20.8128 16.5151C20.7952 15.3915 20.6951 14.3471 20.1622 13.3878C19.6058 12.3889 18.6799 12.1791 17.7806 12.8847C16.8635 13.6049 16.4205 14.6258 16.0672 15.6892C15.5932 17.1179 15.4681 18.5862 15.6668 20.0765C15.7492 20.6926 15.9023 21.3028 16.2379 21.8367C16.8267 22.7711 17.6643 23.0615 18.6284 22.2929C18.992 22.0025 19.2835 21.6519 19.5219 21.2573C20.4169 19.7817 20.7908 18.1653 20.8128 16.5151Z" fill="#C084FC"/>
<path d="M33.1763 9.98476C33.1218 10.6771 33.0703 11.3298 33.0203 11.9811C33.0011 12.2202 32.8657 12.3478 32.6405 12.4138C31.9148 12.6221 31.1921 12.8421 30.4664 13.0475C30.2736 13.1018 30.1823 13.1927 30.1587 13.401C30.0086 14.7212 29.8423 16.0413 29.6833 17.36C29.5376 18.5716 29.4154 19.7861 29.2461 20.9948C29.096 22.0641 28.4424 22.7345 27.4326 23.0689C27.0484 23.1965 26.6554 23.2933 26.2624 23.396C25.8164 23.5119 25.5721 23.3241 25.6089 22.8694C25.6898 21.891 25.787 20.9141 25.8797 19.9372C26.0033 18.6347 26.1314 17.3336 26.2551 16.031C26.3051 15.5103 26.3478 14.9881 26.4008 14.4674C26.4199 14.2694 26.3551 14.2107 26.1579 14.2694C25.812 14.3721 25.4631 14.4659 25.1113 14.5481C24.6697 14.6507 24.4004 14.4219 24.4357 13.9672C24.4843 13.3585 24.5417 12.7512 24.6153 12.1454C24.6756 11.654 24.9494 11.3284 25.441 11.1993C25.8002 11.104 26.1579 10.9969 26.5185 10.9089C26.6937 10.8663 26.7688 10.7754 26.7864 10.5935C26.913 9.22494 27.0323 7.85638 27.1824 6.49076C27.4665 3.91061 29.1607 1.40086 32.1106 0.611704C32.6714 0.462087 33.2308 0.302203 33.8225 0.410749C34.2847 0.495825 34.5393 0.743719 34.5526 1.1207C34.5673 1.56074 34.3215 1.90398 33.8666 1.98906C33.1262 2.12694 32.4594 2.3851 31.9413 2.95863C31.4629 3.48816 31.2671 4.14677 31.0566 4.80244C30.7873 5.64294 30.7549 6.51717 30.6725 7.38553C30.6047 8.09108 30.5532 8.79809 30.4811 9.50364C30.4531 9.77647 30.5459 9.83074 30.7946 9.75593C31.3393 9.59311 31.8898 9.44497 32.4374 9.28948C33.0306 9.12226 33.2219 9.27921 33.1792 9.89675C33.1763 9.94075 33.1792 9.98329 33.1792 9.98769L33.1763 9.98476Z" fill="#C084FC"/>
<path d="M13.5176 34.6363C13.553 33.1138 14.0402 31.7188 14.8454 30.4251C16.2805 28.1192 18.3516 26.6025 20.8378 25.583C21.7489 25.209 22.6895 24.9391 23.6375 24.6883C24.3735 24.4932 24.9181 24.9156 24.8784 25.674C24.8313 26.5878 24.7341 27.4987 24.6561 28.4096C24.5531 29.6036 24.4471 30.7976 24.344 31.9916C24.3087 32.3935 24.2807 32.7955 24.2454 33.1974C24.2292 33.3822 24.213 33.5655 24.2528 33.7504C24.3058 33.9983 24.4206 34.1039 24.6635 33.944C24.9107 33.7812 25.1521 33.7606 25.3847 33.9675C25.6291 34.186 25.6997 34.4867 25.5481 34.7419C24.7871 36.0181 23.8333 37.0727 22.2347 37.2502C21.7637 37.303 21.3412 37.127 21.0483 36.7442C20.9114 36.5652 20.8525 36.5931 20.7097 36.7339C19.6425 37.7915 18.3575 38.4193 16.8649 38.6202C15.337 38.8271 14.4141 37.9631 13.9121 36.7911C13.6207 36.112 13.5353 35.3829 13.5176 34.6334V34.6363ZM17.2506 33.0859C17.2594 34.0936 17.3463 34.8138 17.7187 35.4724C17.9615 35.9022 18.3752 36.1017 18.8506 35.9858C19.541 35.8171 20.1195 35.4622 20.5728 34.9106C20.6891 34.7698 20.7362 34.6158 20.7362 34.4295C20.7362 33.3382 20.8496 32.2527 20.9614 31.1702C21.0998 29.8369 21.2794 28.5079 21.4384 27.176C21.4487 27.0851 21.5061 26.9648 21.4089 26.9017C21.3118 26.8386 21.2249 26.9355 21.144 26.9809C20.4036 27.399 19.7544 27.9344 19.2054 28.5798C18.0337 29.9557 17.2727 31.5061 17.2506 33.0859Z" fill="#C084FC"/>
<path d="M35.1176 34.1523C34.0917 34.1567 33.6236 33.8281 33.3748 33.1035C33.0701 32.219 33.079 31.3008 33.0951 30.384C33.1128 29.3704 33.1894 28.3583 33.2806 27.3491C33.3145 26.9692 33.3248 26.5893 33.1629 26.2241C33.0024 25.8632 32.7389 25.6784 32.3592 25.7576C31.7763 25.8794 31.2272 26.0964 30.7576 26.4764C30.2307 26.9017 30.0688 27.4958 30.0202 28.128C29.8612 30.2036 29.7125 32.2806 29.5639 34.3562C29.5462 34.607 29.5491 34.8578 29.5344 35.1087C29.5182 35.4035 29.3902 35.5912 29.0708 35.6484C28.7263 35.7101 28.3848 35.7922 28.0507 35.8963C26.9305 36.244 25.9796 35.2333 26.0105 34.2872C26.037 33.4379 26.1047 32.5901 26.1592 31.7408C26.2136 30.8812 26.2769 30.0217 26.3314 29.1621C26.4227 27.7378 26.511 26.3121 26.6008 24.8863C26.6155 24.6399 26.7244 24.5123 26.9806 24.436C27.3353 24.3304 27.6974 24.257 28.0492 24.147C28.741 23.9285 29.3063 24.1192 29.7567 24.6487C29.926 24.8467 30.0099 24.8306 30.1806 24.6633C30.9372 23.9197 31.7998 23.3432 32.8037 22.9692C34.8012 22.224 36.5646 23.4796 36.9149 25.4056C37.0548 26.1771 37.0136 26.9443 36.9414 27.7158C36.8575 28.6165 36.781 29.5171 36.7059 30.4177C36.6971 30.5263 36.6985 30.6378 36.7147 30.7448C36.7545 31.0133 36.8811 31.0749 37.1269 30.9561C37.6774 30.6891 37.9821 30.8915 37.963 31.5076C37.9483 31.999 37.6553 32.3627 37.3845 32.7295C36.7574 33.5788 35.9522 34.1288 35.1191 34.1523H35.1176Z" fill="#C084FC"/>
<path d="M33.1807 18.6992C33.1984 17.4436 33.3632 16.1997 33.4736 14.9514C33.5943 13.6064 33.7061 12.2598 33.8253 10.9133C33.9873 9.07826 34.1536 7.24473 34.317 5.41119C34.37 4.82445 34.4318 4.23919 34.4701 3.65246C34.4921 3.32535 34.6084 3.12146 34.9602 3.07159C35.4681 2.99825 35.9407 2.76062 36.4662 2.76209C37.3935 2.76502 38.0955 3.54684 38.0028 4.45921C37.8733 5.72802 37.7586 6.99683 37.6276 8.26564C37.5996 8.53407 37.6569 8.61768 37.938 8.52821C38.4076 8.38152 38.8845 8.25831 39.3615 8.13803C39.8251 8.02068 40.0342 8.18937 39.996 8.66609C39.9386 9.39364 39.8619 10.1197 39.7869 10.8458C39.7618 11.0893 39.6117 11.2228 39.3688 11.2858C38.7432 11.4457 38.125 11.6291 37.5009 11.7904C37.3286 11.8344 37.2462 11.9063 37.23 12.0941C37.0652 13.9833 36.89 15.8697 36.7237 17.759C36.6854 18.1858 36.8445 18.2973 37.2213 18.1257C37.5054 17.9966 37.754 18.0274 37.9601 18.2709C38.178 18.529 38.1899 18.9031 37.9573 19.2067C37.5628 19.7187 37.0903 20.1572 36.581 20.5562C36.1188 20.9185 35.5902 21.0931 35.0147 21.1708C34.0138 21.3072 33.2601 20.3626 33.1865 19.5837C33.1585 19.2918 33.1822 18.9955 33.1822 18.7007L33.1807 18.6992Z" fill="#C084FC"/>
<path d="M10.0936 40.3672C9.35757 40.4523 8.73639 39.8318 8.58184 39.0676C8.37429 38.0394 8.42286 37.0038 8.48027 35.9711C8.52885 35.0793 8.62158 34.1904 8.70548 33.3015C8.82324 32.0547 8.94689 30.8079 9.07937 29.5626C9.15296 28.8702 9.18682 28.1735 9.3561 27.4929C9.63725 26.3546 10.3291 25.6432 11.4817 25.3806C11.8129 25.3058 12.1382 25.2119 12.4694 25.1386C12.9065 25.0418 13.1156 25.2339 13.0773 25.674C12.9095 27.6058 12.7476 29.5391 12.5798 31.4709C12.5179 32.1764 12.4561 32.882 12.3752 33.5861C12.2442 34.7273 12.1661 35.8729 12.1043 37.0185C12.0896 37.2928 12.2339 37.3837 12.4635 37.2385C12.7535 37.0566 13.0111 37.0302 13.2628 37.284C13.4895 37.5128 13.5366 37.8751 13.3423 38.1934C13.0449 38.6818 12.6534 39.1072 12.1985 39.4446C11.7834 39.7526 11.3772 40.0929 10.8531 40.2352C10.5985 40.3042 10.3497 40.3804 10.098 40.3672H10.0936Z" fill="#C084FC"/>
</g>
</g>
<defs>
<clipPath id="clip0_100_22">
<rect width="40" height="41" fill="white" transform="translate(0 0.5)"/>
</clipPath>
</defs>
</svg>
