<svg width="40" height="41" viewBox="0 0 40 41" fill="none" xmlns="http://www.w3.org/2000/svg">
<path d="M20.6192 11.416C20.5129 11.1904 20.3795 10.9812 20.2189 10.7884C19.8277 10.3165 19.3821 9.86685 18.8814 9.43941C18.6532 9.24504 18.4251 9.08691 18.1953 8.96584C18.1682 8.95184 18.1657 8.93372 18.1871 8.91231L20.5796 6.52061C20.601 6.4992 20.634 6.49426 20.6612 6.50826C21.6322 7.0197 22.6172 7.8367 23.0677 8.85795C23.0949 8.91972 23.0841 8.97408 23.0364 9.02185L20.6389 11.4193C20.634 11.4243 20.6266 11.4243 20.6216 11.4193C20.6208 11.4185 20.62 11.4177 20.6192 11.416ZM26.1644 14.9747C25.6776 16.9242 24.4974 18.279 22.6254 19.0383C22.6032 19.0474 22.5785 19.0367 22.5694 19.0144C22.5669 19.0095 22.5661 19.0037 22.5661 18.998V17.2709C22.5661 17.2347 22.548 17.2165 22.5126 17.2165H18.7257C18.692 17.2165 18.6755 17.233 18.6763 17.266V18.9337C18.6763 18.9765 18.6565 18.9897 18.6178 18.9724C16.4699 18.0558 15.1275 16.0981 15.1168 13.7591C15.111 12.3689 15.1118 10.9383 15.1192 9.46741C15.1192 9.45176 15.1266 9.44435 15.1415 9.44435H18.4959C18.5083 9.44517 18.5182 9.45505 18.5182 9.46658C18.5289 10.7563 18.5281 12.0642 18.5149 13.3902C18.5099 13.8917 18.547 14.2557 18.6252 14.4814C19.3146 16.4712 22.123 16.4695 22.7835 14.4559C22.8585 14.2277 22.8939 13.9189 22.8914 13.5285C22.8815 12.1498 22.8807 10.7942 22.8898 9.46247C22.8898 9.45423 22.8964 9.44764 22.9046 9.44764H26.2385C26.2657 9.44682 26.2788 9.46 26.2788 9.48717V14.0779C26.2788 14.105 26.2895 14.1273 26.3118 14.1446C26.5259 14.3068 26.7475 14.3472 26.9772 14.2648C27.2877 14.1528 27.4426 13.9173 27.4434 13.5582C27.4434 12.3071 27.4434 10.9515 27.4409 9.49212C27.4409 9.45752 27.4582 9.44023 27.492 9.44023H30.7913C30.8267 9.44023 30.8456 9.45835 30.8473 9.49376C30.8539 9.61071 30.8522 10.9441 30.8432 13.4948C30.8415 13.8374 30.9535 14.1231 31.2953 14.2533C31.535 14.3447 31.7681 14.3002 31.9945 14.1207C32.0143 14.1042 32.0258 14.0803 32.0258 14.0548V9.46741C32.0258 9.44682 32.0423 9.42952 32.0629 9.42952H35.3778C35.4075 9.42952 35.4223 9.44435 35.4223 9.474C35.4182 10.9079 35.4198 12.2865 35.4273 13.6092C35.4297 14.2006 36.0828 14.5004 36.5589 14.1347C36.5819 14.1174 36.5951 14.0902 36.5951 14.0614V9.46329C36.5951 9.44764 36.6025 9.44023 36.6173 9.44023H39.9726C39.9899 9.44023 39.999 9.44929 39.999 9.46741V17.5147C39.9998 17.5468 39.9842 17.5624 39.952 17.5624H36.6379C36.6091 17.5624 36.5943 17.5476 36.5943 17.5188L36.5959 15.3816C36.5959 15.3033 36.5762 15.2968 36.5342 15.3635C36.1512 15.9812 35.8399 16.6491 35.3062 17.2075C34.5353 18.0154 33.4959 18.0352 32.8923 17.0263C32.515 16.3971 32.3223 15.6797 32.1477 14.9607C32.1387 14.9229 32.1189 14.9163 32.0893 14.941C32.0258 14.9929 31.9731 15.053 31.9319 15.1222C31.3678 16.0751 30.5994 17.5229 29.42 17.7659C28.1171 18.0327 27.4294 16.7455 26.9097 15.8197C26.7368 15.5117 26.5078 15.1551 26.2245 14.9533C26.194 14.9311 26.1734 14.9385 26.1644 14.9747ZM18.9489 17.5509H22.2927C22.3091 17.5509 22.3232 17.5649 22.3232 17.5814V27.0049C22.3232 27.0214 22.3091 27.0354 22.2927 27.0354H18.9489C18.9324 27.0354 18.9184 27.0214 18.9184 27.0049V17.5814C18.9184 17.5649 18.9324 17.5509 18.9489 17.5509ZM14.6761 25.0546C14.6761 24.8693 14.6416 24.8627 14.5732 25.0349C14.4702 25.2951 14.3558 25.5529 14.2298 25.8074C13.6689 26.9415 12.6608 27.3796 11.4444 27.3821C9.52621 27.3854 7.65337 27.3837 5.82583 27.378C5.49063 27.3771 5.21473 27.4158 4.99977 27.4949C4.02876 27.8515 3.42837 28.8316 3.43825 29.8734C3.4539 31.6063 4.37302 32.9981 5.83571 33.8654C5.9016 33.9041 5.89666 33.9238 5.82006 33.9238C4.49656 33.9238 3.1747 33.9238 1.85367 33.9238C1.67248 33.9238 1.58682 33.816 1.47152 33.699C0.470859 32.6786 0.0549475 31.4226 0.00388504 29.9772C-0.0142339 29.4476 0.0310635 28.9485 0.138954 28.4799C0.684992 26.1195 2.97704 23.9889 5.46016 23.9798C6.85449 23.9757 8.38966 23.9749 10.0649 23.979C10.0929 23.979 10.1069 23.965 10.1069 23.9378V22.2684C10.1069 22.2437 10.0945 22.2314 10.0706 22.2314H4.41091C4.38702 22.2314 4.36726 22.2116 4.36726 22.1877V18.8769C4.36726 18.8448 4.38373 18.8283 4.41667 18.8283H13.477C13.4959 18.8283 13.5108 18.8431 13.5108 18.8612C13.5083 20.3659 13.5091 21.8196 13.5124 23.2221C13.5124 23.4247 13.6318 23.6356 13.7974 23.7476C14.0749 23.937 14.3558 23.928 14.6399 23.7196C14.6638 23.7023 14.6761 23.6784 14.6761 23.6496V18.9996C14.6761 18.9823 14.6893 18.9683 14.7074 18.9683H18.0512C18.0669 18.9675 18.0792 18.9807 18.0792 18.9963V27.0889C18.0792 27.1259 18.0611 27.1449 18.024 27.1449H14.7033C14.6877 27.1441 14.6753 27.1317 14.6753 27.1169L14.6761 25.0546ZM19.8384 31.1047C19.4431 30.9705 18.9555 30.9943 18.5429 31.052C17.7012 31.1698 16.8331 31.407 15.9387 31.7644C15.6612 31.8756 15.4001 32.0065 15.1555 32.1581C15.1291 32.1745 15.1159 32.1671 15.1159 32.1367V29.8026C15.1168 29.773 15.1275 29.7483 15.1489 29.7285C15.237 29.6486 15.3301 29.5761 15.4289 29.5127C16.7096 28.6883 18.1747 28.3984 19.8227 28.643C19.8499 28.6471 19.8631 28.6628 19.8631 28.6899V31.0874C19.8631 31.0973 19.8549 31.1055 19.8442 31.1055C19.8417 31.1055 19.84 31.1055 19.8384 31.1047ZM8.46049 32.7618C8.46049 32.5559 8.43084 32.2783 8.13352 32.3755C7.66161 32.5303 7.11392 32.6852 6.68154 32.9314C6.66424 32.9413 6.65518 32.9364 6.65518 32.9158V30.59C6.65518 30.5142 6.68813 30.4574 6.75401 30.4203C8.51567 29.4254 10.573 29.1339 12.5752 29.3949C12.6106 29.399 12.6287 29.4196 12.6287 29.4551V31.8097C12.6287 31.8484 12.6106 31.8608 12.5735 31.8484C12.2746 31.7438 11.8661 31.7685 11.5572 31.8105C11.2994 31.8459 11.1174 32.0881 11.1207 32.35C11.1265 32.7585 11.1281 33.1579 11.124 33.5483C11.124 33.5771 11.1084 33.5936 11.0795 33.5977C10.2074 33.7056 9.34996 33.9156 8.50661 34.2269C8.47449 34.2385 8.45884 34.2269 8.45884 34.1932C8.45884 33.7361 8.45884 33.2584 8.46049 32.7618Z" fill="#C084FC"/>
</svg>
