<svg width="40" height="41" viewBox="0 0 40 41" fill="none" xmlns="http://www.w3.org/2000/svg">
<g clip-path="url(#clip0_100_36)">
<path d="M22.83 24.7192C22.8828 24.7539 22.935 24.7881 22.9878 24.8228C23.4595 25.1323 23.629 25.5811 23.5711 26.1135C23.5127 26.6539 23.2208 27.0408 22.6912 27.225C22.3844 27.3316 22.07 27.311 21.7678 27.1938C21.6331 27.1414 21.5066 27.1394 21.3765 27.1938C20.5314 27.546 19.5045 26.9402 19.5767 25.8538C19.6177 25.242 19.9942 24.7781 20.5678 24.6397C20.8807 24.5642 21.1844 24.6085 21.4774 24.7308C21.5552 24.763 21.6187 24.762 21.6976 24.7328C21.8303 24.684 21.9706 24.6538 22.1073 24.615C22.1283 24.609 22.1488 24.5994 22.1913 24.5833C22.115 24.5451 22.0577 24.5179 22.0018 24.4877C21.6659 24.3056 21.4036 24.0444 21.1875 23.7375C21.1327 23.66 21.0866 23.6469 20.9975 23.6832C20.3455 23.9488 19.693 24.213 19.0374 24.4701C18.7214 24.5939 18.3936 24.6764 18.0479 24.6638C17.5977 24.6472 17.2597 24.4767 17.1143 24.0288C17.1081 24.0097 17.0989 23.9916 17.0897 23.9735C17.0861 23.9664 17.0794 23.9614 17.0625 23.9418C16.9458 23.974 16.8213 24.0082 16.6979 24.0434C15.4912 24.3871 14.2666 24.6467 13.0139 24.7454C12.1437 24.8138 11.2725 24.8978 10.3967 24.8309C9.38568 24.7534 8.46019 24.4661 7.68273 23.7999C7.42409 23.578 7.20437 23.3229 7.08964 23.0019C6.95955 22.6401 6.98875 22.2652 7.06557 21.8969C7.22281 21.1422 7.6981 20.6118 8.33267 20.1972C8.98465 19.771 9.70834 19.5144 10.4648 19.3464C10.9499 19.2387 11.4497 19.1909 11.9296 19.0666C12.2815 18.975 12.6364 18.9574 12.9908 18.9167C13.861 18.816 14.7081 18.6077 15.5552 18.3974C16.0141 18.2837 16.47 18.1544 16.9335 18.0628C17.4318 17.9642 17.9327 17.8585 18.45 17.9259C19.0349 18.0024 19.5296 18.2318 19.8764 18.7169C20.0223 18.9212 20.0833 19.1496 20.03 19.4017C20.0008 19.5411 19.9117 19.6166 19.7801 19.6523C19.7253 19.6669 19.6679 19.679 19.6116 19.681C18.618 19.7142 17.6525 19.9144 16.7045 20.1892C15.7734 20.4589 14.8536 20.7668 13.9276 21.0541C13.4011 21.2176 12.8679 21.3545 12.3127 21.3782C11.9655 21.3932 11.6741 21.2891 11.5081 20.9646C11.4671 20.884 11.4482 20.7905 11.4328 20.7009C11.4154 20.5993 11.4134 20.4946 11.4026 20.3728C11.2812 20.4106 11.1706 20.4443 11.061 20.4795C10.5601 20.641 10.0572 20.8015 9.62383 21.1069C9.47069 21.2151 9.34419 21.3605 9.20847 21.4919C9.13164 21.5663 9.15623 21.6403 9.21922 21.7138C9.38619 21.908 9.61 22.0106 9.84406 22.0992C10.954 22.5193 12.1084 22.4886 13.2643 22.4222C14.4059 22.3568 15.5266 22.1691 16.6103 21.7978C17.1219 21.6227 17.6131 21.4088 18.029 21.0576C18.2 20.9132 18.389 20.8463 18.6159 20.8745C18.6554 20.8795 18.7281 20.8378 18.7414 20.8015C18.8536 20.5026 19.0682 20.3019 19.3442 20.1484C20.0551 19.7534 20.8023 19.447 21.6039 19.2865C22.1509 19.1773 22.7035 19.1214 23.2536 19.2784C23.7304 19.4148 24.0925 19.6759 24.2057 20.1801C24.2989 20.5952 24.2062 20.9822 23.9496 21.3188C23.7616 21.5653 23.5435 21.7897 23.3396 22.0242C23.3145 22.0529 23.2925 22.0836 23.2694 22.1138C23.2771 22.1223 23.2848 22.1309 23.2925 22.1394C23.3627 22.0901 23.4431 22.0509 23.5009 21.9905C23.6515 21.833 23.7965 21.6705 23.9342 21.5024C24.031 21.3842 24.1176 21.2564 24.199 21.1271C24.5161 20.6269 25.2787 20.5238 25.7463 20.872C25.926 21.0058 26.0024 21.1885 26.0039 21.4048C26.0059 21.6715 25.9086 21.915 25.8205 22.1611C25.8072 22.1983 25.7944 22.2356 25.7709 22.302C25.8369 22.2778 25.8805 22.2652 25.9209 22.2461C26.2492 22.0911 26.5212 21.8612 26.7834 21.6192C27.021 21.3993 27.2551 21.1754 27.4999 20.963C27.5834 20.8906 27.6899 20.8378 27.7939 20.795C27.9783 20.7195 28.1611 20.7331 28.3306 20.8458C28.3906 20.8856 28.4515 20.9238 28.5329 20.9766C28.5468 20.8589 28.5606 20.7618 28.5693 20.6642C28.6687 19.5713 28.6994 18.4779 28.5867 17.3835C28.5678 17.2009 28.5709 17.0152 28.5714 16.831C28.5719 16.6781 28.6605 16.5704 28.7983 16.5165C28.9299 16.4652 29.0712 16.4386 29.208 16.3978C29.5516 16.2962 29.8958 16.1975 30.2374 16.0894C30.5524 15.9892 30.7962 16.1447 30.8172 16.4708C30.8705 17.301 30.8648 18.1307 30.7988 18.9599C30.7921 19.043 30.7895 19.126 30.7849 19.2221C30.8346 19.215 30.8694 19.2115 30.9038 19.205C31.7319 19.0465 32.4474 19.4067 32.7906 20.1695C33.0758 20.804 33.0559 21.4561 32.8233 22.0947C32.5068 22.9636 31.9803 23.6877 31.1614 24.1692C30.6359 24.4782 30.0623 24.617 29.4584 24.4414C29.2336 24.376 29.0554 24.3312 28.8802 24.5285C28.8121 24.605 28.6948 24.6085 28.5934 24.5587C28.3061 24.4168 28.0167 24.2779 27.733 24.1295C27.6121 24.0666 27.5926 23.9398 27.5752 23.8185C27.5685 23.7717 27.5619 23.7249 27.5491 23.6349C27.0605 24.1692 26.5386 24.5989 25.7842 24.6981C25.8999 24.7962 25.9865 24.8656 26.0684 24.9396C26.7455 25.5474 26.6272 26.7666 25.7499 27.1681C25.041 27.4927 24.1565 27.1877 23.9112 26.3147C23.694 25.5429 24.1739 24.8661 24.7322 24.6845C24.7388 24.6825 24.744 24.6744 24.7486 24.6699C24.578 24.4721 24.407 24.2749 24.2282 24.0676C23.8303 24.3972 23.3857 24.6558 22.83 24.7192ZM24.3496 23.6323C24.3665 23.6917 24.3783 23.734 24.3901 23.7763C24.5038 24.1833 24.8336 24.456 25.2305 24.4661C25.5773 24.4752 25.9117 24.4143 26.2374 24.2955C26.6712 24.137 27.0036 23.8452 27.3176 23.5252C27.482 23.3581 27.6541 23.1981 27.8241 23.0366C27.8533 23.0089 27.8912 22.9903 27.925 22.9677L27.9527 22.9893C27.9194 23.0909 27.8856 23.1926 27.8528 23.2942C27.8123 23.42 27.7627 23.5438 27.7381 23.6726C27.7289 23.7219 27.7621 23.8064 27.8041 23.8336C27.9942 23.9564 28.1862 24.0817 28.3926 24.1733C28.786 24.3479 28.7122 24.3821 29.0216 24.0485C29.0769 23.9891 29.1102 23.9997 29.1752 24.0258C29.3519 24.0963 29.5296 24.1798 29.715 24.2095C30.199 24.287 30.6559 24.1692 31.061 23.9141C32.007 23.3194 32.6118 22.4866 32.8013 21.3852C32.8833 20.9092 32.8013 20.4594 32.5452 20.0438C32.2446 19.5552 31.6495 19.1999 31.0052 19.3459C30.871 19.376 30.7378 19.4108 30.5944 19.4455C30.5944 19.4088 30.5918 19.3816 30.5944 19.3549C30.6999 18.3954 30.7158 17.4343 30.6636 16.4713C30.6523 16.267 30.512 16.1694 30.3122 16.2302C30.0203 16.3193 29.7309 16.4169 29.4379 16.503C29.2782 16.5498 29.1102 16.5704 28.9509 16.6202C28.7609 16.6796 28.7265 16.7354 28.7265 16.9281C28.7265 17.0202 28.7296 17.1128 28.7378 17.2044C28.8454 18.3541 28.8577 19.5039 28.7143 20.6516C28.682 20.9107 28.6216 21.1668 28.5739 21.4239C28.5611 21.4244 28.5483 21.4255 28.5355 21.426C28.5104 21.3651 28.4863 21.3042 28.4597 21.2443C28.3009 20.8861 28.0116 20.7884 27.694 21.0204C27.44 21.2061 27.2152 21.4305 26.9826 21.6438C26.6984 21.9045 26.4105 22.1591 26.0628 22.3377C25.902 22.4202 25.7319 22.4373 25.5306 22.4127C25.5604 22.3025 25.5814 22.2023 25.6146 22.1057C25.6807 21.9125 25.7657 21.7243 25.8205 21.5281C25.8743 21.3344 25.8338 21.1542 25.6659 21.0169C25.2659 20.6903 24.6323 20.7764 24.3368 21.198C24.2164 21.3696 24.1012 21.5457 23.9726 21.7107C23.7068 22.0519 23.3749 22.314 22.9591 22.4585C22.852 22.4957 22.7342 22.5047 22.6216 22.5264C22.6098 22.5113 22.5975 22.4962 22.5857 22.4816C22.6251 22.4132 22.6492 22.3276 22.7061 22.2793C22.9519 22.0685 23.2085 21.8698 23.4595 21.6645C23.7094 21.4602 23.8943 21.2101 23.9993 20.9052C24.2405 20.2073 23.9522 19.6317 23.231 19.4349C22.9683 19.3635 22.6815 19.3323 22.409 19.3449C21.2423 19.3997 20.1934 19.8178 19.2131 20.4156C18.9201 20.5942 18.8075 20.958 18.9191 21.2745C18.9852 21.4622 19.1194 21.6046 19.2782 21.7218C19.441 21.8421 19.6121 21.9523 19.7775 22.0695C19.8308 22.1072 19.8794 22.1515 19.9435 22.2039C19.5225 22.3779 19.1035 22.4338 18.6595 22.4761C18.6989 22.3664 18.7291 22.2798 18.7604 22.1938C18.8541 21.9392 18.9278 21.6811 18.8863 21.4058C18.8592 21.2267 18.7726 21.0883 18.5893 21.0295C18.4321 20.9791 18.303 21.0471 18.1801 21.1336C17.9942 21.2639 17.8154 21.4068 17.6193 21.5195C16.9847 21.8833 16.2856 22.0801 15.5783 22.2486C14.6057 22.4801 13.6162 22.5812 12.6175 22.6049C11.7248 22.6255 10.8377 22.5923 9.97671 22.3181C9.67402 22.2215 9.39182 22.0921 9.16032 21.8763C8.92422 21.6564 8.90475 21.4491 9.12294 21.2136C9.27761 21.0471 9.46096 20.8981 9.65302 20.7738C10.1324 20.4639 10.6764 20.2994 11.2203 20.1383C11.3432 20.1021 11.4671 20.0679 11.6116 20.0266C11.6008 20.1036 11.5916 20.158 11.5865 20.2128C11.5696 20.3924 11.5409 20.5741 11.6341 20.7432C11.7806 21.0103 12.0321 21.123 12.3767 21.0924C12.9335 21.0425 13.4682 20.9006 13.9983 20.7351C14.9196 20.4473 15.8374 20.1464 16.765 19.8792C17.7058 19.6085 18.6666 19.4228 19.65 19.3776C19.8492 19.3685 19.9465 19.2503 19.8702 19.0661C19.8057 18.9101 19.7176 18.7516 19.6013 18.6299C19.2592 18.2721 18.8213 18.103 18.326 18.0658C17.8093 18.0271 17.313 18.1453 16.8172 18.255C16.2364 18.3838 15.6597 18.5317 15.0815 18.6716C14.2205 18.8799 13.355 19.0641 12.4669 19.1169C12.3819 19.1219 12.2968 19.1325 12.2134 19.1496C11.9424 19.2055 11.6746 19.2815 11.4016 19.3207C10.5437 19.4435 9.71141 19.6483 8.93395 20.0327C8.43407 20.2797 7.97262 20.5801 7.63305 21.0305C7.35648 21.3968 7.2013 21.8074 7.1634 22.2637C7.1255 22.7246 7.31551 23.0914 7.63408 23.4059C8.32447 24.0882 9.18132 24.4344 10.1391 24.5099C10.7675 24.5597 11.4036 24.5471 12.0351 24.5235C13.6382 24.4646 15.207 24.1929 16.7419 23.7355C16.8966 23.6892 17.0518 23.6439 17.2162 23.5951C17.2249 23.6459 17.2305 23.6807 17.2372 23.7154C17.3104 24.1083 17.4876 24.289 17.8871 24.3614C18.2318 24.4238 18.5647 24.3524 18.8817 24.2286C19.61 23.9448 20.3332 23.6484 21.0569 23.3536C21.1347 23.3219 21.1747 23.3294 21.2274 23.3989C21.3565 23.5689 21.4886 23.7385 21.6382 23.891C21.8892 24.1476 22.1862 24.3312 22.555 24.3846C23.0584 24.4575 23.4866 24.2824 23.8805 23.9992C24.0372 23.8864 24.1852 23.7617 24.3511 23.6313L24.3496 23.6323ZM20.8674 24.7584C20.5565 24.7544 20.2948 24.8716 20.0741 25.0795C19.7084 25.4236 19.6285 26.0123 19.883 26.444C20.1478 26.8934 20.704 27.1304 21.2121 26.9487C21.4753 26.8546 21.6853 26.8738 21.9435 26.9487C22.871 27.2174 23.5716 26.4139 23.3893 25.6249C23.2198 24.8908 22.3629 24.531 21.6817 24.9054C21.6116 24.9436 21.5614 24.9456 21.4917 24.9099C21.2971 24.8108 21.0886 24.7574 20.8674 24.7584ZM25.1803 27.0041C25.7519 27.0353 26.3199 26.5417 26.3388 25.9283C26.3588 25.2762 25.8313 24.7524 25.1793 24.7504C24.5606 24.7484 24.0259 25.2646 24.0228 25.875C24.0198 26.4667 24.5519 27.0292 25.1803 27.0041ZM19.0405 21.8833C19.0108 22.0318 18.9872 22.15 18.9575 22.2969C19.1363 22.2587 19.2884 22.226 19.4405 22.1938C19.4415 22.1827 19.4426 22.1716 19.4436 22.1611C19.3166 22.0735 19.1895 21.9865 19.0405 21.8833Z" fill="#C084FC"/>
<path d="M12.002 18.5015C12.0174 18.2404 12.0133 17.9949 12.0492 17.7553C12.1265 17.2391 12.2965 16.752 12.5987 16.3168C12.9741 15.7764 13.4622 15.392 14.1321 15.2692C14.8722 15.1338 15.4617 14.7419 15.9846 14.2332C16.0107 14.208 16.0374 14.1829 16.0645 14.1587C16.0696 14.1542 16.0789 14.1547 16.0968 14.1501C16.0968 14.3469 16.1152 14.5426 16.0937 14.7343C16.0184 15.4015 15.8074 16.0234 15.412 16.5774C14.9526 17.221 14.3385 17.6784 13.62 18.0094C13.1452 18.2283 12.6479 18.3798 12.1352 18.4854C12.104 18.492 12.0717 18.4935 12.002 18.5015Z" fill="#C084FC"/>
<path d="M16.2432 15.1776C16.2524 15.9631 16.0388 16.675 15.518 17.2793C15.0601 17.8097 14.4629 18.1322 13.7935 18.328C13.497 18.4145 13.1912 18.4703 12.8895 18.5383C12.8506 18.5468 12.8091 18.5443 12.7666 18.5413C14.6084 18.1005 15.8452 17.0585 16.2432 15.1776Z" fill="#C084FC"/>
<path d="M17.569 23.1674C17.3631 23.2369 17.1889 23.3048 17.0097 23.3541C16.413 23.5186 15.8184 23.6912 15.2166 23.8346C14.1866 24.0802 13.1367 24.1944 12.0786 24.2492C11.4302 24.2829 10.7823 24.3081 10.1344 24.2387C9.32159 24.1516 8.59943 23.8638 7.96179 23.3541C7.49213 22.9792 7.35949 22.5254 7.52031 21.9628C7.73133 21.2247 8.22095 20.721 8.88216 20.3527C9.59202 19.9572 10.3603 19.7388 11.1618 19.6251C11.4645 19.5823 11.7697 19.5577 12.0734 19.5215C12.1149 19.5164 12.1708 19.5033 12.1907 19.4747C12.2481 19.3921 12.3239 19.3846 12.414 19.3821C13.1725 19.3599 13.9152 19.2286 14.6512 19.057C15.4291 18.8759 16.2035 18.6797 16.9805 18.495C17.4245 18.3898 17.8727 18.3058 18.3331 18.3435C18.8002 18.3813 19.2012 18.5544 19.4993 18.9232C19.5393 18.9725 19.5705 19.0279 19.6171 19.0978C19.5546 19.1064 19.5126 19.1154 19.4701 19.1184C18.4571 19.1889 17.4655 19.3806 16.4955 19.6689C15.5741 19.9426 14.6604 20.2415 13.7426 20.5273C13.2668 20.6757 12.7843 20.794 12.2834 20.8181C12.2035 20.8222 12.1144 20.8176 12.0442 20.7859C11.9341 20.7361 11.8655 20.6496 11.8573 20.5137C11.8404 20.2355 11.9469 19.9869 12.0238 19.7303C12.0294 19.7112 12.0355 19.692 12.0391 19.6724C12.0402 19.6659 12.0335 19.6583 12.0238 19.6347C11.9577 19.6503 11.8886 19.6654 11.8204 19.684C11.1792 19.8586 10.5364 20.0277 9.93312 20.3109C9.6079 20.4634 9.2924 20.634 9.03683 20.8891C8.94362 20.9822 8.85911 21.0893 8.79304 21.2025C8.63017 21.4813 8.66038 21.7324 8.87037 21.9809C9.05833 22.2033 9.30776 22.3352 9.57152 22.4494C10.3183 22.7729 11.1085 22.8615 11.9131 22.8771C13.2212 22.9022 14.516 22.7951 15.7877 22.4826C16.5339 22.2995 17.2663 22.0755 17.9213 21.6634C18.0827 21.5623 18.2378 21.4496 18.3843 21.3288C18.476 21.2529 18.52 21.273 18.5702 21.3636C18.6578 21.5226 18.6261 21.6841 18.5805 21.8426C18.54 21.985 18.4847 22.1233 18.4361 22.2637C18.4217 22.3055 18.4043 22.3468 18.3935 22.389C18.3331 22.628 18.4227 22.7639 18.6691 22.7443C18.9769 22.7196 19.2832 22.6658 19.5859 22.6049C19.7595 22.5702 19.9346 22.5143 20.0919 22.4358C20.2973 22.3332 20.3213 22.2079 20.16 22.0464C20.013 21.8994 19.8322 21.7852 19.6652 21.6579C19.5623 21.5794 19.4501 21.511 19.3549 21.4239C19.0655 21.1603 19.0911 20.8116 19.4261 20.6073C19.6714 20.4579 19.9305 20.328 20.1907 20.2038C20.7218 19.9502 21.2786 19.7685 21.8619 19.6739C22.3198 19.5995 22.7792 19.5647 23.2309 19.7162C23.6755 19.8651 23.864 20.2063 23.7728 20.6596C23.7006 21.0194 23.4911 21.2856 23.214 21.5095C23.0061 21.6775 22.7843 21.8295 22.5836 22.0051C22.4791 22.0962 22.3915 22.2134 22.3229 22.3332C22.1938 22.5586 22.2983 22.7422 22.5595 22.7684C22.9339 22.8061 23.2622 22.699 23.5674 22.4831C23.9582 22.2069 24.246 21.8451 24.4944 21.4511C24.6563 21.195 24.8781 21.0798 25.1766 21.0908C25.3247 21.0964 25.4496 21.1593 25.5285 21.277C25.5623 21.3273 25.5633 21.4189 25.5428 21.4803C25.4788 21.674 25.3964 21.8622 25.3236 22.0534C25.2939 22.1319 25.2647 22.2119 25.2448 22.2934C25.1961 22.4912 25.2919 22.6401 25.4942 22.6909C25.6801 22.7377 25.8583 22.7055 26.0335 22.6401C26.4151 22.4972 26.7265 22.2522 27.0209 21.984C27.2724 21.755 27.5142 21.5155 27.7733 21.2956C28.0115 21.0939 28.16 21.1407 28.2312 21.4426C28.2747 21.6277 28.2696 21.8245 28.2896 22.0152C28.3024 22.1384 28.3152 22.2627 28.3428 22.383C28.3521 22.4232 28.4033 22.47 28.4442 22.4811C28.4678 22.4876 28.5226 22.4348 28.5416 22.3981C28.7213 22.0438 28.8243 21.6645 28.897 21.277C29.1382 20.0015 29.1408 18.7169 29.0445 17.4288C29.0332 17.2809 29.0189 17.1334 29.0046 16.9855C28.9984 16.9226 29.0102 16.8829 29.0845 16.8627C29.5044 16.7475 29.9224 16.6262 30.3413 16.5075C30.3526 16.5045 30.3649 16.505 30.3915 16.5025C30.4238 17.6658 30.4335 18.8241 30.2087 20.0045C30.2773 19.9653 30.3152 19.9456 30.351 19.9225C30.6102 19.7564 30.8822 19.6161 31.1951 19.5914C31.7134 19.5506 32.1789 19.8561 32.4038 20.3658C32.6322 20.884 32.5902 21.4028 32.3823 21.9105C32.1339 22.5178 31.7723 23.0527 31.2453 23.4658C30.9103 23.7285 30.5318 23.9061 30.1031 23.9524C29.7431 23.9916 29.4163 23.889 29.1311 23.6676C28.9892 23.5579 28.9902 23.5559 28.8914 23.7098C28.8412 23.7878 28.7961 23.8693 28.7403 23.9428C28.7213 23.9675 28.666 23.9946 28.645 23.9846C28.4294 23.8824 28.2168 23.7732 27.9997 23.6635C28.0622 23.5191 28.119 23.3913 28.1728 23.2625C28.2302 23.1252 28.2199 22.9888 28.16 22.8539C28.0765 22.6668 27.8445 22.6114 27.695 22.7543C27.4583 22.9812 27.2253 23.2117 26.9999 23.4492C26.5856 23.8854 26.076 24.1204 25.4768 24.1919C24.9856 24.2502 24.6604 23.9861 24.6112 23.4718C24.5964 23.3174 24.583 23.1629 24.5661 22.9762C24.5154 23.023 24.4842 23.0487 24.4571 23.0779C24.1912 23.3611 23.9311 23.6505 23.5961 23.8588C23.2227 24.0912 22.8253 24.2085 22.3859 24.0615C22.0934 23.9639 21.8752 23.7657 21.6852 23.5357C21.572 23.3989 21.4578 23.2615 21.3615 23.1131C21.2862 22.9973 21.2156 22.9898 21.0916 23.0406C20.4637 23.2998 19.8353 23.5604 19.1982 23.7964C18.8483 23.9262 18.4842 24.0243 18.1201 24.1088C17.7206 24.2019 17.4757 23.973 17.5157 23.571C17.5285 23.4447 17.5475 23.3189 17.5674 23.1659L17.569 23.1674ZM29.674 22.6617C29.6765 22.6723 29.6786 22.6829 29.6811 22.6934C29.9582 22.6341 30.2466 22.6044 30.5098 22.5083C30.9031 22.3644 31.2197 22.1143 31.3421 21.6921C31.3948 21.511 31.3262 21.3575 31.1587 21.2644C31.0117 21.1829 30.854 21.1512 30.6875 21.1859C30.4412 21.2373 30.2558 21.3862 30.0888 21.5598C29.845 21.8134 29.6837 22.1193 29.527 22.4278C29.4066 22.6648 29.4076 22.6658 29.674 22.6617ZM21.7016 21.121C21.4138 21.1286 21.1669 21.2322 20.9267 21.351C20.9021 21.3631 20.8832 21.4244 20.8919 21.4546C20.9134 21.5266 20.9533 21.5935 20.9846 21.6629C21.1101 21.9447 21.1106 21.9462 21.3789 21.7762C21.5787 21.6499 21.7431 21.4939 21.8015 21.2554C21.825 21.1598 21.8046 21.1039 21.7016 21.121Z" fill="#C084FC"/>
<path d="M22.2386 26.7293C22.0301 26.749 21.8488 26.6403 21.6808 26.509C21.6009 26.4461 21.5502 26.4355 21.4642 26.51C21.1845 26.7525 20.8598 26.8099 20.5208 26.6529C20.1904 26.4999 20.0101 26.2297 20.0137 25.8669C20.0173 25.5243 20.194 25.2707 20.5018 25.1177C20.7984 24.9703 21.0928 24.9904 21.3699 25.1796C21.5065 25.2728 21.6433 25.2732 21.7802 25.1806C22.0921 24.9698 22.4946 24.9758 22.7855 25.1957C23.1016 25.4342 23.2188 25.8 23.0939 26.1588C22.973 26.5064 22.6396 26.7339 22.2386 26.7293Z" fill="#C084FC"/>
<path d="M25.1684 26.7314C24.6763 26.7399 24.285 26.2991 24.3055 25.8533C24.3275 25.3758 24.7597 24.9934 25.2238 25.0241C25.718 25.0568 26.0898 25.4679 26.0565 25.9444C26.0248 26.3917 25.611 26.758 25.1684 26.7314Z" fill="#C084FC"/>
<path d="M39.9993 20.722C39.9993 20.717 39.9998 20.7124 40.0003 20.7074H39.9988C39.989 20.5107 39.944 20.3195 39.8646 20.1388C39.7872 19.9632 39.6812 19.8042 39.5486 19.6653V17.5752H38.7414C38.5975 17.5752 38.4807 17.4605 38.4807 17.3191V15.2853H38.2758C38.1893 15.2853 38.1191 15.2163 38.1191 15.1313V14.6613H34.0945V14.8626C34.0945 15.0463 33.9424 15.1952 33.756 15.1952H30.9463V15.5977H33.756C34.0976 15.5977 34.3865 15.3718 34.4761 15.0639H37.7099V15.1313C37.7099 15.3673 37.86 15.569 38.0715 15.6501V17.3191C38.0715 17.6824 38.3721 17.9777 38.7419 17.9777H39.1394V19.8344L39.2029 19.8938C39.3258 20.009 39.4221 20.1454 39.4892 20.2983C39.5486 20.4332 39.5813 20.5756 39.5895 20.722C39.5813 20.8684 39.5486 21.0108 39.4892 21.1457C39.4221 21.2986 39.3258 21.4345 39.2029 21.5502L39.1394 21.6096V23.4663H38.7419C38.3721 23.4663 38.0715 23.7616 38.0715 24.1249V25.7939C37.86 25.8749 37.7099 26.0767 37.7099 26.3127V26.3801H34.4761C34.387 26.0722 34.0981 25.8463 33.756 25.8463H30.9463V26.2488H33.756C33.9429 26.2488 34.0945 26.3982 34.0945 26.5814V26.7826H38.1191V26.3127C38.1191 26.2277 38.1893 26.1587 38.2758 26.1587H38.4807V24.1249C38.4807 23.9835 38.5975 23.8688 38.7414 23.8688H39.5486V21.7786C39.6817 21.6398 39.7877 21.4813 39.8646 21.3057C39.944 21.125 39.9885 20.9338 39.9988 20.7371H40.0003C40.0003 20.7321 39.9998 20.7265 39.9993 20.722Z" fill="#C084FC"/>
<path d="M37.4949 26.1532H34.6319L34.6247 26.1396C34.4573 25.8236 34.1162 25.6193 33.7551 25.6193H31.0606V25.569H33.7551C34.1356 25.569 34.4818 25.7733 34.6626 26.1029H37.4544C37.5057 25.9117 37.6235 25.7446 37.7884 25.6304V24.1244C37.7884 23.6087 38.2155 23.189 38.7405 23.189H38.8562V21.4913L39.0063 21.3499C39.1016 21.2609 39.1763 21.1552 39.2291 21.036C39.2726 20.9368 39.2982 20.8307 39.3059 20.7205C39.2982 20.6138 39.2726 20.5071 39.2291 20.408C39.1763 20.2888 39.1016 20.1831 39.0063 20.094L38.8557 19.9526V18.2545H38.74C38.215 18.2545 37.7879 17.8353 37.7879 17.3196V15.8136C37.6229 15.6989 37.5051 15.5323 37.4539 15.3411H34.6621C34.4813 15.6707 34.1351 15.875 33.7546 15.875H31.0596V15.8247H33.7546C34.1151 15.8247 34.4567 15.6204 34.6242 15.3044L34.6314 15.2908H37.4944L37.499 15.3099C37.5456 15.5016 37.6624 15.6682 37.8283 15.7794L37.8396 15.7869V17.3191C37.8396 17.8066 38.2437 18.2036 38.7405 18.2036H38.9075V19.931L39.0422 20.0573C39.142 20.1509 39.2209 20.2621 39.2762 20.3874C39.3223 20.492 39.3495 20.6037 39.3571 20.72C39.3495 20.8392 39.3218 20.9514 39.2762 21.0556C39.2209 21.1809 39.142 21.2921 39.0422 21.3857L38.908 21.512V23.2388H38.741C38.2442 23.2388 37.8401 23.6358 37.8401 24.1239V25.6561L37.8288 25.6636C37.6629 25.7748 37.5461 25.9419 37.4995 26.1331L37.4949 26.1532Z" fill="#C084FC"/>
<path d="M0.00102433 20.722C0.00102433 20.717 0.000512164 20.7124 0 20.7074H0.00153649C0.0112676 20.5107 0.056338 20.3195 0.135723 20.1388C0.21306 19.9632 0.319078 19.8042 0.451728 19.6653V17.5752H1.2589C1.40282 17.5752 1.51959 17.4605 1.51959 17.3191V15.2853H1.72446C1.81101 15.2853 1.88118 15.2163 1.88118 15.1313V14.6613H5.90576V14.8626C5.90576 15.0463 6.05787 15.1952 6.2443 15.1952H9.05403V15.5977H6.2443C5.90269 15.5977 5.61383 15.3718 5.5242 15.0639H2.2904V15.1313C2.2904 15.3673 2.14033 15.569 1.92881 15.6501V17.3191C1.92881 17.6824 1.62817 17.9777 1.25839 17.9777H0.860947V19.8344L0.797439 19.8938C0.67452 20.009 0.578233 20.1454 0.511139 20.2983C0.451728 20.4332 0.41895 20.5756 0.410755 20.722C0.41895 20.8684 0.451728 21.0108 0.511139 21.1457C0.578233 21.2986 0.67452 21.4345 0.797439 21.5502L0.860947 21.6096V23.4663H1.25839C1.62817 23.4663 1.92881 23.7616 1.92881 24.1249V25.7939C2.14033 25.8749 2.2904 26.0767 2.2904 26.3127V26.3801H5.5242C5.61332 26.0722 5.90218 25.8463 6.2443 25.8463H9.05403V26.2488H6.2443C6.05736 26.2488 5.90576 26.3982 5.90576 26.5814V26.7826H1.88118V26.3127C1.88118 26.2277 1.81101 26.1587 1.72446 26.1587H1.51959V24.1249C1.51959 23.9835 1.40282 23.8688 1.2589 23.8688H0.451728V21.7786C0.318566 21.6398 0.212548 21.4813 0.135723 21.3057C0.056338 21.125 0.0117798 20.9338 0.00153649 20.7371H0C0 20.7321 0.000512164 20.7265 0.00102433 20.722Z" fill="#C084FC"/>
<path d="M5.36831 26.1532H2.50531L2.5007 26.1341C2.4541 25.9424 2.33732 25.7758 2.17138 25.6646L2.16011 25.6571V24.1249C2.16011 23.6368 1.75602 23.2398 1.25922 23.2398H1.09225V21.513L0.957558 21.3867C0.857686 21.2931 0.778813 21.1819 0.723499 21.0566C0.677405 20.9519 0.65026 20.8402 0.642578 20.724C0.65026 20.6048 0.677405 20.493 0.723499 20.3884C0.778813 20.2626 0.857686 20.1519 0.957558 20.0583L1.09174 19.932V18.2046H1.25871C1.75551 18.2046 2.1596 17.8076 2.1596 17.3201V15.7879L2.17087 15.7804C2.33681 15.6692 2.45358 15.5021 2.50019 15.3109L2.5048 15.2918H5.3678L5.37497 15.3054C5.54245 15.6214 5.88355 15.8257 6.24462 15.8257H8.93963V15.876H6.24462C5.86408 15.876 5.51786 15.6717 5.33707 15.3421H2.54526C2.49405 15.5333 2.37625 15.7004 2.21133 15.8146V17.3206C2.21133 17.8358 1.78419 18.2555 1.25922 18.2555H1.14347V19.9537L0.99341 20.095C0.898147 20.1841 0.823371 20.2898 0.770618 20.409C0.727085 20.5081 0.701476 20.6143 0.693794 20.7245C0.701476 20.8317 0.727085 20.9378 0.770618 21.037C0.823371 21.1562 0.898147 21.2619 0.99341 21.3509L1.14398 21.4923V23.19H1.25973C1.7847 23.19 2.21184 23.6097 2.21184 24.1254V25.6314C2.37676 25.7461 2.49456 25.9127 2.54577 26.1039H5.33758C5.51837 25.7743 5.8646 25.57 6.24513 25.57H8.93963V25.6203H6.24513C5.88457 25.6203 5.54296 25.8246 5.37548 26.1406L5.36831 26.1532Z" fill="#C084FC"/>
<path d="M31.8835 15.8498C31.7709 15.7648 31.6556 15.6808 31.5373 15.5983C31.3432 15.4624 31.1419 15.3306 30.9335 15.2023C28.2344 13.5423 24.3358 12.4998 20.0003 12.4998C11.8538 12.4998 5.25 16.1809 5.25 20.722C5.25 25.2631 11.8538 28.9443 20.0003 28.9443C24.3358 28.9443 28.2344 27.9017 30.9335 26.2418C31.1419 26.1135 31.3432 25.9816 31.5373 25.8458C31.6556 25.7633 31.7709 25.6792 31.8835 25.5942C33.6858 24.2306 34.7506 22.546 34.7506 20.722C34.7506 18.898 33.6858 17.2134 31.8835 15.8498ZM30.9335 25.6792C28.3844 27.5384 24.4346 28.7314 20.0003 28.7314C12.3132 28.7314 6.08175 25.1454 6.08175 20.722C6.08175 16.2987 12.3132 12.7131 20.0003 12.7131C24.4346 12.7131 28.3844 13.9061 30.9335 15.7653C30.9724 15.793 31.0103 15.8217 31.0487 15.8498C32.849 17.1998 33.9194 18.889 33.9194 20.722C33.9194 22.5551 32.8495 24.2442 31.0492 25.5942M31.0492 25.5942C31.0108 25.6229 30.9724 25.6511 30.9335 25.6792L31.0492 25.5942Z" fill="#C084FC"/>
<path d="M33.4644 25.1917C33.4234 25.1947 33.3876 25.1655 33.3824 25.1252C33.3773 25.084 33.4075 25.0462 33.4501 25.0417C33.8582 24.9954 34.2531 24.8913 34.6234 24.7328C34.7832 24.6643 34.941 24.5848 35.091 24.4963C35.1274 24.4751 35.1745 24.4867 35.1965 24.5224C35.2185 24.5582 35.2063 24.6045 35.1699 24.6261C35.0137 24.7182 34.8503 24.8007 34.6844 24.8716C34.3002 25.0362 33.891 25.1439 33.4675 25.1922L33.4644 25.1917Z" fill="#C084FC"/>
<path d="M35.3867 24.4268C35.4855 24.3383 35.5521 24.2477 35.5982 24.1672C35.9337 23.5815 35.5547 22.8685 35.4993 22.7684C35.4742 22.8373 35.4322 22.9385 35.3631 23.0512C35.2637 23.2137 35.1992 23.253 35.1337 23.3762C35.1249 23.3923 35.0312 23.5725 35.0374 23.7868C35.0476 24.142 35.3273 24.3785 35.3867 24.4268Z" fill="#C084FC"/>
<path d="M35.5352 24.5108C35.6095 24.4489 35.7524 24.3125 35.8333 24.0896C35.8871 23.9412 35.8932 23.8094 35.8902 23.7238C36.0177 23.7017 36.1903 23.6846 36.3921 23.7007C36.5975 23.7168 36.7675 23.7621 36.8904 23.8048C36.7608 23.9689 36.4617 24.2975 35.9685 24.4419C35.8077 24.4892 35.6607 24.5068 35.5352 24.5108Z" fill="#C084FC"/>
<path d="M35.998 23.5523C36.1373 23.5352 36.3094 23.5256 36.5045 23.5397C36.6735 23.5518 36.8215 23.579 36.9445 23.6091C37.052 23.4592 37.1601 23.3088 37.2676 23.1588C37.1708 23.1281 37.0372 23.0969 36.8758 23.0919C36.6643 23.0853 36.4922 23.1266 36.3811 23.1628C36.253 23.2927 36.126 23.4225 35.998 23.5523Z" fill="#C084FC"/>
<path d="M35.8622 23.4874C35.998 23.3374 36.1342 23.187 36.2699 23.037C36.2346 22.9434 36.188 22.8393 36.1265 22.7296C36.0354 22.5666 35.9355 22.4357 35.8464 22.3341C35.7818 22.4307 35.7178 22.5273 35.6533 22.6239C35.7337 22.791 35.8131 23.0093 35.8464 23.272C35.8561 23.3475 35.8607 23.4199 35.8622 23.4874Z" fill="#C084FC"/>
<path d="M36.156 21.8194C36.2262 21.8742 36.303 21.9421 36.3798 22.0262C36.5171 22.1761 36.6077 22.325 36.6677 22.4448C36.5642 22.5947 36.4602 22.7447 36.3568 22.8941C36.3286 22.8036 36.2871 22.6969 36.2251 22.5832C36.1401 22.4272 36.0438 22.3079 35.9629 22.2219C36.0275 22.0875 36.0915 21.9537 36.156 21.8194Z" fill="#C084FC"/>
<path d="M36.4629 23.029C36.5786 22.8654 36.6944 22.7019 36.8101 22.5384C36.9269 22.4961 37.0739 22.4539 37.246 22.4272C37.4216 22.4 37.5773 22.3955 37.7033 22.4005C37.6127 22.5882 37.5215 22.7754 37.4309 22.9631C37.2793 22.9354 37.0688 22.9153 36.8224 22.947C36.6836 22.9651 36.5628 22.9963 36.4629 23.029Z" fill="#C084FC"/>
<path d="M36.8418 22.3911C36.9647 22.3518 37.1178 22.3141 37.2966 22.2935C37.4564 22.2749 37.5993 22.2744 37.7186 22.2809C37.8041 22.0505 37.8897 21.8195 37.9757 21.589C37.8953 21.5745 37.6018 21.5317 37.3073 21.7023C36.9207 21.9262 36.8505 22.3342 36.8418 22.3911Z" fill="#C084FC"/>
<path d="M36.7329 22.2622C36.8087 22.073 36.884 21.8833 36.9598 21.6941C36.9132 21.6176 36.8435 21.5205 36.7406 21.4249C36.6054 21.2986 36.4681 21.2256 36.3723 21.1839C36.3385 21.3404 36.3047 21.4974 36.2715 21.6538C36.3437 21.7177 36.4246 21.7988 36.504 21.8984C36.609 22.0297 36.6817 22.157 36.7329 22.2622Z" fill="#C084FC"/>
<path d="M37.1475 21.6272C37.2663 21.5588 37.4548 21.4723 37.6985 21.4426C37.8071 21.4295 37.9055 21.43 37.9879 21.4365C38.0207 21.1749 38.054 20.9132 38.0868 20.6521C37.9797 20.6757 37.632 20.7668 37.3789 21.0914C37.2161 21.3002 37.1659 21.5135 37.1475 21.6272Z" fill="#C084FC"/>
<path d="M37.0065 21.4742C37.029 21.4093 37.051 21.3354 37.0685 21.2533C37.0848 21.1789 37.0951 21.1094 37.1012 21.046C37.0393 20.9756 36.9553 20.8936 36.8457 20.8151C36.6823 20.6988 36.5245 20.6354 36.4098 20.5997C36.4052 20.7446 36.4011 20.889 36.3965 21.034C36.5158 21.0823 36.6695 21.1613 36.8231 21.2916C36.8964 21.3535 36.9573 21.4164 37.0065 21.4742Z" fill="#C084FC"/>
<path d="M37.1149 20.7809C37.1097 20.6144 37.1041 20.4473 37.099 20.2808C36.9699 20.2496 36.8234 20.2053 36.6657 20.1424C36.5213 20.085 36.3948 20.0221 36.2867 19.9618C36.2775 20.0619 36.2795 20.2299 36.3861 20.3643C36.4383 20.4302 36.4946 20.4614 36.6939 20.5651C36.8613 20.6521 37.0042 20.7251 37.1149 20.7809Z" fill="#C084FC"/>
<path d="M37.2888 20.9198C37.5428 20.7462 37.7969 20.5731 38.0509 20.3995C38.0268 20.157 38.0028 19.9145 37.9787 19.6715C37.8993 19.7303 37.7876 19.8159 37.6591 19.9256C37.4763 20.082 37.3841 20.1615 37.3472 20.2415C37.2955 20.3537 37.2929 20.4841 37.2878 20.7442C37.2862 20.8177 37.2878 20.8791 37.2888 20.9198Z" fill="#C084FC"/>
<path d="M37.2495 20.1091C37.4482 19.9088 37.6469 19.7086 37.8456 19.5088C37.8016 19.2658 37.7576 19.0223 37.713 18.7792C37.6106 18.9035 37.522 19.0152 37.4477 19.1098C37.2648 19.3428 37.228 19.4016 37.2101 19.4917C37.1988 19.5481 37.2049 19.6301 37.2172 19.7911C37.2275 19.9234 37.2392 20.0326 37.2495 20.1091Z" fill="#C084FC"/>
<path d="M36.9667 19.5697C36.9964 19.6025 37.0061 19.6362 37.0322 19.7836C37.0491 19.8792 37.0676 19.9939 37.0845 20.1242C36.9943 20.1177 36.7126 20.0865 36.4642 19.8656C36.2619 19.686 36.1887 19.4762 36.1631 19.3856C36.3557 19.451 36.515 19.4757 36.6266 19.4862C36.7859 19.5008 36.8955 19.4907 36.9667 19.5697Z" fill="#C084FC"/>
<path d="M37.0713 19.3685C37.2439 19.1416 37.4165 18.9147 37.5885 18.6877C37.4754 18.4643 37.3622 18.2409 37.249 18.0175C37.1809 18.1091 37.0861 18.25 36.999 18.4361C36.9191 18.6072 36.8705 18.7114 36.8664 18.8492C36.8602 19.0737 36.977 19.2568 37.0713 19.3685Z" fill="#C084FC"/>
<path d="M36.7359 18.8819C36.7323 18.9503 36.7354 19.0399 36.7579 19.1415C36.7727 19.2069 36.7927 19.2633 36.8127 19.3096C36.7272 19.3206 36.5003 19.3392 36.2534 19.219C36.0209 19.1058 35.9 18.9317 35.8555 18.8587C35.9722 18.8461 36.1033 18.8381 36.2467 18.8396C36.4301 18.8416 36.5945 18.8587 36.7359 18.8819Z" fill="#C084FC"/>
<path d="M36.7535 18.6701C36.7771 18.5554 36.8201 18.4069 36.9005 18.2449C36.9701 18.105 37.0491 17.9944 37.1172 17.9113C36.9825 17.6975 36.8477 17.4836 36.713 17.2693C36.6639 17.3387 36.3828 17.7498 36.516 18.2389C36.5708 18.4397 36.6767 18.5836 36.7535 18.6701Z" fill="#C084FC"/>
<path d="M35.4571 18.3767C35.4289 18.4783 35.6015 18.6404 35.7762 18.6892C35.8684 18.7148 35.9278 18.7002 36.0512 18.6932C36.1757 18.6862 36.3534 18.6872 36.5731 18.7269C36.4978 18.6585 36.4517 18.5895 36.4225 18.5302C36.3616 18.4064 36.3723 18.3234 36.3006 18.2715C36.2438 18.2308 36.1741 18.2373 36.1173 18.2429C35.6891 18.2881 35.475 18.3113 35.4571 18.3767Z" fill="#C084FC"/>
<path d="M36.3913 17.0488C36.3795 17.0498 36.3667 17.0463 36.3565 17.0387L35.6179 16.4888C35.5954 16.4722 35.5908 16.4405 35.6082 16.4183C35.6251 16.3962 35.6574 16.3917 35.6799 16.4088L36.4184 16.9587C36.441 16.9753 36.4456 17.007 36.4282 17.0292C36.4189 17.0413 36.4051 17.0478 36.3913 17.0488Z" fill="#C084FC"/>
<path d="M36.3945 17.3276C36.3827 17.3287 36.3699 17.3251 36.3596 17.3176L35.3015 16.5296C35.279 16.513 35.2744 16.4813 35.2918 16.4592C35.3087 16.437 35.3409 16.4325 35.3635 16.4496L36.4216 17.2376C36.4441 17.2542 36.4487 17.2859 36.4313 17.308C36.4221 17.3201 36.4083 17.3266 36.3945 17.3276Z" fill="#C084FC"/>
<path d="M36.3488 17.5702C36.337 17.5712 36.3242 17.5677 36.3139 17.5601L35.032 16.6056C35.0095 16.589 35.0049 16.5573 35.0223 16.5352C35.0397 16.513 35.0714 16.5085 35.094 16.5256L36.3759 17.4801C36.3984 17.4967 36.4031 17.5284 36.3856 17.5506C36.3764 17.5626 36.3626 17.5692 36.3488 17.5702Z" fill="#C084FC"/>
<path d="M36.3122 17.8197C36.3004 17.8208 36.2876 17.8172 36.2774 17.8097L34.7537 16.675C34.7312 16.6584 34.7266 16.6267 34.744 16.6046C34.7609 16.5825 34.7931 16.5779 34.8157 16.595L36.3394 17.7297C36.3619 17.7463 36.3665 17.778 36.3491 17.8001C36.3399 17.8122 36.326 17.8187 36.3122 17.8197Z" fill="#C084FC"/>
<path d="M36.2901 18.0798C36.2783 18.0809 36.2655 18.0773 36.2553 18.0698L34.4627 16.7349C34.4402 16.7183 34.4355 16.6866 34.453 16.6644C34.4699 16.6423 34.5021 16.6378 34.5247 16.6549L36.3172 17.9898C36.3398 18.0064 36.3444 18.0381 36.327 18.0602C36.3177 18.0723 36.3039 18.0788 36.2901 18.0798Z" fill="#C084FC"/>
<path d="M36.0199 18.1554C36.0081 18.1564 35.9953 18.1528 35.9851 18.1453L34.4178 16.978C34.3953 16.9613 34.3907 16.9296 34.4081 16.9075C34.4255 16.8854 34.4573 16.8808 34.4798 16.8979L36.047 18.0653C36.0696 18.0819 36.0742 18.1136 36.0568 18.1357C36.0475 18.1478 36.0337 18.1544 36.0199 18.1554Z" fill="#C084FC"/>
<path d="M35.6807 18.1794C35.6689 18.1804 35.6561 18.1769 35.6459 18.1694L34.4423 17.2732C34.4197 17.2566 34.4151 17.2249 34.4325 17.2028C34.45 17.1806 34.4817 17.1761 34.5043 17.1932L35.7078 18.0894C35.7304 18.106 35.735 18.1377 35.7176 18.1598C35.7083 18.1719 35.6945 18.1784 35.6807 18.1794Z" fill="#C084FC"/>
<path d="M35.3796 18.2011C35.3678 18.2022 35.355 18.1986 35.3448 18.1911L34.4392 17.5168C34.4167 17.5002 34.4121 17.4685 34.4295 17.4464C34.4469 17.4243 34.4787 17.4197 34.5012 17.4368L35.4067 18.1111C35.4293 18.1277 35.4339 18.1594 35.4165 18.1815C35.4072 18.1936 35.3934 18.2001 35.3796 18.2011Z" fill="#C084FC"/>
<path d="M35.0462 18.2605C35.0344 18.2615 35.0216 18.2579 35.0114 18.2504L34.448 17.8308C34.4255 17.8142 34.4209 17.7825 34.4383 17.7603C34.4552 17.7382 34.4875 17.7336 34.51 17.7508L35.0734 18.1704C35.0959 18.187 35.1005 18.2187 35.0831 18.2408C35.0739 18.2529 35.0601 18.2595 35.0462 18.2605Z" fill="#C084FC"/>
<path d="M6.70599 25.1917C6.74697 25.1947 6.78282 25.1655 6.78794 25.1252C6.79306 25.084 6.76284 25.0462 6.72033 25.0417C6.31214 24.9954 5.91726 24.8913 5.54697 24.7328C5.38717 24.6643 5.22942 24.5848 5.07936 24.4963C5.043 24.4751 4.99588 24.4867 4.97386 24.5224C4.95183 24.5582 4.96412 24.6045 5.00049 24.6261C5.1567 24.7182 5.32008 24.8007 5.48602 24.8716C5.87014 25.0362 6.27936 25.1439 6.70292 25.1922L6.70599 25.1917Z" fill="#C084FC"/>
<path d="M4.78412 24.4268C4.68527 24.3383 4.61869 24.2477 4.57259 24.1672C4.23713 23.5815 4.61613 22.8685 4.67144 22.7684C4.69654 22.8373 4.73853 22.9385 4.80768 23.0512C4.90704 23.2137 4.97157 23.253 5.03713 23.3762C5.04583 23.3923 5.13956 23.5725 5.13341 23.7868C5.12317 24.142 4.84353 24.3785 4.78412 24.4268Z" fill="#C084FC"/>
<path d="M4.63545 24.5108C4.56119 24.4489 4.4183 24.3125 4.33737 24.0896C4.2836 23.9412 4.27745 23.8094 4.28052 23.7238C4.15299 23.7017 3.98039 23.6846 3.7786 23.7007C3.57322 23.7168 3.40319 23.7621 3.28027 23.8048C3.40984 23.9689 3.70895 24.2975 4.20216 24.4419C4.36298 24.4892 4.511 24.5068 4.63648 24.5108H4.63545Z" fill="#C084FC"/>
<path d="M4.172 23.5523C4.03269 23.5352 3.8606 23.5256 3.66547 23.5397C3.49645 23.5518 3.34844 23.579 3.22552 23.6091C3.11796 23.4592 3.0099 23.3088 2.90234 23.1588C2.99914 23.1281 3.13282 23.0969 3.29415 23.0919C3.50567 23.0853 3.67776 23.1266 3.7889 23.1628C3.91694 23.2927 4.04396 23.4225 4.172 23.5523Z" fill="#C084FC"/>
<path d="M4.30807 23.4874C4.17235 23.3374 4.03611 23.187 3.90039 23.037C3.93573 22.9434 3.98233 22.8393 4.04379 22.7296C4.13496 22.5666 4.23483 22.4357 4.32395 22.3341C4.38848 22.4307 4.4525 22.5273 4.51703 22.6239C4.43662 22.791 4.35724 23.0093 4.32395 23.272C4.31422 23.3475 4.30961 23.4199 4.30807 23.4874Z" fill="#C084FC"/>
<path d="M4.01458 21.8194C3.94441 21.8742 3.86759 21.9421 3.79076 22.0262C3.6535 22.1761 3.56285 22.325 3.50293 22.4448C3.60638 22.5947 3.71035 22.7447 3.81381 22.8941C3.84198 22.8036 3.88346 22.6969 3.94544 22.5832C4.03045 22.4272 4.12674 22.3079 4.20766 22.2219C4.14313 22.0875 4.07911 21.9537 4.01458 21.8194Z" fill="#C084FC"/>
<path d="M3.70726 23.029C3.59151 22.8654 3.47576 22.7019 3.36001 22.5384C3.24324 22.4961 3.09625 22.4539 2.92416 22.4272C2.74849 22.4 2.59279 22.3955 2.4668 22.4005C2.55745 22.5882 2.64862 22.7754 2.73927 22.9631C2.89087 22.9354 3.10137 22.9153 3.34772 22.947C3.48652 22.9651 3.60739 22.9963 3.70726 23.029Z" fill="#C084FC"/>
<path d="M3.32925 22.3911C3.20633 22.3518 3.05319 22.3141 2.87444 22.2935C2.71465 22.2749 2.57176 22.2744 2.45242 22.2809C2.36689 22.0505 2.28136 21.8195 2.19531 21.589C2.27572 21.5745 2.56919 21.5317 2.86369 21.7023C3.25037 21.9262 3.32054 22.3342 3.32925 22.3911Z" fill="#C084FC"/>
<path d="M3.43783 22.2622C3.36203 22.073 3.28674 21.8833 3.21094 21.6941C3.25755 21.6176 3.3272 21.5205 3.43014 21.4249C3.56536 21.2986 3.70262 21.2256 3.79839 21.1839C3.83219 21.3404 3.866 21.4974 3.89929 21.6538C3.82707 21.7177 3.74615 21.7988 3.66676 21.8984C3.56177 22.0297 3.48904 22.157 3.43783 22.2622Z" fill="#C084FC"/>
<path d="M3.02328 21.6272C2.90446 21.5588 2.71599 21.4723 2.4722 21.4426C2.36362 21.4295 2.26528 21.43 2.18282 21.4365C2.15005 21.1749 2.11675 20.9132 2.08398 20.6521C2.19102 20.6757 2.53878 20.7668 2.79179 21.0914C2.95465 21.3002 3.00485 21.5135 3.02328 21.6272Z" fill="#C084FC"/>
<path d="M3.16409 21.4742C3.14156 21.4093 3.11953 21.3354 3.10212 21.2533C3.08573 21.1789 3.07549 21.1094 3.06934 21.046C3.13131 20.9756 3.21531 20.8936 3.32491 20.8151C3.48829 20.6988 3.64604 20.6354 3.76076 20.5997C3.76537 20.7446 3.76947 20.889 3.77408 21.034C3.65474 21.0823 3.50109 21.1613 3.34745 21.2916C3.27421 21.3535 3.21326 21.4164 3.16409 21.4742Z" fill="#C084FC"/>
<path d="M3.05566 20.7809C3.06078 20.6144 3.06641 20.4473 3.07153 20.2808C3.2006 20.2496 3.34708 20.2053 3.50482 20.1424C3.64925 20.085 3.77576 20.0221 3.88382 19.9618C3.89304 20.0619 3.89099 20.2299 3.78446 20.3643C3.73222 20.4302 3.67589 20.4614 3.47665 20.5651C3.30918 20.6521 3.16628 20.7251 3.05566 20.7809Z" fill="#C084FC"/>
<path d="M2.88222 20.9198C2.62819 20.7462 2.37415 20.5731 2.12012 20.3995C2.14419 20.157 2.16826 19.9145 2.19234 19.6715C2.27172 19.7303 2.38337 19.8159 2.51193 19.9256C2.69477 20.082 2.78696 20.1615 2.82383 20.2415C2.87556 20.3537 2.87812 20.4841 2.88325 20.7442C2.88478 20.8177 2.88325 20.8791 2.88222 20.9198Z" fill="#C084FC"/>
<path d="M2.92136 20.1091C2.72264 19.9088 2.52392 19.7086 2.3252 19.5088C2.36924 19.2658 2.41329 19.0223 2.45785 18.7792C2.56028 18.9035 2.64888 19.0152 2.72315 19.1098C2.90599 19.3428 2.94287 19.4016 2.96079 19.4917C2.97206 19.5481 2.96591 19.6301 2.95362 19.7911C2.94338 19.9234 2.9316 20.0326 2.92136 20.1091Z" fill="#C084FC"/>
<path d="M3.20374 19.5697C3.17404 19.6025 3.16431 19.6362 3.13819 19.7836C3.12128 19.8792 3.10285 19.9939 3.08594 20.1242C3.17609 20.1177 3.45778 20.0865 3.70617 19.8656C3.90848 19.686 3.98172 19.4762 4.00733 19.3856C3.81475 19.451 3.65547 19.4757 3.54382 19.4862C3.38454 19.5008 3.27493 19.4907 3.20374 19.5697Z" fill="#C084FC"/>
<path d="M3.09932 19.3685C2.92672 19.1416 2.75412 18.9147 2.58203 18.6877C2.69522 18.4643 2.80841 18.2409 2.9216 18.0175C2.98971 18.1091 3.08446 18.25 3.17153 18.4361C3.25143 18.6072 3.30009 18.7114 3.30418 18.8492C3.31033 19.0737 3.19356 19.2568 3.09932 19.3685Z" fill="#C084FC"/>
<path d="M3.43425 18.8819C3.43783 18.9503 3.43476 19.0399 3.41222 19.1415C3.39737 19.2069 3.3774 19.2633 3.35742 19.3096C3.44295 19.3206 3.66984 19.3392 3.91671 19.219C4.14923 19.1058 4.2701 18.9317 4.31466 18.8587C4.19788 18.8461 4.06677 18.8381 3.92336 18.8396C3.74001 18.8416 3.5756 18.8587 3.43425 18.8819Z" fill="#C084FC"/>
<path d="M3.41735 18.6701C3.39379 18.5554 3.35077 18.4069 3.27036 18.2449C3.2007 18.105 3.12183 17.9944 3.05371 17.9113C3.18841 17.6975 3.32311 17.4836 3.45781 17.2693C3.50698 17.3387 3.78816 17.7498 3.65499 18.2389C3.60019 18.4397 3.49417 18.5836 3.41735 18.6701Z" fill="#C084FC"/>
<path d="M4.71367 18.3767C4.74184 18.4783 4.56924 18.6404 4.39459 18.6892C4.3024 18.7148 4.24299 18.7002 4.11956 18.6932C3.9951 18.6862 3.81738 18.6872 3.59766 18.7269C3.67295 18.6585 3.71905 18.5895 3.74824 18.5302C3.80919 18.4064 3.79843 18.3234 3.87014 18.2715C3.92699 18.2308 3.99664 18.2373 4.05349 18.2429C4.48166 18.2881 4.69574 18.3113 4.71367 18.3767Z" fill="#C084FC"/>
<path d="M3.77892 17.0488C3.7907 17.0498 3.8035 17.0463 3.81375 17.0387L4.55229 16.4888C4.57482 16.4722 4.57943 16.4405 4.56202 16.4183C4.54512 16.3962 4.51285 16.3917 4.49031 16.4088L3.75177 16.9587C3.72924 16.9753 3.72463 17.007 3.74204 17.0292C3.75126 17.0413 3.76509 17.0478 3.77892 17.0488Z" fill="#C084FC"/>
<path d="M3.77599 17.3276C3.78777 17.3287 3.80058 17.3251 3.81082 17.3176L4.86895 16.5296C4.89149 16.513 4.8961 16.4813 4.87868 16.4592C4.86178 16.437 4.82952 16.4325 4.80698 16.4496L3.74885 17.2376C3.72631 17.2542 3.7217 17.2859 3.73912 17.308C3.74834 17.3201 3.76217 17.3266 3.77599 17.3276Z" fill="#C084FC"/>
<path d="M3.82188 17.5702C3.83366 17.5712 3.84647 17.5677 3.85671 17.5601L5.13866 16.6056C5.16119 16.589 5.1658 16.5573 5.14839 16.5352C5.13097 16.513 5.09922 16.5085 5.07668 16.5256L3.79474 17.4801C3.7722 17.4967 3.76759 17.5284 3.78501 17.5506C3.79422 17.5626 3.80805 17.5692 3.82188 17.5702Z" fill="#C084FC"/>
<path d="M3.85802 17.8197C3.8698 17.8208 3.88261 17.8172 3.89285 17.8097L5.41654 16.675C5.43907 16.6584 5.44368 16.6267 5.42627 16.6046C5.40936 16.5825 5.3771 16.5779 5.35456 16.595L3.83088 17.7297C3.80834 17.7463 3.80373 17.778 3.82114 17.8001C3.83036 17.8122 3.84419 17.8187 3.85802 17.8197Z" fill="#C084FC"/>
<path d="M3.88048 18.0798C3.89226 18.0809 3.90506 18.0773 3.9153 18.0698L5.70788 16.7349C5.73041 16.7183 5.73502 16.6866 5.71761 16.6644C5.70071 16.6423 5.66844 16.6378 5.6459 16.6549L3.85333 17.9898C3.8308 18.0064 3.82619 18.0381 3.8436 18.0602C3.85282 18.0723 3.86665 18.0788 3.88048 18.0798Z" fill="#C084FC"/>
<path d="M4.15099 18.1554C4.16277 18.1564 4.17557 18.1528 4.18581 18.1453L5.75303 16.978C5.77557 16.9613 5.78018 16.9296 5.76276 16.9075C5.74535 16.8854 5.7136 16.8808 5.69106 16.8979L4.12384 18.0653C4.1013 18.0819 4.0967 18.1136 4.11411 18.1357C4.12333 18.1478 4.13716 18.1544 4.15099 18.1554Z" fill="#C084FC"/>
<path d="M4.48985 18.1794C4.50163 18.1804 4.51443 18.1769 4.52468 18.1694L5.72826 17.2732C5.7508 17.2566 5.75541 17.2249 5.73799 17.2028C5.72058 17.1806 5.68883 17.1761 5.66629 17.1932L4.46271 18.0894C4.44017 18.106 4.43556 18.1377 4.45297 18.1598C4.46219 18.1719 4.47602 18.1784 4.48985 18.1794Z" fill="#C084FC"/>
<path d="M4.79064 18.2011C4.80242 18.2022 4.81522 18.1986 4.82546 18.1911L5.73097 17.5168C5.75351 17.5002 5.75812 17.4685 5.7407 17.4464C5.72329 17.4243 5.69153 17.4197 5.669 17.4368L4.76349 18.1111C4.74096 18.1277 4.73635 18.1594 4.75376 18.1815C4.76298 18.1936 4.77681 18.2001 4.79064 18.2011Z" fill="#C084FC"/>
<path d="M5.12462 18.2605C5.1364 18.2615 5.1492 18.2579 5.15944 18.2504L5.72283 17.8308C5.74536 17.8142 5.74997 17.7825 5.73256 17.7603C5.71565 17.7382 5.68339 17.7336 5.66085 17.7508L5.09747 18.1704C5.07494 18.187 5.07033 18.2187 5.08774 18.2408C5.09696 18.2529 5.11079 18.2595 5.12462 18.2605Z" fill="#C084FC"/>
</g>
<defs>
<clipPath id="clip0_100_36">
<rect width="40" height="40" fill="white" transform="translate(0 0.5)"/>
</clipPath>
</defs>
</svg>
